<ttFont>
          <CharString index="0">
            rmoveto
            12 5 4 11 11 vvcurveto
            19 -14 22 -20 -3 -4 -1 -1 -4 vhcurveto
            -124 -63 rlineto
            -11 -6 -4 -9 -11 vvcurveto
            -19 15 -22 20 4 4 1 -49 callgsubr
            return
          </CharString>
          <CharString index="1">
            80 hmoveto
            18 14 6 16 5 hvcurveto
            41 142 rlineto
            247 hlineto
            41 -142 rlineto
            -16 5 14 -6 17 hhcurveto
            30 37 19 25 3 -1 3 -1 3 hvcurveto
            -198 648 rlineto
            24 -8 -30 12 -30 hhcurveto
            -30 -29 -12 -24 -8 hvcurveto
            -199 -648 rlineto
            -1 -3 0 -3 -3 vvcurveto
            -26 37 -18 29 vhcurveto
            101 249 rmoveto
            100 343 100 -343 rlineto
            return
          </CharString>
          <CharString index="2">
            -26 -20 -21 -25 -25 20 -22 26 25 19 22 25 25 -19 21 -25 12 callsubr
            hmoveto
            -25 -20 -21 -25 -25 20 -22 25 25 20 22 25 25 -20 16 callsubr
            return
          </CharString>
          <CharString index="3">
            rmoveto
            126 99 61 162 hvcurveto
            -41 callgsubr
            162 -99 61 -126 -127 -97 -27 callgsubr
            vhcurveto
            12 callgsubr
            97 -61 127 vhcurveto
            119 223 rmoveto
            -82 callgsubr
            -66 callsubr
            return
          </CharString>
          <CharString index="4">
            rmoveto
            -12 -12 -5 -13 -6 hvcurveto
            -367 -735 rlineto
            -3 -5 -1 -5 -5 vvcurveto
            -18 16 -19 23 14 14 7 12 6 vhcurveto
            367 732 rlineto
            2 5 1 5 6 vvcurveto
            23 -22 15 -20 vhcurveto
            return
          </CharString>
          <CharString index="5">
            rmoveto
            1 3 0 3 4 vvcurveto
            25 -36 18 -30 -17 -16 -7 -15 -4 vhcurveto
            -163 -570 -91 358 rlineto
            22 -6 -22 9 -24 hhcurveto
            -26 -22 -9 -22 -5 hvcurveto
            -90 -358 -164 570 rlineto
            15 -4 -16 7 -17 hhcurveto
            -30 -36 -18 -25 -4 0 -3 1 -3 hvcurveto
            199 -648 rlineto
            -24 7 30 -12 30 hhcurveto
            30 31 12 24 6 hvcurveto
            76 302 76 -302 rlineto
            -24 6 31 -12 29 hhcurveto
            29 31 12 24 8 hvcurveto
            return
          </CharString>
          <CharString index="6">
            -27 -24 -38 -71 hhcurveto
            -77 -53 42 67 hvcurveto
            23 211 vlineto
            45 46 3 83 109 -92 76 -107 hvcurveto
            -103 -206 rmoveto
            32 vlineto
            55 47 39 55 57 44 -43 -53 -24 -8 -6 -29 vhcurveto
            return
          </CharString>
          <CharString index="7">
            rmoveto
            76 59 33 90 hvcurveto
            148 vlineto
            90 -59 33 -76 -77 -58 -33 -90 vhcurveto
            -148 vlineto
            -90 58 -33 77 vhcurveto
            63 123 rmoveto
            -41 -24 -18 -39 -39 -23 18 41 vhcurveto
            148 vlineto
            41 23 18 39 39 24 -18 -41 vhcurveto
            return
          </CharString>
          <CharString index="8">
            182 29 rmoveto
            -113 -14 -78 -51 -51 hhcurveto
            -21 -8 -21 -24 -38 22 -7 27 142 49 133 118 45 hvcurveto
            148 391 rlineto
            2 3 0 5 4 vvcurveto
            30 -45 22 -25 -12 -12 -6 -13 -6 vhcurveto
            -108 -325 -126 325 rlineto
            13 -5 -13 6 -14 hhcurveto
            -28 -41 -23 -27 -6 1 -4 3 -4 hvcurveto
            return
          </CharString>
          <CharString index="9">
            rmoveto
            111 78 71 95 hvcurveto
            28 vlineto
            36 -11 34 -21 26 vhcurveto
            16 23 20 11 14 6 rrcurveto
            9 5 8 9 11 vvcurveto
            15 -16 21 -27 -21 -23 -19 -48 -21 vhcurveto
            22 -30 -40 12 -46 hhcurveto
            -112 -74 -68 -96 hvcurveto
            -28 vlineto
            -52 22 -45 37 -29 vhcurveto
            -30 -19 -20 -20 -37 vvcurveto
            -36 19 -18 28 -12 vhcurveto
            return
          </CharString>
          <CharString index="10">
            27 26 12 23 hvcurveto
            662 vlineto
            -92 callgsubr
            -459 vlineto
            -222 433 rlineto
            46 -24 -18 14 -38 hhcurveto
            -12 callgsubr
            -25 hvcurveto
            -661 vlineto
            -68 callsubr
            459 vlineto
            239 -455 rlineto
            -26 14 23 -13 26 hhcurveto
            return
          </CharString>
          <CharString index="11">
            -19 callgsubr
            662 vlineto
            -92 callgsubr
            return
          </CharString>
          <CharString index="12">
            33 11 23 26 45 vvcurveto
            68 -51 27 -71 vhcurveto
            63 -276 rmoveto
            -40 -24 -20 -39 -39 -24 19 41 vhcurveto
            11 vlineto
            40 23 17 40 39 24 -17 -40 vhcurveto
            -63 207 rmoveto
            32 20 -14 -32 -32 -20 -12 -32 -33 -20 12 32 32 20 14 33 hvcurveto
            return
          </CharString>
          <CharString index="13">
            -107 callgsubr
            endchar
          </CharString>
          <CharString index="14">
            37 callsubr
            -6 callsubr
            22 -18 30 30 23 -46 callsubr
            405 36 callsubr
            vhcurveto
            return
          </CharString>
          <CharString index="15">
            -26 1 24 -9 28 hhcurveto
            35 18 10 41 113 -94 72 -134 -122 -99 -30 callgsubr
            -162 97 -61 127 126 99 61 162 vhcurveto
            131 vlineto
            19 -13 17 -22 vhcurveto
            -172 hlineto
            return
          </CharString>
          <CharString index="16">
            -54 -28 31 -56 hhcurveto
            -26 -61 -12 -52 -11 7 -25 21 hvcurveto
            19 17 27 42 hhcurveto
            return
          </CharString>
          <CharString index="17">
            172 637 -103 callgsubr
            return
          </CharString>
          <CharString index="18">
            -34 -33 33 44 hvcurveto
            -60 hlineto
            -68 61 -58 66 65 62 58 68 vhcurveto
            endchar
          </CharString>
          <CharString index="19">
            rmoveto
            -16 18 -7 19 18 18 7 16 vhcurveto
            346 vlineto
            14 -17 9 -15 -7 -22 callsubr
            -4 vhcurveto
            -68 -47 rlineto
            -8 -5 -5 -11 -10 vvcurveto
            -14 10 -14 14 3 5 1 3 5 vhcurveto
            19 15 rlineto
            return
          </CharString>
          <CharString index="20">
            -115 -93 -89 -105 hvcurveto
            -95 vlineto
            -119 96 -80 136 101 65 46 30 18 -16 29 -25 vhcurveto
            return
          </CharString>
          <CharString index="21">
            185 -304 -79 74 vvcurveto
            13 9 8 10 7 vhcurveto
            -8 20 24 -4 25 hhcurveto
            87 166 rmoveto
            -57 -32 -42 -53 -55 -31 43 57 vhcurveto
            27 vlineto
            54 31 43 54 55 31 -43 -54 vhcurveto
            return
          </CharString>
          <CharString index="22">
            rmoveto
            -25 -20 -21 -25 -25 20 -22 25 26 19 22 25 25 -19 21 -26 hvcurveto
            endchar
          </CharString>
          <CharString index="23">
            -12 26 27 26 17 callgsubr
            return
          </CharString>
          <CharString index="24">
            -53 -42 -47 -50 -52 43 -47 52 51 46 47 52 51 -46 46 -51 hvcurveto
            51 -98 rmoveto
            -27 -23 -27 -27 -29 -23 28 26 24 23 26 29 27 23 -25 -25 vhcurveto
            return
          </CharString>
          <CharString index="25">
            vstem
            -90 callsubr
            return
          </CharString>
          <CharString index="26">
            hstem
            51 105 204 104 vstem
            -93 callgsubr
            return
          </CharString>
          <CharString index="27">
            71 0 94 250 78 215 94 hstemhm
            -4 184 -106 106 -106 227 116 106 hintmask 11101010
            121 731 rmoveto
            -28 -19 -16 -18 hvcurveto
            -275 -49 vlineto
            hintmask 11110010
            -18 -11 -19 -20 -21 11 -18 18 hvcurveto
            hintmask 11101010
            49 -310 hlineto
            -18 19 -16 28 vhcurveto
            177 hlineto
            127 98 61 162 hvcurveto
            285 10 callgsubr
            vhcurveto
            -94 vmoveto
            75 44 -41 -88 hvcurveto
            -285 vlineto
            -88 -44 -41 -75 vhcurveto
            -118 250 91 hlineto
            hintmask 11100110
            19 11 18 21 20 -11 19 -19 hvcurveto
            hintmask 11110010
            -91 215 hlineto
            endchar
          </CharString>
          <CharString index="28">
            -42 -14 -27 -32 -54 vvcurveto
            -7 vlineto
            -79 59 -31 77 76 59 31 79 vhcurveto
            7 vlineto
            54 -27 32 -42 14 vhcurveto
            return
          </CharString>
          <CharString index="29">
            rmoveto
            8 84 rlineto
            132 hlineto
            15 7 16 16 16 -7 16 -15 hvcurveto
            -178 hlineto
            -9 -5 -8 -15 -1 hvcurveto
            -14 -134 rlineto
            -1 -8 0 -5 -7 vvcurveto
            -16 6 -12 24 vhcurveto
            85 hlineto
            39 24 -19 -39 hvcurveto
            -10 vlineto
            -41 -24 -16 -41 -38 -22 13 25 vhcurveto
            return
          </CharString>
          <CharString index="30">
            243 480 rmoveto
            -98 callgsubr
            -61 callsubr
            return
          </CharString>
          <CharString index="31">
            32 23 13 30 40 16 -24 -21 vhcurveto
            -74 -188 -46 -85 vvcurveto
            -52 vlineto
            -14 19 -9 13 vhcurveto
            207 hlineto
            12 11 16 16 17 -11 15 -12 hvcurveto
            -164 14 hlineto
            53 186 38 113 vvcurveto
            68 -62 41 -68 -64 -59 -37 -63 vhcurveto
            return
          </CharString>
          <CharString index="32">
            -8 callsubr
            hintmask 0111010010000000
            -78 callgsubr
            hintmask 1011010100000000
            -74 callgsubr
            vhcurveto
            hintmask 1010110100000000
            -56 callgsubr
            hintmask 1011011000000000
            -74 callsubr
            endchar
          </CharString>
          <CharString index="33">
            -17 -1 -6 -14 -14 vvcurveto
            -14 6 -14 17 38 28 -10 -39 vhcurveto
            -10 vlineto
            -39 -20 -16 -45 vhcurveto
            return
          </CharString>
          <CharString index="34">
            -86 -21 46 -26 hhcurveto
            -21 -15 -29 -18 -38 73 -42 99 113 63 54 85 hvcurveto
            180 -243 -58 88 vvcurveto
            return
          </CharString>
          <CharString index="35">
            20 -21 14 -26 -31 -21 -14 -20 vhcurveto
            -405 39 callsubr
            return
          </CharString>
          <CharString index="36">
            102 -289 rmoveto
            -54 -46 -52 -56 -57 -45 52 54 vhcurveto
            92 vlineto
            return
          </CharString>
          <CharString index="37">
            -19 callsubr
            hintmask 01011000
            62 27 vlineto
            hintmask 10010100
            -9 callgsubr
            hintmask 10011000
            -27 52 hlineto
            hintmask 00111000
            -10 callsubr
            hintmask 10011000
            -73 callgsubr
            hintmask 01011000
            -1 callgsubr
            endchar
          </CharString>
          <CharString index="38">
            21 11 24 23 24 -11 23 -21 hvcurveto
            -260 603 hlineto
            -92 callgsubr
            -662 -54 callsubr
            return
          </CharString>
          <CharString index="39">
            -23 27 -84 callsubr
            return
          </CharString>
          <CharString index="40">
            rmoveto
            31 28 6 20 19 hvcurveto
            -56 vlineto
            -41 -24 -18 -41 -34 -28 13 24 vhcurveto
            hintmask 01111100
            22 -17 5 -21 -22 -12 -7 -23 -44 40 -54 92 79 60 33 90 vhcurveto
            148 vlineto
            90 -59 33 -76 -77 -59 -33 -90 vhcurveto
            -7 vlineto
            -85 55 -26 66 vhcurveto
            78 111 rmoveto
            -40 -25 -15 -38 -40 -23 17 42 vhcurveto
            7 vlineto
            42 23 18 40 39 24 -18 -42 vhcurveto
            endchar
          </CharString>
          <CharString index="41">
            20 callgsubr
            75 74 45 -41 -88 vhcurveto
            return
          </CharString>
          <CharString index="42">
            -36 callsubr
            320 hlineto
            18 18 18 26 25 -18 20 -18 hvcurveto
            -320 -43 callsubr
          </CharString>
          <CharString index="43">
            206 480 rmoveto
            -68 -83 -28 -36 -24 13 -29 25 hvcurveto
            return
          </CharString>
          <CharString index="44">
            7 callsubr
            55 -6 callgsubr
            -248 vlineto
            -23 28 -12 24 26 27 17 callgsubr
            248 -35 callsubr
            -64 -45 -37 -39 -19 vhcurveto
            return
          </CharString>
          <CharString index="45">
            95 -21 406 -20 hstem
            143 277 rmoveto
            74 139 rlineto
            2 4 1 4 4 vvcurveto
            22 -29 30 -34 -15 -12 -5 -9 -5 vhcurveto
            -79 -148 rlineto
            -11 -19 -7 -10 -13 vvcurveto
            -13 7 -8 11 -19 vhcurveto
            79 -147 rlineto
            -10 5 12 -5 14 hhcurveto
            34 30 30 23 4 -1 4 -2 3 hvcurveto
            return
          </CharString>
          <CharString index="46">
            52 45 52 57 56 -6 callgsubr
            return
          </CharString>
          <CharString index="47">
            -20 -81 callsubr
            return
          </CharString>
          <CharString index="48">
            -20 -80 callgsubr
            return
          </CharString>
          <CharString index="49">
            -23 -16 -33 -66 hhcurveto
            -77 -34 40 66 hvcurveto
            90 vlineto
            66 35 40 75 vhcurveto
            return
          </CharString>
          <CharString index="50">
            -34 -27 -25 -30 -29 27 -26 34 34 27 26 29 30 -27 25 -34 hvcurveto
            return
          </CharString>
          <CharString index="51">
            vvcurveto
            -53 43 -31 66 22 6 9 13 13 -7 12 -15 vhcurveto
            return
          </CharString>
          <CharString index="52">
            -14 9 14 -6 15 hhcurveto
            30 32 26 26 7 -2 6 -4 6 hvcurveto
            -228 347 192 240 rlineto
            6 7 2 9 5 vvcurveto
            27 -34 28 -27 -12 -11 -4 -11 -7 vhcurveto
            -244 -323 rlineto
            304 vlineto
            -92 callgsubr
            endchar
          </CharString>
          <CharString index="53">
            vlineto
            -23 24 -12 23 vhcurveto
            return
          </CharString>
          <CharString index="54">
            rmoveto
            21 19 21 26 25 -19 21 -21 hvcurveto
            -32 hlineto
            -59 -47 -42 -42 -21 hvcurveto
            44 vlineto
            return
          </CharString>
          <CharString index="55">
            245 480 rmoveto
            -87 callsubr
            return
          </CharString>
          <CharString index="56">
            21 -28 callgsubr
            return
          </CharString>
          <CharString index="57">
            16 -6 12 -31 -23 -13 -7 -27 -48 48 -48 88 74 61 33 88 vhcurveto
            10 vlineto
            84 -60 31 -76 vhcurveto
            endchar
          </CharString>
          <CharString index="58">
            rmoveto
            34 26 27 33 24 -14 21 -21 9 hvcurveto
            22 53 rlineto
            2 5 1 3 4 vvcurveto
            18 -20 11 -16 -8 return
          </CharString>
          <CharString index="59">
            437 -103 callsubr
            return
          </CharString>
          <CharString index="60">
            114 rmoveto
            -33 27 callgsubr
            -3 -5 0 -1 callsubr
            20 -10 16 9 10 4 11 5 vhcurveto
            47 112 2 12 9 vvcurveto
            34 -28 26 -32 vhcurveto
            return
          </CharString>
          <CharString index="61">
            18 17 vhcurveto
            return
          </CharString>
          <CharString index="62">
            20 -22 14 -30 vhcurveto
            -257 -473 rmoveto
            52 46 52 56 50 52 -39 -65 vhcurveto
            -115 vlineto
            return
          </CharString>
          <CharString index="63">
            rmoveto
            -105 callsubr
            endchar
          </CharString>
          <CharString index="64">
            hlineto
            -20 -14 -20 -25 hvcurveto
            endchar
          </CharString>
          <CharString index="65">
            -44 -33 -33 -33 vhcurveto
            return
          </CharString>
          <CharString index="66">
            rmoveto
            -36 -27 -26 -30 -30 27 -27 36 34 28 27 30 30 -28 26 -34 hvcurveto
            endchar
          </CharString>
          <CharString index="67">
            -272 -51 callsubr
            return
          </CharString>
          <CharString index="68">
            -70 callgsubr
            endchar
          </CharString>
          <CharString index="69">
            59 -34 callgsubr
            return
          </CharString>
          <CharString index="70">
            rmoveto
            92 66 41 35 21 -17 29 -28 hvcurveto
            return
          </CharString>
          <CharString index="71">
            rmoveto
            -26 14 -18 20 vhcurveto
            return
          </CharString>
          <CharString index="72">
            vlineto
            108 -80 89 -94 return
          </CharString>
          <CharString index="73">
            93 302 93 return
          </CharString>
          <CharString index="74">
            74 vstem
            73 768 rmoveto
            -20 -21 -12 -17 hvcurveto
            10 -141 rlineto
            -15 8 -15 23 23 10 15 15 vhcurveto
            10 141 rlineto
            17 -22 12 -21 vhcurveto
            return
          </CharString>
          <CharString index="75">
            -84 -8 93 -93 126 238 124 -93 93 return
          </CharString>
          <CharString index="76">
            73 -60 60 126 59 -59 72 return
          </CharString>
          <CharString index="77">
            hstem
            36 -28 callsubr
            vstem
            return
          </CharString>
          <CharString index="78">
            vlineto
            -162 100 -61 return
          </CharString>
          <CharString index="79">
            105 204 105 return
          </CharString>
          <CharString index="80">
            rmoveto
            -161 -105 -111 -150 -151 -98 113 155 161 105 111 150 151 98 -113 -155 vhcurveto
            return
          </CharString>
          <CharString index="81">
            -22 -12 -22 -20 -22 12 -21 22 hvcurveto
            return
          </CharString>
          <CharString index="82">
            73 -6 94 643 -20 return
          </CharString>
          <CharString index="83">
            -39 callgsubr
            -6 -20 return
          </CharString>
          <CharString index="84">
            -8 -34 callsubr
            return
          </CharString>
          <CharString index="85">
            -5 -2 -3 return
          </CharString>
          <CharString index="86">
            4 1 2 return
          </CharString>
          <CharString index="87">
            94 211 85 111 236 -94 94 return
          </CharString>
          <CharString index="88">
            rmoveto
            -16 18 -7 18 19 18 7 16 vhcurveto
            return
          </CharString>
          <CharString index="89">
            -20 13 callgsubr
            249 106 vstem
            return
          </CharString>
          <CharString index="90">
            -17 21 -18 return
          </CharString>
          <CharString index="91">
            -4 -4 vvcurveto
            return
          </CharString>
          <CharString index="92">
            116 -181 rmoveto
            -60 -52 -58 -64 -64 -51 58 61 60 51 57 64 65 51 -58 -60 vhcurveto
            endchar
          </CharString>
          <CharString index="93">
            73 -42 42 hstemhm
            return
          </CharString>
          <CharString index="94">
            84 229 94 return
          </CharString>
          <CharString index="95">
            -52 -52 vhcurveto
            return
          </CharString>
          <CharString index="96">
            -20 22 -14 29 29 25 14 20 vhcurveto
            return
          </CharString>
          <CharString index="97">
            16 -18 7 -19 -18 -18 -7 -16 vhcurveto
            return
          </CharString>
          <CharString index="98">
            hstem
            63 106 245 106 vstem
            return
          </CharString>
          <CharString index="99">
            rmoveto
            -39 -24 14 23 hvcurveto
            return
          </CharString>
          <CharString index="100">
            -21 474 -20 return
          </CharString>
          <CharString index="101">
            -15 callgsubr
            -17 return
          </CharString>
          <CharString index="102">
            152 -67 67 -67 142 164 -20 hstemhm
            173 73 -73 123 hintmask 10011000
            173 return
          </CharString>
          <CharString index="103">
            9 callsubr
            245 -20 hstem
            return
          </CharString>
          <CharString index="104">
            9 callgsubr
            251 -20 hstem
            return
          </CharString>
          <CharString index="105">
            5 callgsubr
            hintmask 01111110
            return
          </CharString>
          <CharString index="106">
            -16 callsubr
            -18 return
          </CharString>
          <CharString index="107">
            127 -20 hstemhm
            return
          </CharString>
          <CharString index="108">
            -24 -45 -59 -58 -55 -46 52 54 vhcurveto
            endchar
          </CharString>
          <CharString index="109">
            -2 -4 vhcurveto
            return
          </CharString>
          <CharString index="110">
            rmoveto
            -70 callgsubr
            return
          </CharString>
          <CharString index="111">
            -88 -44 -41 -76 -83 -33 53 60 -2 vhcurveto
            return
          </CharString>
          <CharString index="112">
            -160 -21 202 -21 return
          </CharString>
          <CharString index="113">
            19 callsubr
            -24 14 -21 return
          </CharString>
          <CharString index="114">
            65 48 39 48 return
          </CharString>
          <CharString index="115">
            -14 -21 32 58 128 60 return
          </CharString>
          <CharString index="116">
            337 37 callgsubr
            return
          </CharString>
          <CharString index="117">
            25 22 33 59 vhcurveto
            return
          </CharString>
          <CharString index="118">
            63 52 28 73 vhcurveto
            return
          </CharString>
          <CharString index="119">
            hvcurveto
            139 return
          </CharString>
          <CharString index="120">
            -35 callgsubr
            225 -20 hstem
            -38 callsubr
            vstem
            return
          </CharString>
          <CharString index="121">
            20 -25 14 -28 -31 -21 -14 -20 vhcurveto
            return
          </CharString>
          <CharString index="122">
            -21 24 -21 314 85 238 94 return
          </CharString>
          <CharString index="123">
            21 -25 hvcurveto
            return
          </CharString>
          <CharString index="124">
            -75 rlineto
            -4 return
          </CharString>
          <CharString index="125">
            -47 -225 70 0 154 0 190 -67 67 224 67 return
          </CharString>
          <CharString index="126">
            -26 -27 -33 return
          </CharString>
          <CharString index="127">
            -21 266 128 -64 64 hstemhm
            19 73 hintmask 11010000
            290 return
          </CharString>
          <CharString index="128">
            -41 callgsubr
            2 callgsubr
          </CharString>
          <CharString index="129">
            rmoveto
            -54 -48 -52 -54 -59 -42 59 24 vhcurveto
            115 vlineto
            return
          </CharString>
          <CharString index="130">
            196 89 hstem
            41 26 callgsubr
            return
          </CharString>
          <CharString index="131">
            -37 callgsubr
            hstemhm
            40 92 return
          </CharString>
          <CharString index="132">
            78 217 -20 hstem
            54 105 vstem
            return
          </CharString>
          <CharString index="133">
            hintmask 1011101010000000
            -20 -14 -17 -23 -22 14 -15 20 hvcurveto
            return
          </CharString>
          <CharString index="134">
            400 474 rmoveto
            -28 -21 -16 callgsubr
            -36 vlineto
            return
          </CharString>
          <CharString index="135">
            236 -94 94 0 98 0 callsubr
            59 106 return
          </CharString>
          <CharString index="136">
            hstemhm
            66 105 244 106 return
          </CharString>
          <CharString index="137">
            -85 0 87 300 87 return
          </CharString>
          <CharString index="138">
            261 25 -21 192 89 192 -20 hstem
            return
          </CharString>
          <CharString index="139">
            -78 98 175 102 -75 102 return
          </CharString>
          <CharString index="140">
            239 -89 89 -89 239 return
          </CharString>
          <CharString index="141">
            -277 21 -21 756 -20 return
          </CharString>
          <CharString index="142">
            11 -21 488 -20 return
          </CharString>
          <CharString index="143">
            vlineto
            20 -23 14 -30 return
          </CharString>
          <CharString index="144">
            -30 -22 -16 callgsubr
            return
          </CharString>
          <CharString index="145">
            hlineto
            22 12 22 26 22 -10 24 -24 hvcurveto
            return
          </CharString>
          <CharString index="146">
            vlineto
            -17 callsubr
            31 28 25 -46 callsubr
            return
          </CharString>
        <CharString name=".notdef">
          -140 66 -21 383 -20 hstem
          50 106 rmoveto
          -6 -7 -1 -8 -8 vvcurveto
          -21 21 -17 22 13 11 5 12 8 vhcurveto
          67 108 67 -108 rlineto
          -12 8 11 -5 12 hhcurveto
          23 21 17 21 8 -1 8 -6 7 hvcurveto
          -86 130 86 130 rlineto
          6 8 2 7 8 vvcurveto
          22 -22 17 -22 -12 -12 -6 -11 -8 vhcurveto
          -67 -110 -67 110 rlineto
          11 -8 -11 6 -13 hhcurveto
          -22 -21 -17 -22 -8 1 -7 6 -8 hvcurveto
          86 -130 rlineto
          endchar
        </CharString>
        <CharString name="A">
          -26 callgsubr
          hstem
          -106 callsubr
          endchar
        </CharString>
        <CharString name="AE">
          251 -55 callgsubr
          hstem
          63 100 207 106 vstem
          476 637 -71 callgsubr
        </CharString>
        <CharString name="AEacute">
          251 -55 callgsubr
          223 -20 hstem
          63 100 vstem
          509 886 -107 callsubr
          88 -188 -71 callgsubr
        </CharString>
        <CharString name="Aacute">
          -26 callgsubr
          239 -20 hstem
          -106 callsubr
          -3 639 -95 callgsubr
        </CharString>
        <CharString name="Abreve">
          -26 callgsubr
          122 -42 callgsubr
          154 60 hintmask 11101100
          -106 callsubr
          -34 716 rmoveto
          hintmask 11110100
          -42 callsubr
          hintmask 11101100
          -89 callsubr
        </CharString>
        <CharString name="Acircumflex">
          52 21 -21 737 -20 239 -20 hstem
          -106 callsubr
          -101 639 -94 callsubr
        </CharString>
        <CharString name="Adieresis">
          -26 callgsubr
          113 93 hstem
          166 90 50 90 vstem
          -106 callsubr
          -169 674 -44 callsubr
        </CharString>
        <CharString name="Agrave">
          -26 callgsubr
          239 -20 hstem
          -106 callsubr
          -66 578 -105 callgsubr
        </CharString>
        <CharString name="Amacron">
          -26 callgsubr
          150 72 hstem
          -106 callsubr
          -239 653 rmoveto
          -96 callgsubr
          endchar
        </CharString>
        <CharString name="Aogonek">
          52 -208 47 182 -22 callgsubr
          hstemhm
          381 16 callgsubr
          hintmask 11111000
          496 -161 rmoveto
          7 callgsubr
          44 32 45 43 31 hvcurveto
          20 7 18 15 17 vvcurveto
          3 -1 3 -1 3 vhcurveto
          -198 648 rlineto
          24 -8 -30 12 -30 hhcurveto
          -30 -29 -12 -24 -8 hvcurveto
          -199 -648 rlineto
          -1 -3 0 -3 -3 vvcurveto
          -26 37 -18 29 18 14 6 16 5 vhcurveto
          41 142 rlineto
          247 hlineto
          41 -142 1 -5 2 -4 3 -3 rlinecurve
          -44 -36 -27 -49 -49 vvcurveto
          -53 43 -31 66 vhcurveto
          hintmask 11110100
          22 6 9 13 13 -7 12 -15 hvcurveto
          -315 410 rmoveto
          100 343 100 -343 rlineto
          endchar
        </CharString>
        <CharString name="Aring">
          -26 callgsubr
          103 44 104 48 hstem
          185 44 102 46 vstem
          -106 callsubr
          -101 767 rmoveto
          -83 callsubr
          endchar
        </CharString>
        <CharString name="Atilde">
          -26 callgsubr
          126 -14 callsubr
          hintmask 11101000
          -106 callsubr
          -159 625 rmoveto
          hintmask 11110000
          -90 callgsubr
          hintmask 11101000
          -91 callsubr
          endchar
        </CharString>
        <CharString name="B">
          43 0 94 260 84 199 94 hstemhm
          66 105 220 106 -88 106 hintmask 11110100
          66 34 rmoveto
          -18 18 -16 29 vhcurveto
          203 hlineto
          112 87 55 155 hvcurveto
          19 vlineto
          102 -41 41 -62 24 vhcurveto
          hintmask 11111000
          52 23 33 56 83 vvcurveto
          141 -95 32 -107 vhcurveto
          -182 hlineto
          -24 -23 -12 -23 hvcurveto
          105 -602 rmoveto
          260 125 vlineto
          hintmask 11110100
          71 42 -32 -88 hvcurveto
          -16 vlineto
          -86 -42 -38 -71 vhcurveto
          -125 543 rmoveto
          117 hlineto
          hintmask 11111000
          63 40 -29 -67 -68 -33 -35 -68 hvcurveto
          -119 hlineto
          endchar
        </CharString>
        <CharString name="C">
          -32 callgsubr
          30 callgsubr
          hintmask 01101100
          402 530 rmoveto
          -24 1 20 -11 32 hhcurveto
          36 17 10 45 106 -90 75 -137 -121 -101 -30 callgsubr
          -162 100 -61 121 137 91 77 110 44 -17 11 -37 -29 -21 -9 -26 -2 vhcurveto
          hintmask 10011100
          -44 -4 -9 -69 -102 hhcurveto
          -79 -43 41 88 hvcurveto
          -41 callgsubr
          20 callgsubr
          77 103 12 -72 -35 2 vhcurveto
          endchar
        </CharString>
        <CharString name="CR">
          -510 endchar
        </CharString>
        <CharString name="Cacute">
          -32 callgsubr
          225 34 callgsubr
          hintmask 01101110
          373 888 -107 callsubr
          150 -297 rmoveto
          -24 1 20 -11 32 hhcurveto
          36 17 10 45 106 -90 75 -137 -121 -101 -30 callgsubr
          -162 100 -61 121 137 91 77 110 44 -17 11 -37 -29 -21 -9 -26 -2 vhcurveto
          hintmask 10011110
          -44 -4 -9 -69 -102 hhcurveto
          -79 -43 41 88 hvcurveto
          -41 callgsubr
          20 callgsubr
          77 103 12 -72 -35 2 vhcurveto
          endchar
        </CharString>
        <CharString name="Ccaron">
          -32 callgsubr
          248 34 callgsubr
          hintmask 01101110
          180 973 -106 callgsubr
          121 -368 rmoveto
          -24 1 20 -11 32 hhcurveto
          36 17 10 45 106 -90 75 -137 -121 -101 -30 callgsubr
          -162 100 -61 121 137 91 77 110 44 -17 11 -37 -29 -21 -9 -26 -2 vhcurveto
          hintmask 10011110
          -44 -4 -9 -69 -102 hhcurveto
          -79 -43 41 88 hvcurveto
          -41 callgsubr
          20 callgsubr
          77 103 12 -72 -35 2 vhcurveto
          endchar
        </CharString>
        <CharString name="Ccedilla">
          30 6 callgsubr
          50 93 407 236 -94 94 hstemhm
          58 106 53 181 -54 54 3 106 hintmask 1011010110000000
          401 530 rmoveto
          -24 1 20 -11 32 hhcurveto
          36 17 10 45 106 -90 75 -137 -121 -101 -30 callgsubr
          -155 92 -62 114 -5 vhcurveto
          -22 -84 48 -5 rlineto
          35 -3 19 -12 -23 vvcurveto
          -21 -16 -15 -34 vhcurveto
          -32 -15 14 -10 hhcurveto
          hintmask 0110111010000000
          -13 -7 -25 -7 -19 51 -9 31 73 26 48 36 39 -29 34 -68 2 hvcurveto
          14 51 rlineto
          117 12 75 73 100 vvcurveto
          44 -17 11 -37 -29 -21 -9 -26 -2 vhcurveto
          -44 -4 -9 -69 -102 hhcurveto
          -79 -43 41 88 hvcurveto
          -41 callgsubr
          20 callgsubr
          77 103 12 -72 -35 2 vhcurveto
          endchar
        </CharString>
        <CharString name="Ccircumflex">
          31 -6 94 407 28 callsubr
          237 106 hintmask 10011110
          282 888 -107 callgsubr
          224 -302 rmoveto
          hintmask 11001110
          -24 1 20 -11 32 hhcurveto
          36 17 10 45 106 -90 75 -137 -121 -101 -30 callgsubr
          -162 100 -61 121 137 91 77 110 44 -17 11 -37 -29 -21 -9 -26 -2 vhcurveto
          -44 -4 -9 -69 -102 hhcurveto
          -79 -43 41 88 hvcurveto
          -41 callgsubr
          hintmask 10101110
          20 callgsubr
          77 103 12 -72 -35 2 vhcurveto
          endchar
        </CharString>
        <CharString name="Cdotaccent">
          -32 callgsubr
          99 93 hstemhm
          59 106 74 90 73 106 hintmask 01101111
          402 530 rmoveto
          -24 1 20 -11 32 hhcurveto
          36 17 10 45 106 -90 75 -137 -121 -101 -30 callgsubr
          -162 100 -61 121 137 91 77 110 44 -17 11 -37 -29 -21 -9 -26 -2 vhcurveto
          hintmask 10011111
          -44 -4 -9 -69 -102 hhcurveto
          -79 -43 41 88 hvcurveto
          -41 callgsubr
          20 callgsubr
          77 103 12 -72 -35 2 vhcurveto
          -118 393 -85 callsubr
        </CharString>
        <CharString name="D">
          63 11 callgsubr
          hstem
          66 -34 callgsubr
          vstem
          113 731 rmoveto
          -28 -19 -16 -18 hvcurveto
          -663 vlineto
          -18 19 -16 28 vhcurveto
          177 hlineto
          127 98 61 162 hvcurveto
          285 10 callgsubr
          vhcurveto
          -94 vmoveto
          75 44 -41 -88 hvcurveto
          -285 vlineto
          -88 -44 -41 -75 vhcurveto
          -118 543 hlineto
          endchar
        </CharString>
        <CharString name="Dcaron">
          63 11 callgsubr
          248 -20 hstem
          66 -34 callgsubr
          vstem
          174 973 -106 callgsubr
          -162 -167 rmoveto
          -28 -19 -16 -18 hvcurveto
          -663 vlineto
          -18 19 -16 28 vhcurveto
          177 hlineto
          127 98 61 162 hvcurveto
          285 10 callgsubr
          vhcurveto
          -94 vmoveto
          75 44 -41 -88 hvcurveto
          -285 vlineto
          -88 -44 -41 -75 vhcurveto
          -118 543 hlineto
          endchar
        </CharString>
        <CharString name="Dcroat">
          -80 callsubr
        </CharString>
        <CharString name="Delta">
          53 0 94 643 -20 hstem
          350 697 rmoveto
          25 -8 -23 15 -37 hhcurveto
          -36 -24 -15 -25 -7 hvcurveto
          -189 -637 rlineto
          -2 -8 -2 -7 -7 vvcurveto
          -24 14 -14 32 vhcurveto
          428 hlineto
          32 13 14 24 7 -1 7 -2 8 hvcurveto
          -394 34 rmoveto
          138 503 137 -503 rlineto
          endchar
        </CharString>
        <CharString name="E">
          13 -55 callgsubr
          -63 callgsubr
          endchar
        </CharString>
        <CharString name="Eacute">
          13 -55 callgsubr
          225 -20 13 callgsubr
          vstem
          375 888 -107 callsubr
          -82 -190 -103 callgsubr
          endchar
        </CharString>
        <CharString name="Ebreve">
          13 -55 callgsubr
          108 -42 callgsubr
          66 106 -15 60 hintmask 11101100
          -90 callsubr
          178 557 rmoveto
          hintmask 11110100
          -42 callsubr
          hintmask 11101010
          -89 callsubr
        </CharString>
        <CharString name="Ecaron">
          13 -55 callgsubr
          248 -20 13 callgsubr
          vstem
          182 973 -106 callgsubr
          -111 -261 -103 callgsubr
          endchar
        </CharString>
        <CharString name="Ecircumflex">
          13 -55 callgsubr
          0 98 0 callsubr
          66 106 hintmask 11011100
          290 888 -107 callgsubr
          hintmask 11101100
          -14 -195 -103 callgsubr
          endchar
        </CharString>
        <CharString name="Edieresis">
          13 -55 callgsubr
          99 93 hstemhm
          66 106 -1 90 50 90 hintmask 11110110
          217 923 rmoveto
          -105 callsubr
          hintmask 11111010
          -184 -286 -103 callgsubr
          endchar
        </CharString>
        <CharString name="Edotaccent">
          13 -55 callgsubr
          99 93 13 callgsubr
          76 90 -82 callsubr
          121 515 -85 callsubr
        </CharString>
        <CharString name="Egrave">
          13 -55 callgsubr
          225 -20 -63 callgsubr
          154 419 -105 callgsubr
        </CharString>
        <CharString name="Emacron">
          13 -55 callgsubr
          136 72 -63 callgsubr
          -23 494 rmoveto
          -96 callgsubr
          endchar
        </CharString>
        <CharString name="Eng">
          84 -225 90 156 -28 callgsubr
          hstemhm
          66 106 157 198 -106 106 hintmask 11111000
          370 -135 rmoveto
          -23 -18 -18 -28 -22 12 -22 42 98 46 78 111 hvcurveto
          733 vlineto
          24 -26 10 -27 vhcurveto
          hintmask 11110100
          -26 -27 -10 -24 hvcurveto
          -459 vlineto
          -222 433 rlineto
          46 -24 -18 14 -38 hhcurveto
          -12 callgsubr
          -25 hvcurveto
          -661 vlineto
          -68 callsubr
          459 vlineto
          239 -455 rlineto
          8 -13 3 -10 -11 vvcurveto
          -41 vlineto
          -57 -7 -42 -45 vhcurveto
          endchar
        </CharString>
        <CharString name="Eogonek">
          13 -208 47 161 94 230 -13 callsubr
          hstemhm
          66 106 184 55 -55 148 hintmask 11111010
          172 637 -94 callgsubr
          302 hlineto
          -37 -35 -22 -45 -44 -56 callsubr
          hintmask 11111100
          7 callgsubr
          43 31 45 41 30 hvcurveto
          hintmask 11111010
          14 8 7 18 17 vvcurveto
          26 -13 22 -22 vhcurveto
          -297 230 154 hlineto
          24 11 22 19 23 -13 20 -22 hvcurveto
          -154 hlineto
          endchar
        </CharString>
        <CharString name="Eth">
          -80 callsubr
        </CharString>
        <CharString name="Euro">
          90 -6 94 -94 240 2 77 80 77 27 234 -94 94 hstemhm
          25 193 -106 -34 callgsubr
          hintmask 1011011010000000
          218 236 rmoveto
          122 hlineto
          15 callgsubr
          -122 80 122 hlineto
          15 callgsubr
          -122 38 hlineto
          20 callgsubr
          76 86 32 -55 -52 vhcurveto
          hintmask 1011100110000000
          -23 16 -10 37 36 17 10 39 113 -94 72 -133 -124 -98 -27 callgsubr
          vhcurveto
          -38 -53 vlineto
          26 callsubr
          hintmask 1011100110000000
          53 -80 -53 hlineto
          26 callsubr
          hintmask 0111100110000000
          53 -29 hlineto
          -134 84 -79 138 133 94 75 115 40 -16 10 -37 -36 -17 -9 -24 vhcurveto
          hintmask 1011101010000000
          -60 -1 -33 -53 -83 hhcurveto
          -91 -29 64 55 hvcurveto
          endchar
        </CharString>
        <CharString name="F">
          -8 21 -21 324 -13 callsubr
          13 callgsubr
          vstem
          66 35 rmoveto
          -24 27 -11 26 27 26 11 24 vhcurveto
          289 155 vlineto
          24 10 22 19 23 -12 20 -22 hvcurveto
          -155 229 292 38 callsubr
          -351 hlineto
          -23 -24 -12 -23 hvcurveto
          endchar
        </CharString>
        <CharString name="G">
          46 -6 -20 callsubr
          hstemhm
          59 106 102 241 -106 106 hintmask 11101010
          402 530 rmoveto
          -92 callsubr
          hintmask 11101100
          -26 callsubr
          hintmask 11011010
          101 -82 hlineto
          -82 callgsubr
          20 callgsubr
          75 87 26 -49 -58 6 vhcurveto
          endchar
        </CharString>
        <CharString name="Gbreve">
          46 -6 -20 callsubr
          108 -42 callgsubr
          59 106 -10 60 52 241 -106 106 hintmask 1110101001000000
          402 530 rmoveto
          -92 callsubr
          hintmask 1110101010000000
          -26 callsubr
          hintmask 1101011001000000
          101 -82 hlineto
          -82 callgsubr
          20 callgsubr
          75 87 26 -49 -58 6 vhcurveto
          -54 435 rmoveto
          hintmask 1110101010000000
          -42 callsubr
          hintmask 1110010110000000
          -89 callsubr
        </CharString>
        <CharString name="Gcircumflex">
          46 -6 94 0 211 0 85 0 111 0 28 callsubr
          102 241 -106 106 hintmask 1010001110100000
          274 888 -107 callgsubr
          232 -302 rmoveto
          hintmask 1010100111000000
          -92 callsubr
          -26 callsubr
          hintmask 0101010110100000
          101 -82 hlineto
          -82 callgsubr
          20 callgsubr
          75 87 26 -49 -58 6 vhcurveto
          endchar
        </CharString>
        <CharString name="Gcommaaccent">
          45 -160 -21 175 -20 callsubr
          hstemhm
          58 106 102 241 -106 106 hintmask 11110101
          356 -104 callgsubr
          166 707 rmoveto
          -92 callsubr
          hintmask 11110110
          -26 callsubr
          hintmask 11101101
          101 -82 hlineto
          -82 callgsubr
          20 callgsubr
          75 87 26 -49 -58 6 vhcurveto
          endchar
        </CharString>
        <CharString name="Gdotaccent">
          46 -6 -20 callsubr
          99 93 hstemhm
          59 106 70 90 -58 241 -106 106 hintmask 1110111010000000
          402 530 rmoveto
          -92 callsubr
          hintmask 1110110100000000
          -26 callsubr
          hintmask 1101111010000000
          101 -82 hlineto
          -82 callgsubr
          20 callgsubr
          75 87 26 -49 -58 6 vhcurveto
          -122 393 -85 callsubr
        </CharString>
        <CharString name="H">
          83 21 -21 337 84 310 -18 callsubr
          421 35 -96 callsubr
          -276 -249 276 vlineto
          -92 callgsubr
          -662 vlineto
          -68 callsubr
          302 249 vlineto
          endchar
        </CharString>
        <CharString name="Hbar">
          88 21 -21 337 84 116 71 -71 194 hstemhm
          19 155 -106 106 249 106 -106 156 hintmask 11101010
          423 35 -19 callgsubr
          502 20 vlineto
          hintmask 11101001
          18 12 16 19 18 -12 18 -18 hvcurveto
          hintmask 11101010
          -20 89 hlineto
          hintmask 11011010
          -92 callgsubr
          hintmask 11101010
          -89 -249 89 vlineto
          hintmask 11010110
          -92 callgsubr
          hintmask 11100110
          -89 -20 vlineto
          hintmask 11101010
          -19 -10 -18 -18 -19 10 -16 19 hvcurveto
          hintmask 11100110
          20 -502 hlineto
          -68 callsubr
          302 249 vlineto
          -249 84 rmoveto
          116 249 -116 vlineto
          endchar
        </CharString>
        <CharString name="Hcircumflex">
          83 21 -21 337 84 310 98 127 -18 callsubr
          297 888 -107 callgsubr
          228 -797 -96 callsubr
          -276 -249 276 vlineto
          -92 callgsubr
          -662 vlineto
          -68 callsubr
          302 249 vlineto
          endchar
        </CharString>
        <CharString name="I">
          -40 callsubr
          -52 callgsubr
          endchar
        </CharString>
        <CharString name="IJ">
          250 -6 94 -94 242 -215 -21 637 94 hstemhm
          66 106 75 106 238 106 hintmask 00111110
          66 35 -96 callsubr
          525 -60 rmoveto
          -420 vlineto
          hintmask 10011110
          4 callsubr
          hintmask 01011110
          27 -1 -24 8 -27 hhcurveto
          -36 -18 -11 -40 -116 94 -75 134 123 99 61 162 hvcurveto
          479 vlineto
          23 -24 12 -23 vhcurveto
          -176 hlineto
          -25 -10 -24 -22 -26 13 -22 22 hvcurveto
          endchar
        </CharString>
        <CharString name="Iacute">
          -40 callsubr
          245 -20 hstem
          66 35 -96 callsubr
          134 191 -95 callgsubr
        </CharString>
        <CharString name="Ibreve">
          -40 callsubr
          128 -42 callgsubr
          -7 60 13 106 hintmask 11011100
          66 35 -96 callsubr
          120 268 rmoveto
          hintmask 11101100
          -42 callsubr
          hintmask 11011100
          -89 callsubr
        </CharString>
        <CharString name="Icircumflex">
          -40 callsubr
          245 -20 -52 callgsubr
          54 191 -94 callsubr
        </CharString>
        <CharString name="Idieresis">
          -40 callsubr
          119 93 hstemhm
          5 90 -29 106 -27 90 hintmask 11101000
          66 35 -96 callsubr
          -15 226 -45 callgsubr
        </CharString>
        <CharString name="Idotaccent">
          -40 callsubr
          119 93 -52 callgsubr
          53 226 -85 callsubr
        </CharString>
        <CharString name="Igrave">
          -40 callsubr
          245 -20 hstem
          66 35 -96 callsubr
          93 130 -105 callgsubr
        </CharString>
        <CharString name="Imacron">
          -40 callsubr
          156 72 -52 callgsubr
          -86 205 rmoveto
          -96 callgsubr
          endchar
        </CharString>
        <CharString name="Iogonek">
          -272 -206 47 890 -20 hstemhm
          21 16 callgsubr
          -92 106 hintmask 11100000
          136 -159 rmoveto
          7 callgsubr
          43 31 44 41 31 hvcurveto
          hintmask 11001000
          14 5 10 10 15 vvcurveto
          662 vlineto
          -92 callgsubr
          -662 vlineto
          -13 8 -9 12 -6 vhcurveto
          hintmask 11010000
          -40 -36 -25 -46 -47 -56 callsubr
          endchar
        </CharString>
        <CharString name="Itilde">
          -40 callsubr
          132 -14 callsubr
          66 106 hintmask 11011000
          66 35 -96 callsubr
          -6 177 rmoveto
          hintmask 11101000
          -90 callgsubr
          hintmask 11011000
          -91 callsubr
          endchar
        </CharString>
        <CharString name="J">
          20 -6 94 -94 242 401 94 hstemhm
          17 106 238 106 hintmask 10111000
          361 637 rmoveto
          -420 vlineto
          4 callsubr
          hintmask 01111000
          27 -1 -24 8 -27 hhcurveto
          -36 -18 -11 -40 -116 94 -75 134 123 99 61 162 hvcurveto
          479 vlineto
          23 -24 12 -23 vhcurveto
          -176 hlineto
          -25 -10 -24 -22 -26 13 -22 22 hvcurveto
          endchar
        </CharString>
        <CharString name="Jcircumflex">
          20 -6 94 549 94 0 98 0 callsubr
          17 106 238 106 hintmask 10111100
          266 888 -107 callgsubr
          hintmask 11011100
          199 -195 rmoveto
          -420 vlineto
          4 callsubr
          27 -1 -24 8 -27 hhcurveto
          -36 -18 -11 -40 -116 94 -75 134 123 99 61 162 hvcurveto
          479 vlineto
          23 -24 12 -23 vhcurveto
          -176 hlineto
          -25 -10 -24 -22 -26 13 -22 22 hvcurveto
          endchar
        </CharString>
        <CharString name="K">
          31 18 -21 24 -28 callgsubr
          hstemhm
          66 106 hintmask 01110000
          66 35 -19 callgsubr
          209 vlineto
          65 82 204 -309 rlineto
          hintmask 10110000
          -55 callsubr
        </CharString>
        <CharString name="Kcommaaccent">
          31 -160 -21 199 -21 24 -28 callgsubr
          hstemhm
          66 106 hintmask 10111000
          349 -104 callgsubr
          -162 212 -19 callgsubr
          209 vlineto
          65 82 204 -309 rlineto
          hintmask 11011000
          -55 callsubr
        </CharString>
        <CharString name="L">
          -33 0 94 637 -20 13 callgsubr
          vstem
          432 hmoveto
          -69 callsubr
          endchar
        </CharString>
        <CharString name="Lacute">
          -33 0 94 637 -20 245 -20 13 callgsubr
          vstem
          334 888 -107 callsubr
          219 -827 rmoveto
          -69 callsubr
          endchar
        </CharString>
        <CharString name="Lcaron">
          -33 0 94 637 -20 30 -20 hstemhm
          66 106 131 119 hintmask 10111000
          362 741 rmoveto
          -33 19 callsubr
          -23 14 -21 21 -10 hvcurveto
          -23 -3 callgsubr
          16 8 10 4 11 5 vhcurveto
          41 93 9 27 14 vvcurveto
          32 -27 27 -33 vhcurveto
          70 -741 rmoveto
          21 11 24 23 24 -11 23 -21 hvcurveto
          -260 603 hlineto
          hintmask 11011000
          -92 callgsubr
          -662 -54 callsubr
          endchar
        </CharString>
        <CharString name="Lcommaaccent">
          -33 -160 -21 181 94 637 -20 13 callgsubr
          vstem
          333 -104 callgsubr
          220 177 rmoveto
          -69 callsubr
          endchar
        </CharString>
        <CharString name="Ldot">
          -33 0 94 270 113 254 -20 13 callgsubr
          122 125 vstem
          432 hmoveto
          -69 callsubr
          244 477 -41 callsubr
        </CharString>
        <CharString name="Lslash">
          -27 0 94 637 -20 hstemhm
          -3 181 -106 106 -106 230 hintmask 11100000
          438 hmoveto
          21 11 24 23 24 -11 23 -21 hvcurveto
          -260 232 hlineto
          109 56 rlineto
          hintmask 11001000
          10 5 5 10 11 vvcurveto
          21 -18 26 -21 -3 -4 0 2 callsubr
          hintmask 11100000
          -74 -38 rlineto
          282 vlineto
          24 -26 10 -27 vhcurveto
          hintmask 11010000
          -26 -27 -10 -24 hvcurveto
          -336 vlineto
          -61 -31 -5 callgsubr
          26 13 rlineto
          -237 -54 callsubr
          endchar
        </CharString>
        <CharString name="M">
          177 -51 callsubr
          13 callgsubr
          343 106 vstem
          515 515 rmoveto
          -480 vlineto
          -68 callsubr
          643 vlineto
          39 -25 14 -28 -38 -20 -13 -47 -25 vhcurveto
          -142 -265 -140 265 rlineto
          47 -25 -21 13 -38 hhcurveto
          -27 -26 -14 -39 hvcurveto
          -643 vlineto
          -68 callsubr
          486 vlineto
          134 -254 rlineto
          -18 9 14 -6 13 hhcurveto
          14 14 6 18 11 hvcurveto
          endchar
        </CharString>
        <CharString name="N">
          83 21 -21 731 -18 callsubr
          474 hmoveto
          -97 callsubr
          endchar
        </CharString>
        <CharString name="Nacute">
          83 -51 callsubr
          245 -18 callsubr
          364 888 -107 callsubr
          231 -827 rmoveto
          -97 callsubr
          endchar
        </CharString>
        <CharString name="Ncaron">
          83 -51 callsubr
          268 -18 callsubr
          195 973 -106 callgsubr
          178 -898 rmoveto
          -97 callsubr
          endchar
        </CharString>
        <CharString name="Ncommaaccent">
          83 5 callsubr
          731 -18 callsubr
          371 -104 callgsubr
          224 177 rmoveto
          -97 callsubr
          endchar
        </CharString>
        <CharString name="Ntilde">
          83 -51 callsubr
          132 -14 callsubr
          66 106 249 106 hintmask 11011100
          474 hmoveto
          -97 callsubr
          -242 874 rmoveto
          hintmask 11101100
          -90 callgsubr
          hintmask 11011100
          -91 callsubr
          endchar
        </CharString>
        <CharString name="O">
          -35 callgsubr
          hstem
          -38 callsubr
          vstem
          -81 callgsubr
          endchar
        </CharString>
        <CharString name="OE">
          325 0 94 -79 -21 330 -13 callsubr
          hstemhm
          60 -34 callgsubr
          hintmask 01111100
          266 -6 rmoveto
          59 61 23 50 30 hvcurveto
          -32 vlineto
          hintmask 10111100
          -23 23 -12 24 vhcurveto
          319 hlineto
          24 10 24 22 26 -12 22 -22 hvcurveto
          -273 230 130 hlineto
          24 10 22 19 23 -12 20 -22 hvcurveto
          -130 229 273 38 callsubr
          -319 hlineto
          -24 -23 -12 -23 hvcurveto
          -38 vlineto
          50 -30 -61 23 -59 hhcurveto
          -119 -87 -30 callgsubr
          hintmask 01111100
          -162 87 -61 119 vhcurveto
          137 223 rmoveto
          -88 -45 -41 -74 -75 -43 41 88 vhcurveto
          21 callsubr
        </CharString>
        <CharString name="Oacute">
          13 callsubr
          385 888 -107 callsubr
          19 -833 -104 callsubr
          endchar
        </CharString>
        <CharString name="Obreve">
          -35 callgsubr
          108 -42 callgsubr
          59 106 -9 60 186 106 hintmask 11011010
          -81 callgsubr
          -53 457 rmoveto
          hintmask 11101010
          -42 callsubr
          hintmask 11010110
          -89 callsubr
        </CharString>
        <CharString name="Ocircumflex">
          -35 callgsubr
          0 98 127 34 callgsubr
          hintmask 10111100
          282 888 -107 callgsubr
          105 -838 rmoveto
          126 99 61 162 hvcurveto
          -41 callgsubr
          162 -99 61 -126 -127 -97 -27 callgsubr
          vhcurveto
          12 callgsubr
          97 -61 127 vhcurveto
          119 223 rmoveto
          -82 callgsubr
          hintmask 11011100
          2 callgsubr
        </CharString>
        <CharString name="Odieresis">
          -35 callgsubr
          99 93 hstem
          59 106 4 90 50 90 3 106 vstem
          215 923 rmoveto
          -105 callsubr
          -71 -929 -104 callsubr
          endchar
        </CharString>
        <CharString name="Ograve">
          13 callsubr
          -81 callgsubr
          -83 319 -105 callgsubr
        </CharString>
        <CharString name="Ohungarumlaut">
          -35 callgsubr
          226 -20 hstem
          -38 callsubr
          vstem
          302 907 -99 callgsubr
          -88 -835 -104 callsubr
          endchar
        </CharString>
        <CharString name="Omacron">
          -35 callgsubr
          136 72 hstem
          -38 callsubr
          vstem
          144 902 rmoveto
          -96 callgsubr
          139 -908 -104 callsubr
          endchar
        </CharString>
        <CharString name="Omega">
          55 0 93 544 94 hstemhm
          47 199 -187 105 155 188 -188 200 -118 106 hintmask 11100100
          319 hmoveto
          165 hlineto
          21 14 21 26 28 -16 18 -19 hvcurveto
          -101 24 hlineto
          hintmask 11011000
          73 26 51 66 118 vvcurveto
          181 vlineto
          162 -98 61 -126 -127 -97 -27 callgsubr
          vhcurveto
          -181 vlineto
          -118 49 -66 74 -26 vhcurveto
          -24 -101 vlineto
          hintmask 11101000
          -18 -16 -18 -28 -26 14 -21 20 hvcurveto
          165 203 hlineto
          hintmask 11010010
          -54 7 -28 44 73 vvcurveto
          181 vlineto
          88 44 41 75 74 44 -41 -88 vhcurveto
          -181 vlineto
          hintmask 11100100
          -72 -28 -40 -54 -12 vhcurveto
          endchar
        </CharString>
        <CharString name="Oslash">
          56 -14 -21 29 94 549 94 39 -20 hstem
          -38 callsubr
          vstem
          465 770 rmoveto
          -13 -11 -5 -13 -6 hvcurveto
          -25 -50 rlineto
          20 -36 -44 9 -47 hhcurveto
          -127 -97 -30 callgsubr
          -61 14 -46 23 -35 vhcurveto
          -29 -58 8 callgsubr
          19 38 rlineto
          -19 36 44 -9 48 hhcurveto
          126 99 61 162 hvcurveto
          -41 callgsubr
          60 -14 47 -24 35 vhcurveto
          33 66 29 callgsubr
          -63 -553 rmoveto
          -88 -45 -41 -74 -34 -28 8 18 -20 vhcurveto
          201 400 rlineto
          -237 -302 rmoveto
          296 vlineto
          20 callgsubr
          75 33 28 -9 -17 20 vhcurveto
          endchar
        </CharString>
        <CharString name="Oslashacute">
          56 -14 -21 29 94 549 94 225 -20 hstem
          -38 callsubr
          vstem
          465 770 rmoveto
          -13 -11 -5 -13 -6 hvcurveto
          -25 -50 rlineto
          20 -36 -44 9 -47 hhcurveto
          -127 -97 -30 callgsubr
          -61 14 -46 23 -35 vhcurveto
          -29 -58 8 callgsubr
          19 38 rlineto
          -19 36 44 -9 48 hhcurveto
          126 99 61 162 hvcurveto
          -41 callgsubr
          60 -14 47 -24 35 vhcurveto
          33 66 29 callgsubr
          -63 -553 rmoveto
          -88 -45 -41 -74 -34 -28 8 18 -20 vhcurveto
          201 400 rlineto
          -237 -302 rmoveto
          296 vlineto
          20 callgsubr
          75 33 28 -9 -17 20 vhcurveto
          9 277 -95 callgsubr
        </CharString>
        <CharString name="Otilde">
          -35 callgsubr
          112 73 -42 42 30 callgsubr
          hintmask 11011100
          -81 callgsubr
          -178 366 rmoveto
          hintmask 11101100
          -90 callgsubr
          hintmask 11011100
          -91 callsubr
          endchar
        </CharString>
        <CharString name="P">
          35 21 -21 282 84 271 94 13 callgsubr
          243 106 vstem
          66 35 -19 callgsubr
          247 124 vlineto
          126 99 61 160 hvcurveto
          8 vlineto
          161 -96 59 -123 vhcurveto
          -195 hlineto
          -25 -16 -16 -18 hvcurveto
          230 -60 rmoveto
          74 45 -41 -88 hvcurveto
          -12 vlineto
          -88 -45 -42 -74 vhcurveto
          -124 271 hlineto
          endchar
        </CharString>
        <CharString name="Q">
          56 -88 -21 746 94 hstem
          59 106 83 71 83 106 cntrmask 00111000
          283 -109 rmoveto
          18 18 12 23 hvcurveto
          70 vlineto
          108 10 81 64 147 vvcurveto
          -41 callgsubr
          163 -99 60 -126 -127 -97 -60 -163 vhcurveto
          -21 callgsubr
          -148 80 -63 109 -10 vhcurveto
          -70 vlineto
          -23 17 -12 18 vhcurveto
          119 326 rmoveto
          -72 -31 -39 -52 -11 vhcurveto
          60 vlineto
          24 -18 10 -18 -18 -17 -10 -24 vhcurveto
          -61 vlineto
          -54 11 -29 40 72 vvcurveto
          21 callsubr
        </CharString>
        <CharString name="R">
          -2 callgsubr
          29 callsubr
          hintmask 01111100
          66 35 rmoveto
          -23 26 -84 callsubr
          279 101 vlineto
          146 -286 rlineto
          hintmask 10111100
          -89 callgsubr
        </CharString>
        <CharString name="Racute">
          -2 callgsubr
          225 -20 29 callsubr
          hintmask 01111110
          383 888 -107 callsubr
          -196 -792 rmoveto
          -23 26 -84 callsubr
          279 101 vlineto
          146 -286 rlineto
          hintmask 10111110
          -89 callgsubr
        </CharString>
        <CharString name="Rcaron">
          -2 callgsubr
          248 -20 29 callsubr
          hintmask 01111110
          173 973 -106 callgsubr
          -208 -863 rmoveto
          -23 26 -84 callsubr
          279 101 vlineto
          146 -286 rlineto
          hintmask 10111110
          -89 callgsubr
        </CharString>
        <CharString name="Rcommaaccent">
          49 -160 -21 199 15 callsubr
          29 callsubr
          hintmask 10111110
          347 -104 callgsubr
          -160 212 rmoveto
          -23 26 -84 callsubr
          279 101 vlineto
          146 -286 rlineto
          hintmask 11011110
          -89 callgsubr
        </CharString>
        <CharString name="S">
          2 -8 24 callgsubr
          219 106 hintmask 10101100
          246 88 rmoveto
          hintmask 01011100
          -77 callgsubr
          11 callsubr
          hintmask 10101100
          -86 callgsubr
        </CharString>
        <CharString name="Sacute">
          2 -8 -36 callgsubr
          222 -20 hstemhm
          47 106 219 106 hintmask 10101110
          343 888 -107 callsubr
          24 -739 rmoveto
          hintmask 01011110
          -77 callgsubr
          11 callsubr
          hintmask 10101110
          -86 callgsubr
        </CharString>
        <CharString name="Scaron">
          2 -8 -36 callgsubr
          245 -20 hstemhm
          47 106 219 106 hintmask 10101110
          151 973 -106 callgsubr
          -6 -810 rmoveto
          hintmask 01011110
          -77 callgsubr
          11 callsubr
          hintmask 10101110
          -86 callgsubr
        </CharString>
        <CharString name="Scedilla">
          2 6 callgsubr
          47 24 callgsubr
          46 181 -54 54 -8 106 hintmask 1010101100000000
          246 88 rmoveto
          hintmask 1001101010000000
          -111 -24 79 -36 hhcurveto
          -25 -21 -33 -24 -50 89 -66 127 -2 hvcurveto
          -21 -81 -65 callgsubr
          14 50 rlineto
          hintmask 1010011001000000
          107 15 74 69 126 266 -325 -67 148 vvcurveto
          11 callsubr
          hintmask 1010101001000000
          -86 callgsubr
        </CharString>
        <CharString name="Scircumflex">
          2 -8 96 517 129 -91 91 0 95 0 callsubr
          47 106 219 106 hintmask 10011110
          252 888 -107 callgsubr
          98 -744 rmoveto
          -77 callgsubr
          hintmask 10101110
          11 callsubr
          hintmask 11001110
          -86 callgsubr
        </CharString>
        <CharString name="Scommaaccent">
          2 -160 -21 173 24 callgsubr
          219 106 hintmask 11010110
          342 -104 callgsubr
          25 265 rmoveto
          hintmask 10101110
          -77 callgsubr
          11 callsubr
          hintmask 11010110
          -86 callgsubr
        </CharString>
        <CharString name="T">
          3 21 -21 634 97 hstem
          204 106 vstem
          49 731 -64 callgsubr
        </CharString>
        <CharString name="Tbar">
          3 21 -21 325 80 229 97 hstemhm
          73 237 -106 106 -106 236 hintmask 11101000
          49 731 rmoveto
          -24 -11 -25 -23 -26 13 -23 22 hvcurveto
          155 -229 -102 hlineto
          hintmask 11110000
          -19 -10 -21 -19 -20 10 -20 19 hvcurveto
          hintmask 11101000
          102 -290 hlineto
          -23 26 -12 27 26 27 17 callgsubr
          290 100 vlineto
          hintmask 11100100
          20 10 20 20 20 -10 20 -20 hvcurveto
          hintmask 11110000
          -100 229 154 hlineto
          23 12 24 26 23 -11 24 -24 hvcurveto
          endchar
        </CharString>
        <CharString name="Tcaron">
          3 21 -21 634 97 248 -20 hstem
          204 106 vstem
          154 973 -106 callgsubr
          -206 -167 -64 callgsubr
        </CharString>
        <CharString name="Tcommaaccent">
          3 5 callsubr
          634 97 hstem
          330 -104 callgsubr
          -160 908 -64 callgsubr
        </CharString>
        <CharString name="Thorn">
          1 0 226 -94 94 302 93 -93 213 hstemhm
          66 -28 callsubr
          hintmask 10011100
          117 741 rmoveto
          -28 -23 -13 -21 hvcurveto
          -672 vlineto
          -17 22 -18 30 30 23 -46 callsubr
          176 vlineto
          hintmask 01101100
          -43 19 58 -36 61 hhcurveto
          87 84 80 105 hvcurveto
          121 vlineto
          107 -81 76 -95 -65 -46 -36 -40 -22 vhcurveto
          161 vlineto
          hintmask 10011100
          21 -22 14 -32 vhcurveto
          258 -424 rmoveto
          -55 -49 -36 -50 -61 -44 51 33 vhcurveto
          128 vlineto
          55 50 35 53 53 48 -37 -53 vhcurveto
          endchar
        </CharString>
        <CharString name="U">
          73 -6 94 643 -59 callsubr
          endchar
        </CharString>
        <CharString name="Uacute">
          -25 callsubr
          245 -20 -9 callsubr
          384 888 -107 callsubr
          151 -610 rmoveto
          -88 -46 -41 -77 -76 -46 41 88 vhcurveto
          480 vlineto
          24 -27 10 -26 -12 callgsubr
          -24 vhcurveto
          -480 -29 callsubr
          128 129 100 61 162 vhcurveto
          480 vlineto
          24 -27 10 -26 -12 callgsubr
          -24 vhcurveto
          endchar
        </CharString>
        <CharString name="Ubreve">
          -25 callsubr
          128 -42 callgsubr
          63 106 -7 60 192 106 hintmask 11011010
          414 217 rmoveto
          -88 -46 -41 -77 -76 -46 41 88 vhcurveto
          480 vlineto
          24 -27 10 -26 -12 callgsubr
          -24 vhcurveto
          -480 -29 callsubr
          128 129 100 61 162 vhcurveto
          480 vlineto
          24 -27 10 -26 -12 callgsubr
          -24 vhcurveto
          -59 268 rmoveto
          hintmask 11101010
          -42 callsubr
          hintmask 11010110
          -89 callsubr
        </CharString>
        <CharString name="Ucircumflex">
          73 -6 94 643 98 127 -20 -9 callsubr
          287 888 -107 callgsubr
          231 -615 rmoveto
          -88 -46 -41 -77 -76 -46 41 88 vhcurveto
          480 vlineto
          24 -27 10 -26 -12 callgsubr
          -24 vhcurveto
          -480 -29 callsubr
          128 129 100 61 162 vhcurveto
          480 vlineto
          24 -27 10 -26 -12 callgsubr
          -24 vhcurveto
          endchar
        </CharString>
        <CharString name="Udieresis">
          -25 callsubr
          119 93 hstem
          63 106 7 90 50 90 8 106 vstem
          222 923 rmoveto
          -105 callsubr
          53 -706 rmoveto
          -88 -46 -41 -77 -76 -46 41 88 vhcurveto
          480 vlineto
          24 -27 10 -26 -12 callgsubr
          -24 vhcurveto
          -480 -29 callsubr
          128 129 100 61 162 vhcurveto
          480 vlineto
          24 -27 10 -26 -12 callgsubr
          -24 vhcurveto
          endchar
        </CharString>
        <CharString name="Ugrave">
          -25 callsubr
          245 -59 callsubr
          -91 130 -105 callgsubr
        </CharString>
        <CharString name="Uhungarumlaut">
          -25 callsubr
          246 -59 callsubr
          -102 210 -99 callgsubr
          endchar
        </CharString>
        <CharString name="Umacron">
          -25 callsubr
          156 72 -80 callgsubr
          -263 205 rmoveto
          -96 callgsubr
          endchar
        </CharString>
        <CharString name="Uogonek">
          73 -208 47 155 94 643 -20 hstemhm
          63 106 81 16 callgsubr
          27 106 hintmask 11110110
          414 217 rmoveto
          -88 -46 -41 -77 -76 -46 41 88 vhcurveto
          480 vlineto
          24 -27 10 -26 -12 callgsubr
          -24 vhcurveto
          -480 -29 callsubr
          128 vhcurveto
          13 hlineto
          -34 -34 -20 -42 -42 -56 callsubr
          hintmask 11111010
          -18 callgsubr
          82 24 57 65 122 vvcurveto
          480 vlineto
          24 -27 10 -26 -12 callgsubr
          -24 vhcurveto
          endchar
        </CharString>
        <CharString name="Uring">
          -25 callsubr
          109 44 104 48 hstem
          63 106 26 44 102 46 27 106 vstem
          290 1016 rmoveto
          -83 callsubr
          73 -701 rmoveto
          -88 -46 -41 -77 -76 -46 41 88 vhcurveto
          480 vlineto
          24 -27 10 -26 -12 callgsubr
          -24 vhcurveto
          -480 -29 callsubr
          128 129 100 61 162 vhcurveto
          480 vlineto
          24 -27 10 -26 -12 callgsubr
          -24 vhcurveto
          endchar
        </CharString>
        <CharString name="Utilde">
          -25 callsubr
          132 -14 callsubr
          63 106 245 106 hintmask 11011100
          414 217 rmoveto
          -88 -46 -41 -77 -76 -46 41 88 vhcurveto
          480 vlineto
          24 -27 10 -26 -12 callgsubr
          -24 vhcurveto
          -480 -29 callsubr
          128 129 100 61 162 vhcurveto
          480 vlineto
          24 -27 10 -26 -12 callgsubr
          -24 vhcurveto
          -185 177 rmoveto
          hintmask 11101100
          -90 callgsubr
          hintmask 11011100
          -91 callsubr
          endchar
        </CharString>
        <CharString name="V">
          51 37 callgsubr
          hstem
          214 30 rmoveto
          -24 8 29 -12 30 hhcurveto
          30 30 12 24 7 hvcurveto
          198 648 rlineto
          1 3 1 3 3 vvcurveto
          25 -37 19 -30 -17 -14 -6 -16 -5 vhcurveto
          -164 -570 -165 570 rlineto
          16 -5 -14 6 -18 hhcurveto
          -29 -37 -18 -26 -3 0 -3 1 -3 hvcurveto
          endchar
        </CharString>
        <CharString name="W">
          9 callsubr
          hstem
          832 678 -102 callsubr
          endchar
        </CharString>
        <CharString name="Wacute">
          -4 callsubr
          511 888 -107 callsubr
          442 -149 -102 callsubr
          endchar
        </CharString>
        <CharString name="Wcircumflex">
          -4 callsubr
          423 888 -107 callgsubr
          513 -154 -102 callsubr
          endchar
        </CharString>
        <CharString name="Wdieresis">
          9 callsubr
          119 93 hstem
          309 90 50 90 vstem
          355 923 rmoveto
          -105 callsubr
          338 -245 -102 callsubr
          endchar
        </CharString>
        <CharString name="Wgrave">
          -4 callsubr
          832 678 -102 callsubr
          -177 797 -105 callgsubr
        </CharString>
        <CharString name="X">
          23 18 -21 737 -20 hstem
          414 21 rmoveto
          -12 6 12 -12 15 hhcurveto
          30 39 23 29 6 -3 7 -4 8 hvcurveto
          -173 296 168 294 rlineto
          5 9 3 9 8 vvcurveto
          28 -36 20 -30 -19 -13 -13 -17 -8 vhcurveto
          -140 -256 -138 256 rlineto
          17 -9 -13 13 -18 hhcurveto
          -31 -36 -20 -28 -8 3 -9 5 -9 hvcurveto
          168 -294 -173 -296 rlineto
          -4 -8 -2 -7 -6 vvcurveto
          -29 39 -23 29 15 12 12 12 7 vhcurveto
          146 266 rlineto
          endchar
        </CharString>
        <CharString name="Y">
          48 -51 callsubr
          hstem
          227 106 vstem
          -100 callgsubr
          endchar
        </CharString>
        <CharString name="Yacute">
          48 -51 callsubr
          245 -20 hstem
          -100 callgsubr
          140 600 -95 callgsubr
        </CharString>
        <CharString name="Ycircumflex">
          48 -51 callsubr
          245 -20 hstem
          227 106 vstem
          -100 callgsubr
          52 600 -94 callsubr
        </CharString>
        <CharString name="Ydieresis">
          48 -51 callsubr
          119 93 hstemhm
          165 90 -28 106 -28 90 hintmask 11101000
          -100 callgsubr
          -16 635 -45 callgsubr
        </CharString>
        <CharString name="Ygrave">
          48 -51 callsubr
          245 -20 hstem
          -100 callgsubr
          86 539 -105 callgsubr
        </CharString>
        <CharString name="Z">
          -2 11 callgsubr
          hstem
          463 662 -87 callgsubr
          endchar
        </CharString>
        <CharString name="Zacute">
          -2 11 callgsubr
          225 -20 hstem
          345 888 -107 callsubr
          239 -165 -87 callgsubr
          endchar
        </CharString>
        <CharString name="Zcaron">
          -2 11 callgsubr
          248 -20 hstem
          151 973 -106 callgsubr
          211 -236 -87 callgsubr
          endchar
        </CharString>
        <CharString name="Zdotaccent">
          -2 11 callgsubr
          99 93 hstem
          214 90 vstem
          463 662 -87 callgsubr
          106 829 -85 callsubr
        </CharString>
        <CharString name="a">
          -66 callgsubr
          hstemhm
          25 106 172 105 hintmask 10110110
          -64 callsubr
          hintmask 10101110
          -97 callgsubr
          hintmask 01110110
          -85 callgsubr
          hintmask 10110110
          -79 callgsubr
          endchar
        </CharString>
        <CharString name="a.ss01">
          -32 -8 80 137 58 96 117 hstemhm
          25 106 172 105 vstemhm
          211 480 rmoveto
          -73 -83 -26 -41 -18 13 -32 23 hvcurveto
          hintmask 11111000
          21 24 30 63 hhcurveto
          81 23 -57 -51 hvcurveto
          -18 -44 vlineto
          -139 -95 -30 -113 -91 63 -41 72 68 53 36 42 37 hvcurveto
          -47 7 38 -31 58 hhcurveto
          27 23 12 42 27 -8 11 -19 3 hvcurveto
          -21 1 -15 13 46 vvcurveto
          139 vlineto
          100 -57 94 -140 vhcurveto
          92 -308 rmoveto
          -48 -56 -52 -54 -34 -28 21 43 65 68 8 79 vhcurveto
          25 hlineto
          endchar
        </CharString>
        <CharString name="aacute">
          -66 callgsubr
          229 -20 -91 callgsubr
          4 432 -95 callgsubr
        </CharString>
        <CharString name="abreve">
          -66 callgsubr
          112 -42 callgsubr
          25 106 -35 60 147 105 hintmask 1011010101000000
          -64 callsubr
          hintmask 1010110101000000
          -97 callgsubr
          hintmask 0111010101000000
          -85 callgsubr
          hintmask 1011001101000000
          -79 callgsubr
          -14 509 rmoveto
          hintmask 1011010101000000
          -42 callsubr
          hintmask 1011001011000000
          -89 callsubr
        </CharString>
        <CharString name="acircumflex">
          -50 -8 80 -51 -21 72 137 0 58 0 96 0 117 -87 87 0 102 0 callsubr
          25 106 172 105 hintmask 1001000111100000
          215 641 -107 callgsubr
          95 -105 rmoveto
          -68 -83 -28 -36 hvcurveto
          hintmask 1000101011100000
          -24 13 -29 25 vhcurveto
          -97 callgsubr
          hintmask 0101010011100000
          -85 callgsubr
          hintmask 0110010011100000
          -79 callgsubr
          endchar
        </CharString>
        <CharString name="acute">
          -326 598 -21 132 -20 hstem
          168 641 -95 callgsubr
        </CharString>
        <CharString name="adieresis">
          -66 callgsubr
          103 93 hstemhm
          25 106 -28 90 50 90 -30 105 hintmask 1011010110000000
          149 676 rmoveto
          -105 callsubr
          -82 -196 rmoveto
          -68 -83 -28 -36 -24 13 -29 25 hvcurveto
          hintmask 1010111001000000
          -97 callgsubr
          hintmask 0111011001000000
          -85 callgsubr
          hintmask 1011011001000000
          -79 callgsubr
          endchar
        </CharString>
        <CharString name="ae">
          14 callgsubr
          hstemhm
          25 106 171 107 202 99 hintmask 1010011110000000
          511 480 rmoveto
          -62 -54 -34 -49 -35 hvcurveto
          hintmask 1011001110000000
          18 callgsubr
          hintmask 1010101110000000
          -44 callgsubr
          hintmask 0111001110000000
          19 -17 28 -24 vhcurveto
          hintmask 1010011110000000
          -60 callgsubr
        </CharString>
        <CharString name="aeacute">
          14 callgsubr
          249 -20 hstemhm
          25 106 171 107 202 99 hintmask 1010011111000000
          453 641 -107 callsubr
          179 -100 rmoveto
          -62 -54 -34 -49 -35 hvcurveto
          hintmask 1011001111000000
          18 callgsubr
          hintmask 1010101111000000
          -44 callgsubr
          hintmask 0111001111000000
          19 -17 28 -24 vhcurveto
          hintmask 1010011111000000
          -60 callgsubr
        </CharString>
        <CharString name="agrave">
          -66 callgsubr
          229 -20 -91 callgsubr
          -39 371 -105 callgsubr
        </CharString>
        <CharString name="amacron">
          -66 callgsubr
          140 72 -91 callgsubr
          -217 446 rmoveto
          -96 callgsubr
          endchar
        </CharString>
        <CharString name="ampersand">
          119 -10 93 -70 -21 598 158 -86 86 hstemhm
          26 107 -52 102 hintmask 10101000
          269 -10 rmoveto
          90 65 36 51 47 hvcurveto
          69 -72 rlineto
          hintmask 01010100
          -10 10 8 -3 9 hhcurveto
          25 24 21 22 6 -2 7 -5 6 hvcurveto
          -85 90 rlineto
          41 73 12 84 46 vvcurveto
          33 -8 18 -36 -36 -10 -12 -23 -2 vhcurveto
          -2 -38 0 -57 -24 -57 -177 190 rcurveline
          -43 46 -56 58 61 vvcurveto
          60 40 36 59 vhcurveto
          hintmask 10100100
          85 9 -72 38 hhcurveto
          25 25 24 25 40 -67 69 -117 -109 -90 -64 -113 -70 35 -47 39 -45 hvcurveto
          hintmask 10101000
          -67 -35 -62 -71 -96 vvcurveto
          -115 92 -102 151 vhcurveto
          13 93 rmoveto
          -96 -53 60 73 67 44 37 38 26 hvcurveto
          193 -204 rlineto
          -35 -26 -40 -24 -60 hhcurveto
          endchar
        </CharString>
        <CharString name="aogonek">
          -50 -208 47 153 80 137 58 96 117 -87 87 hstemhm
          25 106 124 16 callgsubr
          -89 105 hintmask 1111011000000000
          370 -161 rmoveto
          -18 callgsubr
          hintmask 1111010010000000
          13 6 9 11 12 vvcurveto
          251 vlineto
          100 -55 94 -147 -68 -83 -28 -36 -24 13 -29 25 vhcurveto
          hintmask 1110110010000000
          -97 callgsubr
          -10 6 -10 9 -6 vhcurveto
          hintmask 1111010100000000
          -43 -36 -26 -49 -48 -56 callsubr
          hintmask 1111010010000000
          -67 333 rmoveto
          -79 callgsubr
          endchar
        </CharString>
        <CharString name="approxequal">
          -64 120 77 -46 46 128 78 -47 47 hstemhm
          hintmask 10010000
          165 356 rmoveto
          hintmask 10100000
          51 26 -31 62 hhcurveto
          24 60 10 56 11 -7 27 -21 hvcurveto
          -20 -13 -26 -44 hhcurveto
          hintmask 01010000
          -53 -29 31 -56 hhcurveto
          -26 -61 -12 -54 -11 7 -27 21 hvcurveto
          19 17 26 43 hhcurveto
          -205 vmoveto
          hintmask 10100000
          51 26 -31 62 hhcurveto
          24 60 9 57 10 -7 27 -21 hvcurveto
          -20 -13 -26 -44 hhcurveto
          hintmask 01100000
          -53 -29 31 -56 hhcurveto
          -26 -61 -12 -54 -11 7 -27 21 hvcurveto
          19 17 27 43 hhcurveto
          endchar
        </CharString>
        <CharString name="aring">
          -66 callgsubr
          93 44 104 48 hstemhm
          25 106 -7 44 102 46 -13 105 hintmask 1011011101000000
          -64 callsubr
          hintmask 1010111100100000
          -97 callgsubr
          hintmask 0111011100100000
          -85 callgsubr
          hintmask 1011011100100000
          -79 callgsubr
          -84 560 rmoveto
          hintmask 1011011011000000
          -83 callsubr
          endchar
        </CharString>
        <CharString name="arrowdown">
          21 callgsubr
          163 rmoveto
          -8 3 -8 6 -6 vhcurveto
          201 -201 9 -10 9 -4 9 -1 rlinecurve
          8 9 5 10 9 hvcurveto
          201 201 rlineto
          6 6 3 8 8 vvcurveto
          24 -25 25 -25 -8 -8 -2 -6 -6 vhcurveto
          -120 -121 rlineto
          439 vlineto
          20 -18 14 -26 -26 -19 -14 -20 vhcurveto
          -439 vlineto
          -120 121 rlineto
          6 -6 -8 2 -8 hhcurveto
          -25 -25 -24 -25 hvcurveto
          endchar
        </CharString>
        <CharString name="arrowleft">
          31 callsubr
          308 477 rmoveto
          -8 -8 -3 -6 -6 hvcurveto
          -201 -201 rlineto
          -10 -10 -5 -9 -8 vvcurveto
          -8 5 -9 10 -9 vhcurveto
          201 -201 rlineto
          -6 6 8 -3 8 hhcurveto
          25 24 25 25 8 -2 8 -6 6 hvcurveto
          -121 120 rlineto
          439 hlineto
          20 14 18 26 25 -14 20 -20 hvcurveto
          -439 hlineto
          121 120 rlineto
          6 6 2 8 8 vvcurveto
          25 -25 25 -24 vhcurveto
          endchar
        </CharString>
        <CharString name="arrowright">
          31 callsubr
          463 477 rmoveto
          -24 -25 -25 -25 -8 2 -8 6 -6 hvcurveto
          121 -120 rlineto
          -439 hlineto
          -20 -14 -20 -25 -26 14 -18 20 hvcurveto
          439 hlineto
          -121 -120 rlineto
          -6 -6 -2 -8 -8 vvcurveto
          -25 24 -25 25 8 8 3 6 6 vhcurveto
          201 201 rlineto
          10 9 5 9 8 vvcurveto
          9 -5 8 -10 10 vhcurveto
          -201 201 rlineto
          6 -6 -8 3 -8 hhcurveto
          endchar
        </CharString>
        <CharString name="arrowup">
          21 callgsubr
          318 rmoveto
          -25 25 -24 25 8 8 2 6 6 vhcurveto
          120 121 rlineto
          -439 vlineto
          -20 19 -14 26 26 18 14 20 vhcurveto
          439 vlineto
          120 -121 rlineto
          -6 6 8 -2 8 hhcurveto
          25 25 25 24 8 -3 8 -6 6 hvcurveto
          -201 201 rlineto
          10 -9 -9 5 -8 hhcurveto
          -9 -1 -9 -4 -9 -10 -201 -201 rcurveline
          -6 -6 -3 -8 -8 vvcurveto
          endchar
        </CharString>
        <CharString name="asciicircum">
          -231 603 -21 127 -20 hstem
          139 641 -94 callsubr
        </CharString>
        <CharString name="asciitilde">
          -102 205 -14 callsubr
          hintmask 01000000
          145 236 rmoveto
          hintmask 10000000
          -90 callgsubr
          hintmask 01000000
          -91 callsubr
          endchar
        </CharString>
        <CharString name="asterisk">
          -59 368 -21 384 -20 hstemhm
          25 237 -73 73 -73 237 hintmask 11010000
          286 513 rmoveto
          115 30 rlineto
          hintmask 11001000
          17 4 8 14 14 vvcurveto
          21 -16 24 -22 -3 -4 -1 -1 -4 vhcurveto
          -117 -42 4 120 rlineto
          24 -1 -17 11 -20 hhcurveto
          -20 -18 -11 -24 -1 hvcurveto
          5 -118 -117 40 rlineto
          2 -5 -3 0 -3 hhcurveto
          hintmask 11100000
          -23 -16 -21 -20 -18 8 -14 16 -4 hvcurveto
          117 -34 -74 -101 rlineto
          -5 -6 -3 -8 -9 vvcurveto
          -24 28 -14 17 10 9 3 10 6 vhcurveto
          72 107 71 -106 rlineto
          -12 8 11 -2 8 hhcurveto
          21 23 16 23 8 -2 8 -4 5 hvcurveto
          endchar
        </CharString>
        <CharString name="at">
          219 -121 64 -64 91 56 50 132 50 66 100 -74 74 77 64 hstemhm
          44 71 94 86 150 78 105 70 hintmask 1011101111100000
          233 365 rmoveto
          -14 11 -27 16 vhcurveto
          hintmask 0111011111100000
          17 18 26 62 hhcurveto
          60 28 -24 -51 hvcurveto
          -17 -37 vlineto
          -117 -82 -26 -93 -81 62 -32 64 56 34 24 39 34 hvcurveto
          -38 8 39 -32 55 hhcurveto
          98 39 102 116 207 -117 121 -205 -230 -102 -156 -197 -228 139 -105 149 69 107 23 37 11 -10 20 -17 hvcurveto
          hintmask 1011101111100000
          -21 -32 -27 -84 hhcurveto
          -175 -54 128 142 152 60 136 200 174 79 -101 -177 -56 -8 -91 -53 -22 -17 16 33 -5 hvcurveto
          168 vlineto
          86 -67 45 -87 -64 -72 -26 -33 vhcurveto
          215 -198 rmoveto
          -39 -42 -42 -54 -33 -24 17 37 53 48 15 75 vhcurveto
          30 hlineto
          endchar
        </CharString>
        <CharString name="atilde">
          -66 callgsubr
          116 -14 callsubr
          25 106 172 105 hintmask 1011010110000000
          -64 callsubr
          hintmask 1010110110000000
          -97 callgsubr
          hintmask 0111010110000000
          -85 callgsubr
          hintmask 1011001110000000
          -79 callgsubr
          -143 418 rmoveto
          hintmask 1011010110000000
          -90 callgsubr
          hintmask 1011001110000000
          -91 callsubr
          endchar
        </CharString>
        <CharString name="b">
          -4 -8 93 -64 -39 callgsubr
          276 -20 hstemhm
          56 105 203 105 hintmask 01111100
          107 756 rmoveto
          -30 -21 -16 callgsubr
          -7 callgsubr
          30 26 22 -46 callsubr
          35 vlineto
          hintmask 10111100
          -41 21 54 -37 63 hhcurveto
          94 82 95 104 hvcurveto
          0 callgsubr
          -81 89 -98 -63 -45 4 callgsubr
          -30 vhcurveto
          257 -565 rmoveto
          -54 -46 -52 -55 -58 -44 59 24 vhcurveto
          115 vlineto
          65 52 39 49 56 -6 callgsubr
          endchar
        </CharString>
        <CharString name="b.ss02">
          -8 -23 callsubr
          276 -20 hstem
          52 105 203 105 vstem
          465 283 rmoveto
          108 -80 89 -98 -64 -45 4 callgsubr
          -30 -30 -21 -13 -21 vhcurveto
          -543 vlineto
          -113 98 -74 105 128 82 102 97 vhcurveto
          -105 hmoveto
          -46 -31 -60 -72 -56 -44 38 59 vhcurveto
          101 vlineto
          65 52 39 49 57 45 -12 callsubr
          endchar
        </CharString>
        <CharString name="backslash">
          -148 20 -21 756 -20 hstem
          268 23 rmoveto
          -15 5 14 -9 15 hhcurveto
          21 18 19 19 4 0 3 -1 4 hvcurveto
          -245 685 rlineto
          15 -6 -13 7 -13 hhcurveto
          -23 -19 -18 -20 -4 1 -4 2 -4 hvcurveto
          endchar
        </CharString>
        <CharString name="bar">
          -284 0 -21 789 -20 hstem
          60 106 vstem
          113 768 rmoveto
          -31 -22 -16 callgsubr
          -720 vlineto
          -18 22 -17 31 29 24 17 18 vhcurveto
          720 vlineto
          20 -24 14 -29 vhcurveto
          endchar
        </CharString>
        <CharString name="braceleft">
          -167 -20 91 606 91 hstemhm
          25 166 -124 106 -88 106 hintmask 11100000
          25 386 rmoveto
          hintmask 11001000
          -55 60 27 -38 vvcurveto
          hintmask 11010000
          -21 -18 -127 -34 vvcurveto
          -93 98 -65 102 37 22 15 31 17 -8 28 -27 -39 -79 16 62 vhcurveto
          hintmask 11100000
          27 18 131 24 vvcurveto
          28 -23 22 -13 3 vhcurveto
          12 4 24 23 27 vvcurveto
          hintmask 11010000
          22 -18 98 27 vvcurveto
          59 66 33 52 23 12 23 21 23 -14 24 -44 -102 -99 -80 -89 vhcurveto
          hintmask 11001000
          -32 18 -98 -20 vvcurveto
          hintmask 11100000
          -36 -60 27 -54 vvcurveto
          endchar
        </CharString>
        <CharString name="braceright">
          -167 -20 91 606 91 hstemhm
          152 106 -106 166 -148 106 hintmask 11010000
          318 386 rmoveto
          hintmask 11100000
          54 -60 -27 36 vvcurveto
          hintmask 11001000
          20 18 98 32 vvcurveto
          89 -99 80 -102 -44 -14 -24 -23 -21 12 -23 23 51 67 -33 -59 vhcurveto
          hintmask 11100000
          -27 -18 -98 -22 vvcurveto
          -27 24 -23 12 -4 vhcurveto
          -13 -3 -23 -22 -28 vvcurveto
          hintmask 11001000
          -24 18 -131 -27 vvcurveto
          -62 -79 -16 -39 -27 -8 -28 -17 -31 22 -15 37 102 98 65 93 vhcurveto
          hintmask 11100000
          34 -18 127 21 vvcurveto
          hintmask 11010000
          38 60 -27 55 vvcurveto
          endchar
        </CharString>
        <CharString name="bracketleft">
          -182 -21 94 601 94 hstemhm
          60 106 -106 250 hintmask 11100000
          166 674 rmoveto
          109 hlineto
          hintmask 11010000
          21 14 22 26 22 -12 24 -23 hvcurveto
          -167 hlineto
          -24 -24 -13 -22 hvcurveto
          -719 vlineto
          -23 24 -12 24 vhcurveto
          167 hlineto
          23 12 24 22 26 -14 22 -21 hvcurveto
          hintmask 11100000
          -109 hlineto
          endchar
        </CharString>
        <CharString name="bracketright">
          -183 -21 94 601 94 hstemhm
          18 249 -106 106 hintmask 11010000
          161 73 rmoveto
          -109 hlineto
          hintmask 11100000
          -21 -13 -22 -26 -22 11 -24 23 hvcurveto
          168 hlineto
          23 24 12 23 hvcurveto
          719 vlineto
          22 -23 13 -24 vhcurveto
          -168 hlineto
          -23 -11 -24 -22 -26 13 -22 21 hvcurveto
          hintmask 11010000
          109 hlineto
          endchar
        </CharString>
        <CharString name="breve">
          -256 592 -42 callgsubr
          0 60 hintmask 01100000
          193 718 rmoveto
          hintmask 10100000
          -42 callsubr
          hintmask 01100000
          -89 callsubr
        </CharString>
        <CharString name="brokenbar">
          -285 0 -21 789 -20 hstem
          60 105 vstem
          112 768 rmoveto
          37 callsubr
          -259 vlineto
          -17 22 -18 30 29 24 -46 callsubr
          259 vlineto
          20 -24 14 -29 vhcurveto
          -461 vmoveto
          -30 -22 -15 -20 hvcurveto
          -258 vlineto
          -18 22 -17 30 29 24 17 18 vhcurveto
          258 vlineto
          20 -24 15 -29 vhcurveto
          endchar
        </CharString>
        <CharString name="bullet">
          -189 182 235 hstem
          38 244 vstem
          161 417 rmoveto
          -66 -57 -55 -62 -63 57 -55 66 65 56 55 63 62 -56 55 -65 hvcurveto
          endchar
        </CharString>
        <CharString name="c">
          -32 callsubr
          hstemhm
          39 105 hintmask 01101000
          247 -8 -37 callsubr
          hintmask 10011000
          -58 callsubr
          hintmask 01101000
          -76 callgsubr
          endchar
        </CharString>
        <CharString name="cacute">
          -32 callsubr
          229 -20 hstemhm
          39 105 hintmask 01101100
          312 641 -107 callsubr
          56 -588 -59 callgsubr
        </CharString>
        <CharString name="caron">
          -223 605 -21 148 -20 hstem
          42 726 -106 callgsubr
          endchar
        </CharString>
        <CharString name="caron.alt">
          -391 554 36 callgsubr
          0 119 vstem
          59 741 rmoveto
          -33 19 callsubr
          -23 14 -21 21 -10 hvcurveto
          -23 -3 callgsubr
          16 8 10 4 11 5 vhcurveto
          41 93 9 27 14 vvcurveto
          32 -27 27 -33 vhcurveto
          endchar
        </CharString>
        <CharString name="ccaron">
          -32 callsubr
          252 -20 hstemhm
          39 105 hintmask 01101100
          124 726 -106 callgsubr
          22 -659 -59 callgsubr
        </CharString>
        <CharString name="ccedilla">
          -85 6 callgsubr
          48 92 -92 125 238 124 -93 93 hstemhm
          38 105 28 181 -54 54 hintmask 1001101100000000
          404 68 rmoveto
          21 -17 29 -28 vhcurveto
          hintmask 1010011100000000
          -58 callsubr
          hintmask 1010101010000000
          64 18 -31 21 hhcurveto
          25 17 31 20 35 -62 38 -91 -143 -64 -87 -112 hvcurveto
          -90 vlineto
          -107 55 -81 125 -10 vhcurveto
          -22 -82 -65 callgsubr
          13 48 rlineto
          80 6 56 37 32 vvcurveto
          endchar
        </CharString>
        <CharString name="ccircumflex">
          -84 -8 93 33 238 0 124 -93 93 0 102 0 callsubr
          39 105 hintmask 11001110
          230 641 -107 callgsubr
          121 -593 -37 callsubr
          -23 -16 -33 -66 hhcurveto
          -77 -34 40 66 hvcurveto
          90 vlineto
          hintmask 11010110
          66 35 40 75 vhcurveto
          hintmask 10100110
          -76 callgsubr
          endchar
        </CharString>
        <CharString name="cdotaccent">
          -32 callsubr
          103 93 hstemhm
          39 105 39 90 hintmask 01101110
          247 -8 -37 callsubr
          hintmask 10011110
          -58 callsubr
          hintmask 01101110
          -76 callgsubr
          -19 684 -85 callsubr
        </CharString>
        <CharString name="cedilla">
          -329 6 callgsubr
          64 -20 hstemhm
          0 181 -54 54 hintmask 10101000
          102 9 rmoveto
          -51 hlineto
          -26 -98 48 -5 rlineto
          35 -3 19 -12 -23 vvcurveto
          -21 -16 -15 -34 vhcurveto
          -32 -15 14 -10 hhcurveto
          hintmask 01110000
          -13 -7 -25 -7 -19 51 -9 31 73 26 48 36 39 -29 34 -68 2 hvcurveto
          endchar
        </CharString>
        <CharString name="cent">
          -87 60 -21 656 -20 hstemhm
          27 93 79 66 -66 194 hintmask 11110000
          232 695 rmoveto
          -19 -14 -13 -18 hvcurveto
          -88 vlineto
          -119 -14 -53 -81 -103 vvcurveto
          -19 vlineto
          -103 53 -81 119 -13 vhcurveto
          -91 vlineto
          -16 14 -16 19 17 16 16 16 vhcurveto
          91 vlineto
          hintmask 11101000
          69 8 59 32 33 vvcurveto
          23 -18 26 -28 vhcurveto
          hintmask 11110000
          -18 -14 -26 -6 -50 hvcurveto
          234 vlineto
          -5 50 15 -25 17 hhcurveto
          25 18 28 21 33 -54 30 -71 7 hvcurveto
          89 vlineto
          18 -16 13 -17 vhcurveto
          -112 -317 rmoveto
          57 25 38 54 13 vhcurveto
          -234 vlineto
          -54 12 -25 38 57 vvcurveto
          endchar
        </CharString>
        <CharString name="circumflex">
          -231 603 -21 127 -20 hstem
          139 641 -94 callsubr
        </CharString>
        <CharString name="colon">
          -291 -6 120 188 120 hstem
          50 119 vstem
          110 -43 callgsubr
          308 vmoveto
          -39 callsubr
        </CharString>
        <CharString name="comma">
          -325 -73 36 callgsubr
          33 119 vstem
          92 -47 callsubr
          endchar
        </CharString>
        <CharString name="commaaccent">
          -275 -160 -21 133 -20 hstem
          188 -104 callgsubr
          endchar
        </CharString>
        <CharString name="copyright">
          192 35 55 80 56 -56 138 122 134 -56 56 66 55 hstemhm
          44 55 139 62 106 63 134 55 hintmask 1011011111000000
          -33 callgsubr
          559 4 -27 callsubr
          -197 89 rmoveto
          -15 1 13 -6 18 hhcurveto
          21 10 6 26 61 -48 41 -69 -62 -52 -33 -91 hvcurveto
          -146 vlineto
          -91 52 -33 62 69 48 42 63 26 -10 7 -22 -17 -13 -5 -16 -1 vhcurveto
          hintmask 1100111111000000
          -23 -2 -3 -38 -46 hhcurveto
          -35 -20 21 47 hvcurveto
          146 vlineto
          46 20 22 34 48 3 -39 -18 1 vhcurveto
          endchar
        </CharString>
        <CharString name="currency">
          -49 290 63 -51 51 236 63 hstemhm
          54 62 231 62 hintmask 01111000
          231 652 rmoveto
          -42 -40 -16 -26 -30 hvcurveto
          -24 24 rlineto
          4 -5 -5 1 -4 hhcurveto
          -13 -12 -12 -13 -5 2 -4 4 -4 hvcurveto
          26 -25 rlineto
          -22 -30 -12 -36 -38 vvcurveto
          -38 12 -36 22 -30 vhcurveto
          -29 -28 rlineto
          -4 -4 -2 -4 -5 vvcurveto
          -12 12 -13 13 4 5 1 4 4 vhcurveto
          28 26 rlineto
          hintmask 10111000
          -27 31 39 -16 42 hhcurveto
          40 38 15 26 31 hvcurveto
          27 -24 rlineto
          hintmask 01111000
          -4 4 5 -1 4 hhcurveto
          13 12 13 12 5 -2 4 -4 4 hvcurveto
          -27 26 rlineto
          23 30 14 37 40 vvcurveto
          39 -14 37 -23 29 vhcurveto
          27 26 rlineto
          4 4 2 4 5 vvcurveto
          12 -12 13 -13 -5 -5 -1 -4 -4 vhcurveto
          -26 -24 rlineto
          24 -31 -38 15 -40 hhcurveto
          -15 callsubr
        </CharString>
        <CharString name="d">
          -3 -8 93 -64 -39 callgsubr
          276 -20 hstemhm
          37 -28 callsubr
          hintmask 10111100
          399 756 rmoveto
          -30 -23 -16 callgsubr
          -318 vlineto
          -50 callgsubr
          hintmask 01111100
          -17 22 -18 26 30 22 18 17 vhcurveto
          687 vlineto
          -45 callsubr
          hintmask 10111100
          1 callsubr
        </CharString>
        <CharString name="dagger">
          -78 0 -21 437 77 238 -20 hstemhm
          21 247 -105 105 -105 248 hintmask 11110000
          21 454 rmoveto
          -25 14 -16 20 vhcurveto
          hintmask 11101000
          108 6 rlineto
          -400 vlineto
          -21 23 -19 29 27 26 19 21 vhcurveto
          400 vlineto
          107 -6 rlineto
          hintmask 11100100
          18 18 16 25 23 -18 19 -18 hvcurveto
          hintmask 11110000
          -107 -6 rlineto
          207 vlineto
          18 -26 16 -27 vhcurveto
          hintmask 11101000
          -29 -23 -16 -18 hvcurveto
          -207 vlineto
          -108 6 rlineto
          hintmask 11110000
          -20 -14 -19 -23 hvcurveto
          endchar
        </CharString>
        <CharString name="daggerdbl">
          -67 0 -21 223 78 136 77 238 -20 hstemhm
          27 247 -106 106 -106 248 hintmask 11111000
          27 241 rmoveto
          -25 14 -17 20 vhcurveto
          hintmask 11110100
          107 6 rlineto
          -186 vlineto
          -21 24 -19 29 26 27 19 21 vhcurveto
          186 vlineto
          107 -6 rlineto
          hintmask 11110010
          18 17 17 31 callgsubr
          142 vlineto
          107 -6 rlineto
          hintmask 11110010
          18 17 16 31 callgsubr
          207 vlineto
          18 -27 16 -26 vhcurveto
          hintmask 11110100
          -29 -24 -16 -18 hvcurveto
          -207 38 callgsubr
          -25 14 -16 20 hvcurveto
          hintmask 11110100
          107 6 rlineto
          -142 38 callgsubr
          hvcurveto
          endchar
        </CharString>
        <CharString name="dcaron">
          -3 -8 93 -64 -39 callgsubr
          276 -20 hstemhm
          37 -28 callsubr
          53 119 hintmask 10111110
          563 741 rmoveto
          -33 19 callsubr
          -23 14 -21 21 -10 hvcurveto
          -23 -3 callgsubr
          16 8 10 4 11 5 vhcurveto
          41 93 9 27 14 vvcurveto
          32 -27 27 -33 vhcurveto
          -164 15 rmoveto
          -30 -23 -16 callgsubr
          -318 vlineto
          -50 callgsubr
          hintmask 01111110
          -17 22 -18 26 30 22 18 17 vhcurveto
          687 vlineto
          -45 callsubr
          hintmask 10111110
          1 callsubr
        </CharString>
        <CharString name="dcroat">
          -3 -8 93 -64 -39 callgsubr
          81 79 -79 195 hstemhm
          37 105 81 228 -105 105 -105 171 hintmask 1010110100000000
          399 756 rmoveto
          -30 -23 -16 callgsubr
          hintmask 1011010100000000
          -82 -94 vlineto
          hintmask 1011011000000000
          -18 -11 -20 -20 -20 11 -19 18 hvcurveto
          hintmask 1011010100000000
          94 -157 hlineto
          -50 callgsubr
          hintmask 0111011000000000
          -17 22 -18 26 30 22 -46 callsubr
          526 36 vlineto
          hintmask 1011010010000000
          18 12 18 21 20 -12 20 -18 hvcurveto
          hintmask 1011011000000000
          -36 82 hlineto
          hintmask 1010110100000000
          -45 callsubr
          1 callsubr
        </CharString>
        <CharString name="degree">
          -103 406 63 236 63 hstem
          26 62 231 62 vstem
          203 768 rmoveto
          -97 -80 -84 -96 -96 82 -86 95 95 83 86 97 97 -83 82 -95 hvcurveto
          -15 callsubr
        </CharString>
        <CharString name="dieresis">
          -280 583 93 hstem
          0 90 50 90 vstem
          46 676 -44 callsubr
        </CharString>
        <CharString name="divide">
          -64 17 109 71 84 71 110 hstem
          163 113 vstem
          28 239 rmoveto
          -25 15 -17 21 vhcurveto
          318 hlineto
          18 18 17 25 24 -18 18 -18 hvcurveto
          -318 hlineto
          -21 -15 -18 -24 hvcurveto
          192 -113 rmoveto
          -30 -27 -23 -31 -30 27 -25 30 28 28 25 30 31 -28 23 -28 hvcurveto
          336 vmoveto
          -30 -27 -25 -30 -31 27 -24 30 28 28 24 31 30 -28 25 -28 hvcurveto
          endchar
        </CharString>
        <CharString name="dollar">
          5 -52 151 -97 97 -97 175 412 129 -92 92 -92 142 hstemhm
          49 100 90 59 -59 223 -82 100 hintmask 1000101101000000
          239 -29 rmoveto
          -12 12 -11 17 15 15 11 12 vhcurveto
          34 vlineto
          108 15 74 68 123 vvcurveto
          136 -95 44 -87 32 vhcurveto
          203 vlineto
          hintmask 1001001010000000
          -5 70 26 -32 24 hhcurveto
          30 14 38 19 hvcurveto
          hintmask 1001001101000000
          49 -96 21 -68 2 vhcurveto
          27 vlineto
          hintmask 0100011101000000
          12 -15 11 -15 -17 -12 -11 -12 vhcurveto
          -29 vlineto
          -95 -10 -95 -50 -126 vvcurveto
          -128 100 -36 90 -32 vhcurveto
          -235 vlineto
          hintmask 0011001101000000
          8 -102 -27 70 -33 hhcurveto
          -25 -21 -33 -24 -49 84 -67 124 -2 hvcurveto
          141 198 rmoveto
          -57 -34 -32 -54 -10 vhcurveto
          211 vlineto
          49 -21 39 -28 -63 vvcurveto
          -231 340 rmoveto
          52 40 25 56 7 vhcurveto
          -182 vlineto
          -53 20 -43 21 57 vvcurveto
          endchar
        </CharString>
        <CharString name="dotaccent">
          -315 583 93 hstem
          57 90 vstem
          102 676 -85 callsubr
        </CharString>
        <CharString name="dotlessi">
          -17 callgsubr
          hstem
          55 105 vstem
          107 474 rmoveto
          -93 callsubr
          endchar
        </CharString>
        <CharString name="dotlessj">
          -225 90 609 -20 hstemhm
          -38 198 -105 105 hintmask 11010000
          107 474 rmoveto
          -38 callgsubr
          hintmask 11100000
          -58 callgsubr
          endchar
        </CharString>
        <CharString name="e">
          -61 callgsubr
          5 callgsubr
          hintmask 01111100
          -52 callsubr
          hintmask 10111100
          -68 callgsubr
        </CharString>
        <CharString name="eacute">
          -61 callgsubr
          229 -20 -2 callsubr
          322 641 -107 callsubr
          44 -100 rmoveto
          -87 callsubr
          hintmask 10111110
          -68 callgsubr
        </CharString>
        <CharString name="ebreve">
          -61 callgsubr
          112 -42 callgsubr
          37 105 -25 60 168 99 hintmask 0111101010000000
          -52 callsubr
          hintmask 1011011010000000
          -101 callsubr
          2 444 rmoveto
          hintmask 1011101010000000
          -42 callsubr
          hintmask 1011010110000000
          -89 callsubr
        </CharString>
        <CharString name="ecaron">
          -61 callgsubr
          252 -20 -2 callsubr
          143 726 -106 callgsubr
          1 -171 rmoveto
          -87 callsubr
          hintmask 10111110
          -68 callgsubr
        </CharString>
        <CharString name="ecircumflex">
          -36 -8 85 38 94 65 126 80 102 127 -20 5 callgsubr
          vstemhm
          243 641 -107 callgsubr
          106 -105 rmoveto
          -87 callsubr
          -27 -24 -38 -71 hhcurveto
          -77 -53 42 67 hvcurveto
          23 211 vlineto
          45 46 3 83 109 -92 76 -107 hvcurveto
          hintmask 11111110
          -103 -206 rmoveto
          32 vlineto
          55 47 39 55 57 44 -43 -53 -24 -8 -6 -29 vhcurveto
          endchar
        </CharString>
        <CharString name="edieresis">
          -61 callgsubr
          103 93 hstemhm
          37 105 -14 90 50 90 -13 99 hintmask 1011101100000000
          174 676 rmoveto
          -105 callsubr
          -68 -196 rmoveto
          hintmask 0111110100000000
          -87 callsubr
          hintmask 1011110010000000
          -68 callgsubr
        </CharString>
        <CharString name="edotaccent">
          -61 callgsubr
          103 93 hstemhm
          37 105 57 90 56 99 hintmask 01111111
          -52 callsubr
          hintmask 10111111
          -101 callsubr
          -64 402 -85 callsubr
        </CharString>
        <CharString name="egrave">
          -61 callgsubr
          229 -20 -2 callsubr
          -52 callsubr
          hintmask 10111110
          -101 callsubr
          -29 306 -105 callgsubr
        </CharString>
        <CharString name="eight">
          11 -6 88 272 88 201 88 hstemhm
          36 106 -84 103 200 103 -85 85 -85 106 hintmask 11101100
          261 731 rmoveto
          -117 -86 -48 -128 -85 38 -50 55 -21 hvcurveto
          hintmask 11110001
          -69 -25 -46 -59 -103 vvcurveto
          -12 vlineto
          -149 99 -57 126 126 98 57 149 vhcurveto
          12 vlineto
          103 -46 59 -69 25 vhcurveto
          hintmask 11110010
          56 21 38 50 85 vvcurveto
          128 -86 48 -117 vhcurveto
          118 -520 rmoveto
          -87 -43 -42 -75 -73 -46 40 89 vhcurveto
          18 vlineto
          86 45 39 74 74 44 -39 -86 vhcurveto
          -118 414 rmoveto
          hintmask 11101100
          63 37 -29 -71 -72 -37 -29 -63 -63 -37 29 72 71 37 29 63 hvcurveto
          endchar
        </CharString>
        <CharString name="eightinferior">
          -181 -3 58 128 60 90 58 hstemhm
          29 -31 callsubr
          hintmask 11101100
          165 22 callgsubr
          hintmask 11110010
          -79 callsubr
          hintmask 11110100
          -95 callsubr
          endchar
        </CharString>
        <CharString name="eightsuperior">
          -180 337 58 128 59 90 59 hstemhm
          29 -31 callsubr
          hintmask 11101100
          165 731 -48 callgsubr
          hintmask 11110010
          -79 callsubr
          hintmask 11110100
          33 11 23 26 45 vvcurveto
          68 -51 27 -71 vhcurveto
          63 -276 rmoveto
          -40 -24 -20 -39 -39 -24 19 41 vhcurveto
          11 vlineto
          40 23 17 40 39 24 -17 -40 vhcurveto
          -63 206 rmoveto
          32 20 -13 -32 -32 -20 -13 -32 -33 -20 13 32 32 20 13 33 hvcurveto
          endchar
        </CharString>
        <CharString name="ellipsis">
          50 -6 120 hstem
          33 119 70 119 68 119 vstem
          93 -43 callgsubr
          189 hmoveto
          -70 callgsubr
          187 hmoveto
          -39 callsubr
        </CharString>
        <CharString name="emacron">
          -61 callgsubr
          140 72 -2 callsubr
          -52 callsubr
          hintmask 10111110
          -101 callsubr
          -202 381 rmoveto
          -96 callgsubr
          endchar
        </CharString>
        <CharString name="emdash">
          242 23 callsubr
          601 hlineto
          -40 callgsubr
          -601 -43 callsubr
        </CharString>
        <CharString name="endash">
          -38 196 89 hstem
          41 240 -65 callsubr
        </CharString>
        <CharString name="eng">
          4 -225 90 156 -24 callsubr
          hstemhm
          55 105 104 198 -105 105 hintmask 11101100
          288 480 rmoveto
          -67 -47 -37 -39 -20 hvcurveto
          36 vlineto
          hintmask 11011100
          -72 callsubr
          248 vlineto
          hintmask 11101010
          7 callsubr
          56 45 -12 callsubr
          -319 vlineto
          -57 -6 -42 -46 vhcurveto
          hintmask 11101100
          -23 -18 -18 -28 -22 12 -22 43 97 46 78 111 hvcurveto
          319 -35 callsubr
          vhcurveto
          endchar
        </CharString>
        <CharString name="eogonek">
          -36 -198 47 143 85 132 65 126 80 hstemhm
          37 105 109 16 callgsubr
          -43 99 hintmask 11111010
          245 480 rmoveto
          -115 -93 -89 -105 hvcurveto
          -95 vlineto
          -119 96 -80 136 9 8 0 2 9 vhcurveto
          -28 -32 -16 -38 -38 -56 callsubr
          hintmask 11111101
          7 callgsubr
          43 30 44 41 31 hvcurveto
          37 16 21 22 17 vvcurveto
          18 -16 29 -25 vhcurveto
          -68 callgsubr
        </CharString>
        <CharString name="equal">
          -68 108 89 114 89 hstem
          58 152 rmoveto
          -26 14 -18 21 vhcurveto
          255 hlineto
          18 18 18 26 25 -18 20 -18 hvcurveto
          -255 hlineto
          -21 -14 -20 -25 hvcurveto
          203 vmoveto
          -26 14 -18 21 vhcurveto
          255 hlineto
          18 18 18 26 25 -18 20 -18 hvcurveto
          -255 hlineto
          -21 -14 -20 -25 hvcurveto
          endchar
        </CharString>
        <CharString name="estimated">
          42 -8 73 -73 123 100 53 146 66 hstemhm
          42 143 195 134 hintmask 01111100
          284 480 rmoveto
          -133 -109 -101 -117 hvcurveto
          -47 vlineto
          -134 110 -89 156 120 76 46 30 18 -14 29 -17 vhcurveto
          hintmask 10111100
          -25 -17 -50 -123 hhcurveto
          -90 -33 50 77 hvcurveto
          23 237 vlineto
          45 47 3 77 109 -107 76 -123 hvcurveto
          -99 -212 rmoveto
          32 vlineto
          78 40 36 58 60 37 -41 -75 -24 -9 -6 -28 vhcurveto
          endchar
        </CharString>
        <CharString name="eth">
          -8 -23 callsubr
          277 -20 hstem
          37 105 205 105 vstem
          438 665 rmoveto
          8 6 5 8 9 vvcurveto
          20 -19 22 -19 -4 -4 -1 2 callsubr
          -62 -36 rlineto
          43 -37 -44 23 -41 hhcurveto
          -41 -13 -32 -20 -18 11 -11 12 -8 hvcurveto
          20 -2 23 -10 19 -20 -57 -34 rcurveline
          -9 -5 -4 -9 -8 vvcurveto
          -20 19 -24 19 4 4 1 3 4 vhcurveto
          64 38 29 -45 22 -60 4 -73 rlinecurve
          46 -19 -55 34 -59 hhcurveto
          -98 -79 -90 -107 hvcurveto
          -92 vlineto
          -105 96 -94 112 111 96 94 105 vhcurveto
          161 vlineto
          98 -28 103 -45 77 vhcurveto
          -237 -347 rmoveto
          52 44 52 57 54 50 -45 -57 vhcurveto
          -94 vlineto
          -54 -46 -52 -56 -57 -46 52 54 vhcurveto
          endchar
        </CharString>
        <CharString name="exclam">
          -300 -6 120 624 -20 hstemhm
          52 93 -81 81 -81 94 hintmask 11001000
          158 690 rmoveto
          31 -24 17 -29 vhcurveto
          hintmask 11100000
          -30 -23 -17 -31 hvcurveto
          hintmask 11010000
          -145 12 -180 -145 vvcurveto
          -22 19 -10 22 16 24 10 22 vhcurveto
          hintmask 11001000
          145 13 180 145 vvcurveto
          -52 -576 rmoveto
          -34 19 callsubr
          -32 26 -28 34 32 27 28 32 33 -27 27 -32 hvcurveto
          endchar
        </CharString>
        <CharString name="exclamdown">
          -300 15 -21 624 120 hstemhm
          52 94 -81 81 -81 93 hintmask 11100000
          52 42 rmoveto
          -31 24 -17 29 vhcurveto
          hintmask 11001000
          30 23 17 31 hvcurveto
          hintmask 11010000
          145 -12 181 144 vvcurveto
          22 -20 10 -21 -17 -23 -10 -22 vhcurveto
          hintmask 11100000
          -144 -13 -181 -145 vvcurveto
          52 576 rmoveto
          34 26 27 33 32 -26 28 -34 -32 -27 -28 -32 -33 27 -27 32 hvcurveto
          endchar
        </CharString>
        <CharString name="f">
          -182 21 -21 396 78 192 90 hstem
          56 105 vstem
          161 575 rmoveto
          52 39 39 53 vhcurveto
          26 hlineto
          27 14 22 23 23 -14 22 -27 hvcurveto
          -46 hlineto
          -96 -81 -83 -108 hvcurveto
          -531 vlineto
          -11 callsubr
          362 130 vlineto
          18 11 19 20 20 -11 19 -18 hvcurveto
          -130 hlineto
          endchar
        </CharString>
        <CharString name="fi">
          34 21 -21 396 78 154 128 -90 90 hstemhm
          56 105 -105 246 83 105 hintmask 11011010
          436 474 rmoveto
          -29 -22 -16 callgsubr
          -6 callsubr
          22 -18 29 30 24 -46 callsubr
          405 vlineto
          20 -24 14 -30 vhcurveto
          -146 192 rmoveto
          hintmask 11101010
          80 22 -38 23 hhcurveto
          24 14 45 15 39 -84 29 -80 -147 -86 -99 -110 hvcurveto
          -513 vlineto
          -11 callsubr
          362 112 vlineto
          hintmask 11100110
          18 11 19 20 20 -11 19 -18 hvcurveto
          hintmask 11011010
          -112 78 hlineto
          64 42 50 87 vhcurveto
          endchar
        </CharString>
        <CharString name="five">
          -13 -6 94 -94 226 139 84 194 94 hstemhm
          22 -34 callgsubr
          hintmask 10111100
          157 443 rmoveto
          14 194 rlineto
          231 hlineto
          22 11 23 24 23 -11 24 -22 hvcurveto
          -297 hlineto
          -15 -7 -13 -22 -2 hvcurveto
          -23 -272 rlineto
          -1 -7 -1 -10 -7 vvcurveto
          -25 10 -16 35 vhcurveto
          145 hlineto
          74 45 -41 -85 hvcurveto
          -19 vlineto
          -86 -45 -40 -75 -65 -52 33 57 vhcurveto
          hintmask 01111100
          24 -10 18 -44 -32 -20 -11 -38 -93 80 -84 145 124 100 60 160 vhcurveto
          19 vlineto
          154 -98 56 -127 vhcurveto
          endchar
        </CharString>
        <CharString name="fiveeighths">
          263 8 callsubr
          94 54 -54 130 59 57 84 64 39 -20 hstemhm
          24 73 125 73 180 -31 callsubr
          hintmask 1111011111011000
          611 22 callgsubr
          hintmask 1111011111100100
          -79 callsubr
          hintmask 1111011111101000
          -95 callsubr
          -34 -48 callsubr
          -465 -187 -78 callsubr
          hintmask 1110111111101000
          -50 callsubr
        </CharString>
        <CharString name="fiveinferior">
          -193 -3 3 callgsubr
          243 -78 callsubr
          hintmask 01111100
          -50 callsubr
        </CharString>
        <CharString name="fivesuperior">
          -193 337 3 callgsubr
          583 -78 callsubr
          hintmask 01111100
          -50 callsubr
        </CharString>
        <CharString name="fl">
          45 21 -21 396 78 195 87 hstemhm
          56 105 -105 246 84 105 hintmask 11110100
          386 35 rmoveto
          -17 22 -18 29 30 24 -46 callsubr
          657 vlineto
          44 -41 -82 20 -67 hhcurveto
          -127 -118 -75 -134 hvcurveto
          -513 vlineto
          -11 callsubr
          362 112 vlineto
          hintmask 11101100
          18 11 19 20 20 -11 19 -18 hvcurveto
          hintmask 11110100
          -112 78 hlineto
          76 68 41 68 33 35 -9 -18 21 vhcurveto
          endchar
        </CharString>
        <CharString name="florin">
          -138 -137 99 393 79 241 93 hstem
          220 573 rmoveto
          58 9 42 44 58 hhcurveto
          37 hlineto
          20 17 20 28 25 -13 20 -19 hvcurveto
          -40 hlineto
          -105 -96 -88 -107 -15 hvcurveto
          -69 -504 rlineto
          -57 -8 -18 -50 -33 hhcurveto
          -22 hlineto
          -21 -17 -24 -29 -24 12 -22 21 hvcurveto
          24 hlineto
          102 48 98 108 15 hvcurveto
          40 286 rlineto
          141 hlineto
          19 12 20 21 19 -10 19 -19 hvcurveto
          -132 hlineto
          endchar
        </CharString>
        <CharString name="four">
          -28 21 -21 164 99 468 -20 hstemhm
          286 106 -106 191 hintmask 11110000
          286 35 rmoveto
          -23 26 -12 27 26 27 17 callgsubr
          129 49 vlineto
          hintmask 11101000
          19 17 25 24 25 -12 25 -24 hvcurveto
          hintmask 11110000
          -49 138 hlineto
          25 -27 10 -26 -12 callgsubr
          -25 vhcurveto
          -138 -147 vlineto
          206 411 rlineto
          3 6 2 5 5 vvcurveto
          25 -33 16 -20 -17 -18 -8 -21 -11 vhcurveto
          -242 -477 rlineto
          -4 -7 -2 -8 -7 vvcurveto
          -24 16 -15 21 vhcurveto
          246 hlineto
          endchar
        </CharString>
        <CharString name="fourinferior">
          -204 0 -5 callsubr
          23 -70 callsubr
        </CharString>
        <CharString name="foursuperior">
          -204 340 -5 callsubr
          363 -70 callsubr
        </CharString>
        <CharString name="fraction">
          -332 -14 -21 805 -20 hstem
          268 770 -103 callsubr
          endchar
        </CharString>
        <CharString name="g">
          -14 callgsubr
          33 -20 hstemhm
          19 99 -78 78 32 callsubr
          hintmask 1011101010000000
          226 122 -98 callsubr
          hintmask 1101110001000000
          -57 callgsubr
          hintmask 1011100110000000
          -86 callsubr
          hintmask 1101110001000000
          -69 callgsubr
          endchar
        </CharString>
        <CharString name="g.ss03">
          -3 -237 92 -92 129 105 94 296 93 -6 -20 hstemhm
          37 -28 callsubr
          hintmask 10101110
          27 callsubr
          hintmask 10110110
          39 -22 -47 37 -65 hhcurveto
          -100 -80 -89 -108 hvcurveto
          -86 vlineto
          -104 82 -96 94 60 52 38 41 21 vhcurveto
          -79 vlineto
          -63 -15 -79 -112 vhcurveto
          hintmask 01101110
          -77 -34 37 -23 hhcurveto
          -21 -18 -23 -27 -55 88 -24 78 170 69 104 118 hvcurveto
          455 vlineto
          20 -23 14 -28 vhcurveto
          -258 -191 rmoveto
          hintmask 10110110
          52 47 52 57 49 51 -39 -65 vhcurveto
          -109 vlineto
          -24 -43 -59 -59 -54 -48 52 54 vhcurveto
          endchar
        </CharString>
        <CharString name="gbreve">
          -14 callgsubr
          112 -42 callgsubr
          19 99 -78 98 -32 60 147 102 -75 102 hintmask 1011100101000000
          226 122 -98 callsubr
          hintmask 1101101000100000
          -57 callgsubr
          hintmask 1011100101000000
          -86 callsubr
          hintmask 1101011000100000
          -69 callgsubr
          -41 795 rmoveto
          hintmask 1101101001000000
          -42 callsubr
          hintmask 1101010011000000
          -89 callsubr
        </CharString>
        <CharString name="gcircumflex">
          18 callsubr
          33 69 0 callsubr
          19 99 32 callsubr
          hintmask 1001111011000000
          233 641 -107 callgsubr
          97 -463 -98 callsubr
          hintmask 1010111100100000
          -57 callgsubr
          hintmask 1001111011000000
          -86 callsubr
          hintmask 0101111100100000
          -69 callgsubr
          endchar
        </CharString>
        <CharString name="gcommaaccent">
          18 callsubr
          520 -20 hstemhm
          19 99 32 callsubr
          hintmask 1001110110000000
          318 641 -107 callsubr
          29 -458 -98 callsubr
          hintmask 1010111001000000
          -57 callgsubr
          hintmask 1001110110000000
          -86 callsubr
          hintmask 0101111001000000
          -69 callgsubr
          -107 869 -49 callsubr
          -11 -4 -11 -4 -20 callgsubr
          32 vhcurveto
          endchar
        </CharString>
        <CharString name="gdotaccent">
          -14 callgsubr
          103 93 hstemhm
          19 99 -78 78 -78 98 50 90 35 102 -75 102 hintmask 1011101011000000
          226 122 -98 callsubr
          hintmask 1101110010100000
          -57 callgsubr
          hintmask 1011100111000000
          -86 callsubr
          hintmask 1101110010100000
          -69 callgsubr
          -107 753 -85 callsubr
        </CharString>
        <CharString name="germandbls">
          71 -20 89 -48 -21 396 78 201 93 hstemhm
          4 196 -105 105 77 189 -88 88 -19 102 hintmask 1011100010000000
          343 -20 rmoveto
          108 98 76 150 hvcurveto
          15 vlineto
          109 -82 80 -70 13 vhcurveto
          hintmask 1011010100000000
          45 22 24 72 68 vvcurveto
          126 -82 57 -104 -134 -51 -91 -104 vhcurveto
          -99 -62 vlineto
          hintmask 1011101000000000
          -19 -10 -19 -20 -21 10 -18 19 hvcurveto
          hintmask 0111010100000000
          62 -362 hlineto
          -11 callsubr
          539 vlineto
          52 20 50 67 64 27 -47 -68 -40 -8 -61 -55 -8 vhcurveto
          hintmask 1011101000000000
          -23 -5 -15 -3 -32 vvcurveto
          -33 14 -6 23 -4 vhcurveto
          hintmask 1011100010000000
          85 -14 48 -54 -87 vvcurveto
          -15 vlineto
          -83 -41 -46 -66 vhcurveto
          hintmask 1011101000000000
          -38 -20 15 -14 hhcurveto
          -18 -9 -30 -20 -50 62 -4 40 hvcurveto
          endchar
        </CharString>
        <CharString name="grave">
          -326 598 -21 132 -20 hstem
          137 580 -105 callgsubr
        </CharString>
        <CharString name="greater">
          -100 82 -21 433 -20 hstem
          389 277 rmoveto
          13 -7 18 -15 10 vhcurveto
          -263 172 rlineto
          3 -4 -5 1 -5 hhcurveto
          -22 -26 -22 -28 -12 6 -11 8 -6 hvcurveto
          211 -138 -211 -138 rlineto
          -8 -5 -6 -11 -13 vvcurveto
          -28 26 -21 22 5 5 1 3 4 vhcurveto
          263 172 rlineto
          16 10 6 17 13 vvcurveto
          endchar
        </CharString>
        <CharString name="greaterequal">
          -69 41 88 410 -20 hstem
          72 254 rmoveto
          -12 -6 -6 -11 -12 vvcurveto
          -24 23 -27 24 5 5 2 3 5 vhcurveto
          262 138 rlineto
          17 9 6 17 14 vvcurveto
          13 -6 18 -17 9 vhcurveto
          -262 138 rlineto
          3 -5 -5 1 -5 hhcurveto
          -24 -23 -26 -24 -12 6 -12 12 -5 hvcurveto
          206 -103 rlineto
          123 -273 rmoveto
          26 -15 19 -20 vhcurveto
          -278 hlineto
          -18 -17 -19 -26 -26 17 -17 18 hvcurveto
          278 hlineto
          20 15 17 26 hvcurveto
          endchar
        </CharString>
        <CharString name="guillemotleft">
          -45 -62 callsubr
          133 139 rmoveto
          74 139 rlineto
          2 4 1 4 4 vvcurveto
          22 -30 30 -34 -14 -13 -5 -9 -4 vhcurveto
          -79 -148 rlineto
          -11 -19 -8 -10 -13 vvcurveto
          -13 8 -8 11 -19 vhcurveto
          79 -147 rlineto
          -10 5 11 -5 14 hhcurveto
          34 31 30 23 4 -1 4 -2 3 hvcurveto
          endchar
        </CharString>
        <CharString name="guillemotright">
          -45 95 -21 406 -20 hstem
          247 138 rmoveto
          -2 -3 -1 -16 callsubr
          -23 31 -30 34 14 11 5 10 6 vhcurveto
          79 147 rlineto
          10 19 8 8 13 vvcurveto
          13 -8 10 -10 19 vhcurveto
          -79 148 rlineto
          9 -5 -12 5 -15 hhcurveto
          -34 -30 -30 -22 -4 1 -4 2 -4 hvcurveto
          75 -139 rlineto
          -281 -139 -54 callgsubr
        </CharString>
        <CharString name="guilsinglleft">
          -252 -62 callsubr
          endchar
        </CharString>
        <CharString name="guilsinglright">
          -252 95 -21 406 -20 hstem
          41 138 -54 callgsubr
        </CharString>
        <CharString name="h">
          4 21 -39 callgsubr
          276 -20 hstem
          56 105 197 105 vstem
          161 283 rmoveto
          -63 callsubr
          318 vlineto
          14 callsubr
          -687 39 callsubr
          endchar
        </CharString>
        <CharString name="hbar">
          4 21 -39 callgsubr
          85 72 -72 191 hstemhm
          -6 167 -105 105 -105 216 86 105 hintmask 11101001
          -6 600 rmoveto
          -21 14 -14 20 vhcurveto
          hintmask 11100101
          28 -530 hlineto
          -17 callsubr
          31 28 25 -46 callsubr
          248 vlineto
          -63 callsubr
          161 76 vlineto
          hintmask 11100011
          18 17 14 21 21 -17 16 -18 hvcurveto
          hintmask 11101001
          -76 85 hlineto
          hintmask 11010101
          14 callsubr
          hintmask 11100101
          -85 -28 vlineto
          hintmask 11101001
          -20 -14 -16 -21 hvcurveto
          endchar
        </CharString>
        <CharString name="hcircumflex">
          4 21 -39 callgsubr
          276 -20 228 -20 hstem
          56 105 197 105 vstem
          106 896 -107 callgsubr
          159 -557 rmoveto
          -63 callsubr
          318 vlineto
          14 callsubr
          -687 39 callsubr
          endchar
        </CharString>
        <CharString name="hungarumlaut">
          -211 596 -21 135 -20 hstem
          136 660 -99 callgsubr
          endchar
        </CharString>
        <CharString name="hyphen">
          -98 23 callsubr
          260 hlineto
          18 18 18 26 25 -18 20 -18 hvcurveto
          -260 -43 callsubr
        </CharString>
        <CharString name="i">
          -17 callgsubr
          139 110 hstem
          55 105 vstem
          107 474 rmoveto
          -93 callsubr
          229 vmoveto
          -57 callsubr
          endchar
        </CharString>
        <CharString name="iacute">
          -17 callgsubr
          255 -20 hstem
          196 641 -107 callsubr
          32 -106 rmoveto
          -93 callsubr
          endchar
        </CharString>
        <CharString name="ibreve">
          -17 callgsubr
          138 -42 callgsubr
          -19 60 14 105 hintmask 11011100
          107 474 rmoveto
          -93 callsubr
          67 244 rmoveto
          hintmask 11101100
          -42 callsubr
          hintmask 11011100
          -89 callsubr
        </CharString>
        <CharString name="icircumflex">
          -17 callgsubr
          255 -20 hstem
          55 105 vstem
          108 641 -107 callgsubr
          103 -111 rmoveto
          -93 callsubr
          endchar
        </CharString>
        <CharString name="idieresis">
          -17 callgsubr
          129 93 hstemhm
          -5 90 -30 105 -25 90 hintmask 11110100
          41 676 rmoveto
          -105 callsubr
          -73 -202 rmoveto
          hintmask 11101000
          -93 callsubr
          endchar
        </CharString>
        <CharString name="igrave">
          -17 callgsubr
          255 -20 hstem
          107 474 rmoveto
          -93 callsubr
          34 106 -105 callgsubr
        </CharString>
        <CharString name="ij">
          -96 -225 90 156 -7 callsubr
          139 110 hstemhm
          55 105 1 198 -105 105 hintmask 11111010
          107 474 rmoveto
          -93 callsubr
          229 vmoveto
          -57 callsubr
          199 hmoveto
          -57 callsubr
          -229 vmoveto
          -38 callgsubr
          hintmask 11111100
          -58 callgsubr
          endchar
        </CharString>
        <CharString name="imacron">
          -17 callgsubr
          166 72 hstem
          55 105 vstem
          107 474 rmoveto
          -93 callsubr
          -138 181 rmoveto
          -96 callgsubr
          endchar
        </CharString>
        <CharString name="infinity">
          374 44 88 208 88 hstem
          45 94 606 94 vstem
          244 428 rmoveto
          -103 -96 -64 -128 -128 96 -64 103 73 78 44 74 46 hvcurveto
          -74 47 77 -44 73 hhcurveto
          104 97 64 128 128 -97 64 -103 -74 -77 -45 -74 -47 hvcurveto
          74 -46 -78 45 -73 hhcurveto
          236 -192 rmoveto
          70 34 68 34 56 hhcurveto
          57 50 -33 -71 -71 -50 -33 -57 -56 -68 34 70 -34 hvcurveto
          -76 hmoveto
          -70 -35 -68 -34 -56 hhcurveto
          -57 -49 33 71 71 49 33 57 56 68 -34 -70 35 hvcurveto
          endchar
        </CharString>
        <CharString name="integral">
          -161 -200 85 780 83 hstemhm
          2 226 -106 106 -106 226 hintmask 11010000
          314 748 rmoveto
          -142 -50 -75 -92 hvcurveto
          -612 vlineto
          -63 -34 -21 -49 vhcurveto
          hintmask 11100000
          -25 -12 -23 -21 -22 18 -19 24 141 43 81 89 hvcurveto
          607 vlineto
          56 25 32 61 vhcurveto
          hintmask 11001000
          25 9 25 18 24 -19 16 -15 hvcurveto
          endchar
        </CharString>
        <CharString name="iogonek">
          -207 47 634 -20 139 110 hstemhm
          6 16 callgsubr
          -88 105 hintmask 11110000
          121 -160 rmoveto
          7 callgsubr
          44 32 45 42 31 hvcurveto
          hintmask 11100100
          15 6 10 12 11 vvcurveto
          405 36 callsubr
          -30 -22 -14 -20 vhcurveto
          -15 callgsubr
          -10 7 -10 11 -7 vhcurveto
          hintmask 11101000
          -41 -36 -26 -47 -48 -56 callsubr
          -14 863 rmoveto
          -57 callsubr
          endchar
        </CharString>
        <CharString name="itilde">
          -17 callgsubr
          142 -14 callsubr
          55 105 hintmask 11011000
          107 474 rmoveto
          -93 callsubr
          -58 153 rmoveto
          hintmask 11101000
          -90 callgsubr
          hintmask 11011000
          -91 callsubr
          endchar
        </CharString>
        <CharString name="j">
          -225 90 609 -20 139 110 hstemhm
          -38 198 -105 105 hintmask 11101000
          107 703 rmoveto
          -57 callsubr
          -229 vmoveto
          -38 callgsubr
          hintmask 11110000
          -58 callgsubr
          endchar
        </CharString>
        <CharString name="jcircumflex">
          -225 90 609 -20 255 -20 hstemhm
          -38 198 -105 105 hintmask 11101000
          107 474 rmoveto
          -38 callgsubr
          hintmask 11110000
          -58 callgsubr
          1 167 -94 callsubr
        </CharString>
        <CharString name="k">
          -30 15 28 callgsubr
          hintmask 01111000
          434 406 -53 callgsubr
          hintmask 10111000
          -46 callgsubr
        </CharString>
        <CharString name="kcommaaccent">
          -30 -160 -21 196 28 callgsubr
          hintmask 10111100
          315 -104 callgsubr
          240 583 -53 callgsubr
          hintmask 11011100
          -46 callgsubr
        </CharString>
        <CharString name="kgreenlandic">
          -31 15 -21 27 -7 callsubr
          24 -20 hstemhm
          55 105 hintmask 01011000
          433 406 rmoveto
          6 6 3 8 8 vvcurveto
          24 -28 26 -23 -8 -8 -3 -6 -6 vhcurveto
          -209 -192 rlineto
          163 vlineto
          hintmask 01101000
          20 -24 14 -30 -30 -21 -14 -20 vhcurveto
          -405 -4 callgsubr
          hintmask 10011000
          -46 callgsubr
        </CharString>
        <CharString name="l">
          34 callsubr
          hstem
          64 105 vstem
          116 756 -72 callgsubr
          endchar
        </CharString>
        <CharString name="lacute">
          34 callsubr
          195 -20 hstem
          209 863 -107 callsubr
          28 -46 -72 callgsubr
          endchar
        </CharString>
        <CharString name="lcaron">
          34 callsubr
          hstem
          64 105 57 119 vstem
          285 741 rmoveto
          -33 19 callsubr
          -23 14 -21 21 -10 hvcurveto
          -23 -3 callgsubr
          16 8 10 4 11 5 vhcurveto
          41 93 9 27 14 vvcurveto
          32 -27 27 -33 vhcurveto
          -169 15 -72 callgsubr
          endchar
        </CharString>
        <CharString name="lcommaaccent">
          -277 5 callsubr
          756 -20 hstem
          193 -104 callgsubr
          44 933 -72 callgsubr
          endchar
        </CharString>
        <CharString name="ldot">
          -160 21 -21 243 113 400 -20 hstem
          64 105 52 125 vstem
          116 756 -72 callgsubr
          168 -400 -41 callsubr
        </CharString>
        <CharString name="less">
          -99 82 -21 433 -20 hstem
          21 277 rmoveto
          -13 7 -17 15 -10 vhcurveto
          263 -172 rlineto
          -3 4 6 -1 5 hhcurveto
          21 27 21 28 13 -6 11 -9 5 hvcurveto
          -210 138 210 138 rlineto
          9 6 6 11 12 vvcurveto
          28 -27 22 -21 -5 -6 -1 -3 -4 vhcurveto
          -263 -172 rlineto
          -15 -10 -7 -18 -13 vvcurveto
          endchar
        </CharString>
        <CharString name="lessequal">
          -69 41 88 410 -20 hstem
          163 357 rmoveto
          206 103 rlineto
          12 5 6 12 12 vvcurveto
          24 -23 26 -24 -5 -5 -1 -3 -5 vhcurveto
          -263 -138 rlineto
          -16 -8 -6 -19 -13 vvcurveto
          -14 6 -18 16 -8 vhcurveto
          263 -138 rlineto
          -3 5 5 -2 5 hhcurveto
          24 23 27 24 12 -6 11 -12 6 hvcurveto
          -329 -170 rmoveto
          -26 15 -17 20 vhcurveto
          278 hlineto
          18 17 17 26 26 -17 19 -18 hvcurveto
          -278 hlineto
          -20 -15 -19 -26 hvcurveto
          endchar
        </CharString>
        <CharString name="logicalnot">
          -19 63 222 -89 89 hstemhm
          331 105 hintmask 01100000
          38 26 callgsubr
          259 -98 hlineto
          hintmask 10100000
          -18 22 -17 30 30 23 17 18 vhcurveto
          142 vlineto
          25 -18 20 -18 vhcurveto
          -328 -43 callsubr
        </CharString>
        <CharString name="lozenge">
          -13 15 -21 743 -20 hstem
          303 704 rmoveto
          21 -11 -20 12 -24 hhcurveto
          -24 -19 -12 -21 -12 hvcurveto
          -139 -256 rlineto
          -18 -32 -13 -26 -24 vvcurveto
          -25 13 -25 18 -32 vhcurveto
          140 -257 rlineto
          -21 11 20 -12 23 hhcurveto
          23 21 13 20 11 12 callsubr
          257 rlineto
          18 32 14 25 25 vvcurveto
          24 -14 26 -18 32 vhcurveto
          -194 170 rmoveto
          131 -252 -131 -246 -130 246 rlineto
          endchar
        </CharString>
        <CharString name="lslash">
          -195 21 -21 756 -20 hstemhm
          13 194 -105 105 -105 201 hintmask 11010000
          154 756 rmoveto
          -31 -21 -16 callgsubr
          -354 vlineto
          -75 -38 -5 callgsubr
          40 20 rlineto
          -244 vlineto
          -17 callsubr
          31 29 24 -46 callsubr
          298 vlineto
          81 42 rlineto
          hintmask 11001000
          9 5 6 10 11 vvcurveto
          21 -18 26 -21 -4 -3 0 2 callsubr
          hintmask 11100000
          -46 -24 rlineto
          300 vlineto
          20 -24 14 -29 vhcurveto
          endchar
        </CharString>
        <CharString name="m">
          284 21 -21 388 92 -6 -20 hstemhm
          55 105 186 105 187 105 hintmask 11011100
          346 34 rmoveto
          -24 28 -10 24 27 26 10 24 vhcurveto
          251 vlineto
          65 47 38 47 46 47 -36 -69 vhcurveto
          -248 vlineto
          -17 25 -18 27 29 24 -46 callsubr
          248 vlineto
          126 -84 71 -90 -58 -58 -32 -68 -35 vhcurveto
          59 -23 -48 41 -60 hhcurveto
          -67 -44 -37 -39 -22 hvcurveto
          36 vlineto
          hintmask 10111100
          20 -22 14 -25 -31 -21 -14 -20 vhcurveto
          -405 39 callsubr
          248 vlineto
          68 46 36 47 49 44 -41 -62 vhcurveto
          endchar
        </CharString>
        <CharString name="m.ss04">
          283 21 -39 callgsubr
          hstem
          51 105 188 105 188 105 cntrmask 00111000
          557 480 rmoveto
          -62 -58 -26 -53 -41 hvcurveto
          53 -42 -58 26 -60 hhcurveto
          -99 -86 -84 -113 hvcurveto
          -248 vlineto
          -18 24 -17 29 28 24 17 18 vhcurveto
          248 vlineto
          62 46 42 47 50 45 -47 -57 vhcurveto
          -249 vlineto
          -19 25 -15 28 30 22 15 19 vhcurveto
          249 vlineto
          57 45 47 50 47 46 -42 -62 vhcurveto
          -248 vlineto
          -18 25 -17 28 30 22 17 18 vhcurveto
          248 vlineto
          113 -86 84 -99 vhcurveto
          endchar
        </CharString>
        <CharString name="macron">
          -232 620 72 hstem
          655 vmoveto
          -96 callgsubr
          endchar
        </CharString>
        <CharString name="minus">
          -17 240 89 hstem
          52 284 -65 callsubr
        </CharString>
        <CharString name="mu">
          -2 -204 -21 217 93 389 -20 hstem
          62 105 201 105 vstem
          269 -8 rmoveto
          113 91 91 106 hvcurveto
          250 vlineto
          20 -22 15 -30 -28 -25 -15 -20 vhcurveto
          -250 vlineto
          -52 -45 -52 -53 -54 -49 54 40 vhcurveto
          260 vlineto
          18 -24 17 -28 -29 -24 -17 -18 vhcurveto
          -629 vlineto
          -18 22 -17 30 23 19 17 18 vhcurveto
          230 vlineto
          -26 25 41 -22 47 hhcurveto
          endchar
        </CharString>
        <CharString name="multiply">
          -107 142 -21 307 -20 hstem
          356 170 rmoveto
          8 -3 8 -7 7 vhcurveto
          -88 82 88 81 rlineto
          5 6 3 8 9 vvcurveto
          24 -24 25 -25 -8 -9 -4 -5 -5 vhcurveto
          -82 -82 -81 82 rlineto
          5 -5 -8 4 -9 hhcurveto
          -25 -24 -25 -24 -9 3 -8 6 -6 hvcurveto
          87 -81 -88 -82 rlineto
          -6 -7 -3 -7 -8 vvcurveto
          -24 27 -26 22 8 8 3 6 6 vhcurveto
          82 83 83 -83 rlineto
          -6 6 8 -3 8 hhcurveto
          24 26 26 23 hvcurveto
          endchar
        </CharString>
        <CharString name="n">
          3 -29 callgsubr
          hstemhm
          55 105 197 105 hintmask 11011000
          160 283 rmoveto
          7 callsubr
          56 45 -12 callsubr
          -248 vlineto
          -23 28 -12 24 27 26 17 callgsubr
          248 -35 callsubr
          -67 -47 -37 -39 -20 vhcurveto
          36 vlineto
          hintmask 10111000
          -72 callsubr
          endchar
        </CharString>
        <CharString name="n.ss04">
          2 21 -39 callgsubr
          hstem
          51 105 200 105 vstem
          256 480 rmoveto
          -112 -93 -92 -105 hvcurveto
          -248 vlineto
          -18 23 -17 29 29 24 17 18 vhcurveto
          248 vlineto
          53 45 51 55 55 45 -51 -53 vhcurveto
          -248 vlineto
          -18 24 -17 28 31 22 17 18 vhcurveto
          248 vlineto
          105 -93 92 -112 vhcurveto
          endchar
        </CharString>
        <CharString name="nacute">
          3 -29 callgsubr
          255 -20 hstemhm
          55 105 197 105 hintmask 11011100
          336 641 -107 callsubr
          -55 -297 rmoveto
          7 callsubr
          56 45 -12 callsubr
          -248 vlineto
          -23 28 -12 24 27 26 17 callgsubr
          248 -35 callsubr
          -67 -47 -37 -39 -20 vhcurveto
          36 vlineto
          hintmask 10111100
          -72 callsubr
          endchar
        </CharString>
        <CharString name="ncaron">
          3 -29 callgsubr
          278 -20 hstemhm
          55 105 197 105 hintmask 11011100
          151 726 -106 callgsubr
          -92 -368 rmoveto
          7 callsubr
          56 45 -12 callsubr
          -248 vlineto
          -23 28 -12 24 27 26 17 callgsubr
          248 -35 callsubr
          -67 -47 -37 -39 -20 vhcurveto
          36 vlineto
          hintmask 10111100
          -72 callsubr
          endchar
        </CharString>
        <CharString name="ncommaaccent">
          3 -160 -21 202 -24 callsubr
          hstemhm
          55 105 197 105 hintmask 11101100
          328 -104 callgsubr
          -47 460 rmoveto
          7 callsubr
          56 45 -12 callsubr
          -248 vlineto
          -23 28 -12 24 27 26 17 callgsubr
          248 -35 callsubr
          -67 -47 -37 -39 -20 vhcurveto
          36 vlineto
          hintmask 11011100
          -72 callsubr
          endchar
        </CharString>
        <CharString name="nine">
          26 -6 94 -94 223 69 85 272 88 hstemhm
          37 -34 callgsubr
          hintmask 01111100
          241 286 rmoveto
          56 50 15 42 33 hvcurveto
          -126 vlineto
          hintmask 10111100
          -88 -45 -41 -76 -64 -53 34 55 vhcurveto
          hintmask 01111100
          32 -26 8 -29 -33 -17 -11 -34 -85 70 -93 149 130 100 61 162 vhcurveto
          291 10 callgsubr
          -126 -98 -27 callgsubr
          vhcurveto
          -18 vlineto
          -156 92 -48 112 vhcurveto
          139 202 rmoveto
          -85 -46 -32 -72 -75 -44 35 91 vhcurveto
          17 vlineto
          89 44 40 74 75 44 -40 -89 vhcurveto
          endchar
        </CharString>
        <CharString name="nineinferior">
          -168 -3 1 callgsubr
          150 -67 callsubr
        </CharString>
        <CharString name="ninesuperior">
          -168 337 1 callgsubr
          490 -67 callsubr
        </CharString>
        <CharString name="notequal">
          -10 -1 -21 130 89 114 89 148 -20 hstem
          411 505 rmoveto
          3 5 1 4 5 vvcurveto
          16 -17 13 -15 -7 -7 -2 -8 -5 vhcurveto
          -71 -138 rlineto
          -213 39 callgsubr
          162 hlineto
          -58 -114 rlineto
          -104 39 callgsubr
          53 hlineto
          -44 -90 rlineto
          -3 -4 -1 -5 -4 vvcurveto
          -15 16 -12 14 8 6 4 7 4 vhcurveto
          62 119 rlineto
          224 hlineto
          -40 callgsubr
          -172 hlineto
          58 114 rlineto
          114 hlineto
          -40 callgsubr
          -62 hlineto
          endchar
        </CharString>
        <CharString name="ntilde">
          3 -29 callgsubr
          142 -14 callsubr
          55 105 197 105 hintmask 11001110
          196 627 rmoveto
          hintmask 11010110
          -90 callgsubr
          hintmask 11001110
          -91 callsubr
          -36 -344 rmoveto
          7 callsubr
          56 45 -12 callsubr
          -248 vlineto
          -23 28 -12 24 27 26 17 callgsubr
          248 -35 callsubr
          -67 -47 -37 -39 -20 vhcurveto
          36 vlineto
          hintmask 10110110
          -72 callsubr
          endchar
        </CharString>
        <CharString name="numbersign">
          132 52 -21 201 80 137 79 185 -20 hstem
          265 713 rmoveto
          -20 -21 -9 -14 -2 hvcurveto
          -27 -162 rlineto
          -103 hlineto
          -18 -12 -17 -23 -24 11 -15 21 hvcurveto
          85 hlineto
          -23 -137 rlineto
          -102 hlineto
          -17 -13 -18 -23 -23 12 -16 20 hvcurveto
          84 hlineto
          -25 -160 rlineto
          -27 24 -14 27 16 22 11 16 3 vhcurveto
          30 174 rlineto
          115 hlineto
          -27 -160 rlineto
          -27 24 -14 27 18 21 11 15 3 vhcurveto
          30 175 rlineto
          102 hlineto
          16 16 17 23 23 -17 17 -17 hvcurveto
          -85 hlineto
          24 137 rlineto
          101 hlineto
          16 15 17 23 23 -16 16 -17 hvcurveto
          -85 hlineto
          25 143 rlineto
          29 -1 -23 13 -25 hhcurveto
          -20 -21 -9 -14 -2 hvcurveto
          -28 -162 rlineto
          -116 hlineto
          24 143 rlineto
          29 -23 13 -26 vhcurveto
          10 -264 rmoveto
          116 hlineto
          -24 -137 rlineto
          -115 hlineto
          endchar
        </CharString>
        <CharString name="o">
          -23 callgsubr
          -30 callsubr
          -77 callsubr
          endchar
        </CharString>
        <CharString name="oacute">
          -23 callgsubr
          229 -20 -30 callsubr
          321 641 -107 callsubr
          43 -100 rmoveto
          -98 callgsubr
          -61 callsubr
          endchar
        </CharString>
        <CharString name="obreve">
          -23 callgsubr
          112 -42 callgsubr
          36 105 -24 60 168 105 hintmask 11011010
          -77 callsubr
          -35 435 rmoveto
          hintmask 11101010
          -42 callsubr
          hintmask 11010110
          -89 callsubr
        </CharString>
        <CharString name="ocircumflex">
          -23 callgsubr
          0 102 0 callsubr
          36 -28 callsubr
          hintmask 10111100
          242 641 -107 callgsubr
          105 -105 rmoveto
          -98 callgsubr
          hintmask 11011100
          -61 callsubr
          endchar
        </CharString>
        <CharString name="odieresis">
          -23 callgsubr
          103 93 hstemhm
          36 105 -13 90 50 90 -13 105 hintmask 11101100
          174 676 rmoveto
          -105 callsubr
          -70 -196 rmoveto
          hintmask 11110010
          -98 callgsubr
          -61 callsubr
          endchar
        </CharString>
        <CharString name="oe">
          272 -8 85 -85 123 94 65 113 93 -80 80 hstemhm
          36 -28 callsubr
          203 99 hintmask 10110111
          243 480 rmoveto
          -47 callgsubr
          64 58 34 51 36 vhcurveto
          -53 37 63 -32 75 hhcurveto
          100 66 46 29 hvcurveto
          hintmask 01110111
          20 -16 28 -25 vhcurveto
          hintmask 10110111
          -28 -22 -38 -70 hhcurveto
          -78 -53 42 67 hvcurveto
          23 211 vlineto
          46 45 3 83 108 -93 77 -106 -62 -55 -34 -51 -35 hvcurveto
          51 -35 -59 34 -64 hhcurveto
          -71 callsubr
          -61 callsubr
          105 -9 rmoveto
          34 vlineto
          hintmask 10101111
          54 47 38 54 58 44 -43 -53 -24 -9 -6 -28 vhcurveto
          endchar
        </CharString>
        <CharString name="ogonek">
          -373 -208 47 185 -20 hstemhm
          0 16 callgsubr
          hintmask 11100000
          115 -161 rmoveto
          -18 callgsubr
          -42 18 rlineto
          -54 -38 -35 -55 -55 vvcurveto
          -53 43 -31 66 vhcurveto
          hintmask 11010000
          22 6 9 13 13 -7 12 -15 hvcurveto
          endchar
        </CharString>
        <CharString name="ograve">
          -23 callgsubr
          229 -20 -30 callsubr
          -77 callsubr
          -66 297 -105 callgsubr
        </CharString>
        <CharString name="ohungarumlaut">
          -23 callgsubr
          231 -20 -30 callsubr
          259 661 -99 callgsubr
          -85 -103 rmoveto
          -98 callgsubr
          -61 callsubr
          endchar
        </CharString>
        <CharString name="omacron">
          -23 callgsubr
          140 72 -30 callsubr
          104 655 rmoveto
          -96 callgsubr
          139 -175 rmoveto
          -98 callgsubr
          -61 callsubr
          endchar
        </CharString>
        <CharString name="one">
          -243 21 -21 732 -20 hstemhm
          7 199 -106 106 hintmask 11100000
          100 35 rmoveto
          -23 26 -12 27 26 27 17 callgsubr
          662 vlineto
          22 -25 13 -22 -12 -8 -4 -7 -7 vhcurveto
          -104 -100 rlineto
          -13 -9 -8 -17 -15 vvcurveto
          -21 15 -22 21 6 9 3 7 7 vhcurveto
          hintmask 11010000
          35 44 rlineto
          endchar
        </CharString>
        <CharString name="one.lnum">
          -107 0 94 638 -20 hstemhm
          13 246 -199 199 -106 106 -106 244 hintmask 11100000
          13 47 rmoveto
          -26 16 -21 19 vhcurveto
          314 hlineto
          hintmask 11000100
          17 18 21 26 26 -18 21 -17 hvcurveto
          hintmask 11100000
          -103 603 hlineto
          22 -24 13 -23 -12 -8 -4 -7 -6 vhcurveto
          -106 -102 rlineto
          hintmask 11010000
          -12 -8 -8 -16 -15 vvcurveto
          -21 15 -22 21 7 8 3 7 7 vhcurveto
          hintmask 11001000
          35 44 rlineto
          -497 -105 vlineto
          hintmask 11100000
          -19 -16 -21 -26 hvcurveto
          endchar
        </CharString>
        <CharString name="oneeighth">
          141 8 callsubr
          97 51 341 -20 58 -20 hstemhm
          80 73 201 -31 callsubr
          hintmask 1111111011000000
          80 363 -88 callsubr
          410 -254 -48 callgsubr
          hintmask 1111111100100000
          -79 callsubr
          hintmask 1111111101000000
          -75 callgsubr
        </CharString>
        <CharString name="onehalf">
          128 -14 -21 35 64 261 66 341 -20 58 -20 hstem
          80 73 195 79 109 73 vstem
          356 291 -10 callgsubr
          -76 callsubr
          -276 72 -88 callsubr
          376 125 -103 callsubr
          endchar
        </CharString>
        <CharString name="oneinferior">
          -326 21 -21 392 -20 hstem
          67 73 vstem
          67 23 rmoveto
          -16 18 -7 19 18 18 7 16 vhcurveto
          346 vlineto
          14 -17 9 -15 -7 -5 -2 2 callsubr
          -68 -48 rlineto
          -8 -5 -5 -11 -10 vvcurveto
          -14 10 -14 14 3 5 1 3 5 vhcurveto
          19 16 rlineto
          endchar
        </CharString>
        <CharString name="onequarter">
          131 -14 -21 56 -21 85 67 -67 142 505 -20 58 -20 hstemhm
          83 73 341 73 -73 123 hintmask 1101111100000000
          83 363 -88 callsubr
          392 125 -103 callsubr
          22 -747 -19 callsubr
          62 27 vlineto
          hintmask 1110111010000000
          -9 callgsubr
          hintmask 1110111100000000
          -27 52 hlineto
          hintmask 1101111100000000
          -10 callsubr
          hintmask 1110111100000000
          -73 callgsubr
          -1 callgsubr
          endchar
        </CharString>
        <CharString name="onesuperior">
          -326 361 -21 392 -20 hstem
          67 73 vstem
          67 363 -88 callsubr
          endchar
        </CharString>
        <CharString name="onethird">
          142 -14 -21 32 64 -64 126 52 57 97 62 341 -20 58 -20 hstemhm
          80 73 202 -31 callgsubr
          hintmask 1101111111000000
          489 61 -8 callsubr
          hintmask 1011111110010000
          -78 callgsubr
          hintmask 1011111110100000
          -74 callgsubr
          -56 callgsubr
          hintmask 1101111111000000
          -74 callsubr
          -409 302 -88 callsubr
          376 125 -103 callsubr
          endchar
        </CharString>
        <CharString name="ordfeminine">
          -184 433 55 85 40 59 81 hstemhm
          29 74 -55 235 -73 73 hintmask 11101000
          149 753 rmoveto
          -45 -56 -20 -24 -17 9 -20 17 hvcurveto
          hintmask 11110100
          15 10 20 49 hhcurveto
          46 16 -36 -32 hvcurveto
          -11 -28 vlineto
          -90 -63 -20 -74 -56 35 -27 43 -3 hvcurveto
          9 11 0 2 9 hvcurveto
          34 6 25 20 20 22 rrcurveto
          -21 vlineto
          -13 14 -12 18 22 14 12 13 vhcurveto
          162 vlineto
          66 -36 63 -98 vhcurveto
          61 -201 rmoveto
          -32 -35 -32 -32 -23 -17 12 28 37 40 8 44 vhcurveto
          23 hlineto
          endchar
        </CharString>
        <CharString name="ordmasculine">
          -171 432 65 190 66 hstem
          32 73 128 74 vstem
          169 753 rmoveto
          -76 -61 -61 -70 hvcurveto
          -59 vlineto
          -69 63 -62 74 74 64 62 69 vhcurveto
          59 vlineto
          72 -64 59 -74 vhcurveto
          64 -190 rmoveto
          -34 -29 -32 -35 -36 -28 32 34 vhcurveto
          59 vlineto
          33 28 32 36 36 28 -32 -33 vhcurveto
          endchar
        </CharString>
        <CharString name="oslash">
          -23 -11 -21 24 -34 callsubr
          30 -83 callgsubr
          endchar
        </CharString>
        <CharString name="oslashacute">
          -23 -11 -21 24 -34 callsubr
          229 -83 callgsubr
          205 450 -95 callgsubr
        </CharString>
        <CharString name="otilde">
          -23 callgsubr
          116 -14 callsubr
          36 -28 callsubr
          hintmask 11011100
          -77 callsubr
          -160 344 rmoveto
          hintmask 11101100
          -90 callgsubr
          hintmask 11011100
          -91 callsubr
          endchar
        </CharString>
        <CharString name="p">
          -4 -11 callgsubr
          -6 -20 hstemhm
          56 105 203 105 hintmask 11011100
          106 474 rmoveto
          -28 -22 -16 callgsubr
          -630 vlineto
          -18 21 -17 30 30 24 17 18 vhcurveto
          260 vlineto
          -41 20 52 -37 60 hhcurveto
          94 82 95 104 hvcurveto
          92 vlineto
          hintmask 11101100
          108 -80 89 -100 -64 -48 -37 -39 -22 vhcurveto
          36 vlineto
          hintmask 11011100
          20 -21 14 -28 vhcurveto
          258 -283 22 callsubr
          hintmask 11101100
          32 callgsubr
        </CharString>
        <CharString name="paragraph">
          31 21 -21 678 53 hstem
          251 71 81 71 vstem
          221 731 rmoveto
          -110 -86 -56 -150 hvcurveto
          -12 vlineto
          -150 86 -57 110 vhcurveto
          30 -271 hlineto
          -23 18 -12 18 18 17 17 callgsubr
          643 81 -644 vlineto
          -24 18 -10 18 17 18 10 24 vhcurveto
          662 vlineto
          23 -18 12 -17 vhcurveto
          endchar
        </CharString>
        <CharString name="parenleft">
          -185 -20 93 602 93 hstem
          53 105 vstem
          253 -20 rmoveto
          44 11 19 27 23 -7 24 -28 -50 -65 16 71 hvcurveto
          414 vlineto
          49 42 52 73 20 15 19 28 25 -12 21 -40 -102 -101 -81 -113 vhcurveto
          -414 vlineto
          -123 99 -57 101 vhcurveto
          endchar
        </CharString>
        <CharString name="parenright">
          -184 -20 93 602 93 hstem
          167 106 vstem
          72 -20 rmoveto
          101 100 57 123 hvcurveto
          414 vlineto
          113 -102 81 -102 -39 -12 -21 -25 -28 14 -19 20 73 42 -52 -49 vhcurveto
          -414 vlineto
          -71 -65 -16 -50 -28 -6 -24 -23 -27 10 -19 44 vhcurveto
          endchar
        </CharString>
        <CharString name="partialdiff">
          -5 -8 93 306 94 144 116 -91 91 hstemhm
          39 105 206 105 hintmask 11101100
          350 404 rmoveto
          46 -19 -55 35 -60 hhcurveto
          -97 -80 -91 -107 hvcurveto
          -96 vlineto
          -105 98 -94 110 112 96 99 105 vhcurveto
          166 vlineto
          281 -112 102 -135 -79 -71 -34 -26 -14 15 -42 25 vhcurveto
          hintmask 11011100
          20 26 25 55 hhcurveto
          106 39 -87 -163 6 hvcurveto
          -206 -117 rmoveto
          53 45 51 57 54 50 -45 -57 vhcurveto
          -98 vlineto
          -54 -46 -52 -57 -57 -46 52 54 vhcurveto
          endchar
        </CharString>
        <CharString name="percent">
          264 -14 -21 32 64 276 64 266 64 39 -20 hstem
          31 73 125 72 172 73 125 72 vstem
          166 337 -100 callsubr
          379 -611 -100 callsubr
          -102 502 -103 callsubr
          endchar
        </CharString>
        <CharString name="period">
          -326 -6 120 hstem
          33 119 vstem
          93 -43 callgsubr
          endchar
        </CharString>
        <CharString name="periodcentered">
          -313 243 113 hstem
          36 125 vstem
          99 356 -41 callsubr
        </CharString>
        <CharString name="perthousand">
          590 -14 -21 32 64 276 64 266 64 39 -20 hstem
          31 73 125 72 172 73 125 72 58 73 125 72 vstem
          166 337 -100 callsubr
          379 -611 -100 callsubr
          265 -271 -100 callsubr
          -430 502 -103 callsubr
          endchar
        </CharString>
        <CharString name="pi">
          12 21 -21 380 94 hstem
          55 105 201 106 vstem
          102 474 rmoveto
          -24 -23 -11 -24 hvcurveto
          -15 callgsubr
          -24 26 33 callgsubr
          346 201 -346 vlineto
          -24 27 33 callgsubr
          405 vlineto
          24 -23 11 -24 vhcurveto
          endchar
        </CharString>
        <CharString name="plus">
          -77 46 33 callsubr
          hstemhm
          22 33 callsubr
          hintmask 10010000
          217 46 rmoveto
          26 18 14 20 hvcurveto
          hintmask 01010000
          116 115 vlineto
          hintmask 10000100
          -40 callgsubr
          hintmask 10010000
          -115 115 hlineto
          hintmask 00101000
          18 -18 17 -26 -25 -20 -17 -18 vhcurveto
          hintmask 10001000
          -115 -116 vlineto
          hintmask 01010000
          -20 -14 -20 -25 -26 14 -18 20 hvcurveto
          hintmask 01001000
          116 -116 hlineto
          hintmask 10010000
          -20 20 -14 25 vhcurveto
          endchar
        </CharString>
        <CharString name="plusminus">
          -41 41 89 44 233 -88 88 -88 233 hstemhm
          40 33 callsubr
          hintmask 11001000
          235 174 rmoveto
          26 18 14 20 hvcurveto
          hintmask 10101000
          111 115 vlineto
          hintmask 11000010
          18 17 17 26 26 -17 19 -18 hvcurveto
          hintmask 11001000
          -115 110 hlineto
          hintmask 10010100
          17 -18 18 -26 -25 -20 -18 -17 vhcurveto
          hintmask 11000100
          -110 -116 vlineto
          hintmask 10101000
          -20 -14 -19 -26 -26 14 -17 20 hvcurveto
          hintmask 10100100
          116 -111 hlineto
          hintmask 11001000
          -20 20 -14 25 vhcurveto
          -195 -89 -36 callsubr
          320 hlineto
          hintmask 11000010
          -40 callgsubr
          -320 hlineto
          hintmask 11001000
          -20 -14 -20 -25 hvcurveto
          endchar
        </CharString>
        <CharString name="product">
          71 21 -21 637 94 hstem
          66 105 238 106 vstem
          113 731 rmoveto
          -24 -23 -12 -23 hvcurveto
          -662 vlineto
          -24 26 33 callgsubr
          603 238 -603 vlineto
          -24 26 -10 27 26 27 10 24 vhcurveto
          662 vlineto
          23 -24 12 -23 vhcurveto
          endchar
        </CharString>
        <CharString name="q">
          -3 -11 callgsubr
          -6 -20 hstemhm
          37 -28 callsubr
          hintmask 11011100
          27 callsubr
          hintmask 11101100
          39 -22 -47 37 -65 hhcurveto
          -100 -80 -89 -108 hvcurveto
          -92 vlineto
          -104 82 -95 94 60 52 37 41 21 vhcurveto
          -260 vlineto
          -18 23 -17 30 30 22 17 18 vhcurveto
          630 vlineto
          hintmask 11011100
          20 -23 14 -28 vhcurveto
          -258 -191 rmoveto
          hintmask 11101100
          52 47 52 57 49 51 -39 -65 vhcurveto
          -115 vlineto
          -24 -43 -59 -59 -54 -48 52 54 vhcurveto
          endchar
        </CharString>
        <CharString name="q.ss02">
          -7 -11 callgsubr
          hstem
          37 -28 callsubr
          vstem
          214 -8 rmoveto
          62 49 38 40 21 hvcurveto
          -260 vlineto
          -18 23 -17 30 30 22 16 18 vhcurveto
          470 vlineto
          129 -101 72 -105 -129 -79 -100 -98 vhcurveto
          -92 vlineto
          -106 82 -92 95 vhcurveto
          29 93 rmoveto
          -53 -48 52 53 hvcurveto
          92 vlineto
          45 30 60 71 56 47 -39 -73 vhcurveto
          -107 vlineto
          -28 -47 -55 -56 vhcurveto
          endchar
        </CharString>
        <CharString name="question">
          -88 -6 120 481 143 -81 81 hstemhm
          127 118 -99 81 80 88 hintmask 11010100
          395 566 rmoveto
          97 -73 75 -127 -108 -65 -60 -42 -27 23 -14 18 vhcurveto
          hintmask 10101100
          38 -4 62 95 hhcurveto
          71 44 -37 -64 -82 -68 -40 -39 -36 hvcurveto
          -27 -25 -27 -39 -100 vvcurveto
          -35 12 -11 27 32 10 15 16 65 1 36 43 39 vhcurveto
          33 34 91 62 111 vvcurveto
          -209 -452 rmoveto
          hintmask 11010100
          -33 19 callsubr
          -32 25 -28 34 33 26 28 32 33 -27 27 -32 hvcurveto
          endchar
        </CharString>
        <CharString name="questiondown">
          -89 -6 81 -81 143 481 120 hstemhm
          27 88 61 119 -100 80 hintmask 01111000
          27 166 rmoveto
          -97 73 -75 126 109 64 60 42 27 -23 14 -18 vhcurveto
          hintmask 10110100
          -38 4 -62 -94 hhcurveto
          -71 -44 37 64 82 69 38 37 38 hvcurveto
          27 27 27 37 100 vvcurveto
          35 -12 11 -27 -32 -9 -15 -16 -65 -1 -36 -43 -39 vhcurveto
          -33 -34 -91 -62 -111 vvcurveto
          208 452 rmoveto
          hintmask 10111000
          33 27 27 33 32 -26 28 -34 -33 -26 -28 -32 -33 27 -27 32 hvcurveto
          endchar
        </CharString>
        <CharString name="quotedbl">
          -219 568 200 hstem
          37 74 69 -33 callsubr
          144 hmoveto
          -21 -21 -12 -17 hvcurveto
          10 -141 rlineto
          -15 9 -15 23 22 10 15 15 vhcurveto
          10 141 rlineto
          17 -22 12 -20 vhcurveto
          endchar
        </CharString>
        <CharString name="quotedblbase">
          -153 -94 208 hstem
          33 119 53 119 vstem
          265 114 rmoveto
          -34 27 callgsubr
          -2 -4 -1 -1 callsubr
          20 -11 16 8 10 4 11 5 vhcurveto
          41 93 9 27 13 vvcurveto
          33 -27 27 -32 vhcurveto
          -173 hmoveto
          -33 6 callsubr
          20 -9 hvcurveto
          -22 -3 callgsubr
          15 9 10 4 11 5 vhcurveto
          41 93 9 27 13 vvcurveto
          33 -27 27 -33 vhcurveto
          endchar
        </CharString>
        <CharString name="quotedblleft">
          -162 533 208 hstem
          26 119 53 119 vstem
          85 533 -49 callsubr
          -10 -4 -11 -5 -20 callgsubr
          32 vhcurveto
          173 hmoveto
          33 26 27 33 24 -14 21 -20 9 hvcurveto
          22 53 rlineto
          2 5 0 3 4 vvcurveto
          18 -20 11 -15 -9 -10 -4 -11 -5 -20 callgsubr
          33 vhcurveto
          endchar
        </CharString>
        <CharString name="quotedblright">
          -162 533 208 hstem
          32 119 54 119 vstem
          264 741 rmoveto
          -33 19 callsubr
          -23 14 -21 20 -10 hvcurveto
          -22 -3 callgsubr
          15 9 10 4 11 5 vhcurveto
          41 93 9 27 14 vvcurveto
          32 -27 27 -33 vhcurveto
          -172 hmoveto
          -34 19 callsubr
          -23 14 -21 21 -10 hvcurveto
          -22 -53 rlineto
          -2 -4 -1 -1 callsubr
          20 -11 16 8 10 4 11 5 vhcurveto
          41 93 9 27 14 vvcurveto
          32 -27 27 -32 vhcurveto
          endchar
        </CharString>
        <CharString name="quoteleft">
          -334 554 36 callgsubr
          26 119 vstem
          85 533 -49 callsubr
          -11 -4 -11 -4 -20 callgsubr
          32 vhcurveto
          endchar
        </CharString>
        <CharString name="quoteright">
          -336 554 36 callgsubr
          32 118 vstem
          91 741 rmoveto
          -33 19 callsubr
          -23 14 -21 20 -10 hvcurveto
          -22 -53 rlineto
          -2 -4 -1 -1 callsubr
          21 -11 15 9 10 4 11 4 vhcurveto
          42 93 8 27 14 vvcurveto
          32 -27 27 -32 vhcurveto
          endchar
        </CharString>
        <CharString name="quotesinglbase">
          -325 -73 36 callgsubr
          33 119 vstem
          92 114 rmoveto
          -33 6 callsubr
          20 -9 hvcurveto
          -22 -3 callgsubr
          15 9 10 4 11 5 vhcurveto
          41 93 9 27 13 vvcurveto
          33 -27 27 -33 vhcurveto
          endchar
        </CharString>
        <CharString name="quotesingle">
          -362 568 200 hstem
          37 -33 callsubr
          endchar
        </CharString>
        <CharString name="r">
          -150 -29 callgsubr
          hstemhm
          55 105 hintmask 11010000
          313 387 -53 callsubr
          hintmask 10110000
          20 -22 14 -26 -30 -21 -14 -20 vhcurveto
          -405 40 callgsubr
          205 vlineto
          hintmask 11010000
          19 callgsubr
        </CharString>
        <CharString name="r.ss04">
          -158 21 -39 callgsubr
          hstem
          47 105 vstem
          306 387 rmoveto
          21 18 21 26 25 -15 21 -26 hvcurveto
          -54 hlineto
          -130 -73 -127 -123 hvcurveto
          -195 vlineto
          -18 22 -17 29 30 24 17 18 vhcurveto
          194 vlineto
          88 51 70 65 vhcurveto
          endchar
        </CharString>
        <CharString name="racute">
          -150 -29 callgsubr
          255 -20 hstemhm
          55 105 hintmask 11011000
          268 641 -107 callsubr
          166 -193 -53 callsubr
          hintmask 10111000
          20 -22 14 -26 -30 -21 -14 -20 vhcurveto
          -405 40 callgsubr
          205 vlineto
          hintmask 11011000
          19 callgsubr
        </CharString>
        <CharString name="radical">
          149 -14 -21 714 89 hstem
          5 399 -36 callsubr
          32 hlineto
          118 -353 rlineto
          -25 9 29 -12 30 hhcurveto
          30 29 12 25 8 hvcurveto
          207 677 rlineto
          95 hlineto
          -40 callgsubr
          -154 hlineto
          -15 -14 -11 -15 -4 hvcurveto
          -183 -645 -91 309 rlineto
          19 -5 -11 19 -19 hhcurveto
          -91 -43 callsubr
        </CharString>
        <CharString name="rcaron">
          -150 -29 callgsubr
          278 -20 hstemhm
          55 105 hintmask 11011000
          80 726 -106 callgsubr
          132 -264 -53 callsubr
          hintmask 10111000
          20 -22 14 -26 -30 -21 -14 -20 vhcurveto
          -405 40 callgsubr
          205 vlineto
          hintmask 11011000
          19 callgsubr
        </CharString>
        <CharString name="rcommaaccent">
          -150 -160 -21 202 -24 callsubr
          hstemhm
          hintmask 11100000
          172 -104 callgsubr
          262 564 -53 callsubr
          hintmask 11010000
          20 -22 14 -26 -30 -21 -14 -20 vhcurveto
          -405 40 callgsubr
          205 vlineto
          hintmask 11100000
          19 callgsubr
        </CharString>
        <CharString name="registered">
          192 35 55 87 208 116 53 76 55 hstem
          44 55 150 59 109 59 127 55 vstem
          -33 callgsubr
          205 -160 rmoveto
          -14 15 -7 15 16 13 7 14 vhcurveto
          136 46 vlineto
          67 -141 rlineto
          -10 5 7 -7 9 hhcurveto
          15 17 15 16 2 0 3 -1 2 hvcurveto
          -63 130 rlineto
          37 11 29 32 60 vvcurveto
          81 -53 26 -61 vhcurveto
          -93 hlineto
          -12 -8 -10 -10 hvcurveto
          113 -33 rmoveto
          34 21 -16 -44 -40 -21 -16 -34 hvcurveto
          -54 116 hlineto
          295 -139 -27 callsubr
          endchar
        </CharString>
        <CharString name="ring">
          -318 573 44 104 48 hstem
          0 44 102 46 vstem
          95 769 rmoveto
          -83 callsubr
          endchar
        </CharString>
        <CharString name="s">
          -106 -8 24 callsubr
          149 94 hintmask 10101100
          196 73 rmoveto
          hintmask 01011100
          -73 callsubr
          10 callsubr
          hintmask 10101100
          -84 callgsubr
        </CharString>
        <CharString name="sacute">
          -106 -8 -37 callgsubr
          229 -20 hstemhm
          40 92 149 94 hintmask 10101110
          283 641 -107 callsubr
          34 -507 rmoveto
          hintmask 01011110
          -73 callsubr
          10 callsubr
          hintmask 10101110
          -84 callgsubr
        </CharString>
        <CharString name="scaron">
          -106 -8 -37 callgsubr
          252 -20 hstemhm
          40 92 149 94 hintmask 10101110
          99 726 -106 callgsubr
          -4 -578 rmoveto
          hintmask 01011110
          -73 callsubr
          10 callsubr
          hintmask 10101110
          -84 callgsubr
        </CharString>
        <CharString name="scedilla">
          -106 6 callgsubr
          47 24 callsubr
          6 181 -54 54 -38 94 hintmask 1010101100000000
          196 73 rmoveto
          hintmask 1001101010000000
          -86 -21 46 -26 hhcurveto
          -21 -15 -29 -18 -36 66 -40 91 -4 hvcurveto
          -21 -81 -65 callgsubr
          14 49 rlineto
          hintmask 1010011001000000
          89 10 50 52 75 180 -243 -58 88 vvcurveto
          10 callsubr
          hintmask 1010101001000000
          -84 callgsubr
        </CharString>
        <CharString name="schwa">
          -36 -8 80 126 65 94 123 -85 85 hstemhm
          30 99 204 104 hintmask 11101100
          229 -8 rmoveto
          115 93 89 105 hvcurveto
          95 vlineto
          119 -96 80 -135 -102 -64 -46 -30 -18 16 -29 24 vhcurveto
          hintmask 11011100
          28 23 38 72 hhcurveto
          76 54 -42 -67 hvcurveto
          -23 -212 vlineto
          -45 -46 -3 -83 -109 93 -76 106 hvcurveto
          104 206 rmoveto
          -32 vlineto
          -55 -47 -39 -55 -58 -44 43 53 24 9 6 28 vhcurveto
          endchar
        </CharString>
        <CharString name="scircumflex">
          -106 -8 81 297 110 -81 81 0 102 0 callsubr
          40 92 149 94 hintmask 10011110
          199 641 -107 callgsubr
          101 -512 rmoveto
          -73 callsubr
          hintmask 10101110
          10 callsubr
          hintmask 11001110
          -84 callgsubr
        </CharString>
        <CharString name="scommaaccent">
          -106 -160 -21 173 24 callsubr
          149 94 hintmask 11010110
          280 -104 callgsubr
          37 250 rmoveto
          hintmask 10101110
          -73 callsubr
          10 callsubr
          hintmask 11010110
          -84 callgsubr
        </CharString>
        <CharString name="section">
          -38 -68 89 -89 210 381 208 -87 87 hstemhm
          50 89 -89 98 176 87 -69 88 hintmask 10100110
          50 416 rmoveto
          -235 274 68 -138 vvcurveto
          -54 -32 -36 -66 -79 -13 56 34 vhcurveto
          hintmask 01010101
          16 -11 15 -34 -28 -18 -10 -33 -83 67 -84 123 94 103 47 153 vhcurveto
          113 vlineto
          235 -282 -68 138 vvcurveto
          63 40 31 53 vhcurveto
          hintmask 10100110
          67 16 -50 -33 -22 12 -16 34 24 17 9 35 85 -58 79 -116 -79 -108 -38 -163 hvcurveto
          hintmask 10101001
          292 -298 rmoveto
          -60 60 -143 -14 120 vvcurveto
          24 vlineto
          60 -60 143 14 -120 vvcurveto
          endchar
        </CharString>
        <CharString name="semicolon">
          -291 -73 -21 208 188 0 120 hstemhm
          48 119 hintmask 11010000
          107 -47 callsubr
          hintmask 10110000
          5 308 rmoveto
          -39 callsubr
        </CharString>
        <CharString name="seven">
          -26 18 -21 511 223 -94 94 hstemhm
          21 -34 callgsubr
          hintmask 11011000
          470 696 rmoveto
          17 -26 18 -21 vhcurveto
          -355 hlineto
          -23 -24 -18 -17 hvcurveto
          -153 vlineto
          -20 24 -15 28 28 26 15 20 vhcurveto
          hintmask 10111000
          94 237 -62 vlineto
          -275 -506 rlineto
          -4 -7 -1 -7 -6 vvcurveto
          -31 33 -21 33 15 11 5 11 6 vhcurveto
          269 521 rlineto
          10 19 9 23 17 vvcurveto
          endchar
        </CharString>
        <CharString name="seveneighths">
          261 8 callsubr
          90 58 212 128 -64 64 39 -20 hstemhm
          24 73 377 -31 callsubr
          hintmask 1111101101100000
          610 22 callgsubr
          hintmask 1111101110010000
          -79 callsubr
          hintmask 1111101110100000
          -95 callsubr
          -83 -48 callsubr
          -232 -62 rmoveto
          11 -18 12 -14 vhcurveto
          -206 hlineto
          -17 -16 -12 -11 hvcurveto
          -82 vlineto
          -13 17 -10 20 18 18 10 13 vhcurveto
          hintmask 1111011110100000
          41 126 -35 vlineto
          -155 -246 rlineto
          -2 -4 -1 -16 callsubr
          -21 23 -16 23 9 8 4 7 4 vhcurveto
          hintmask 1111101110100000
          25 callgsubr
        </CharString>
        <CharString name="seveninferior">
          -205 18 20 callsubr
          368 -51 callgsubr
          150 256 rlineto
          7 12 6 18 12 vvcurveto
          endchar
        </CharString>
        <CharString name="sevensuperior">
          -204 358 20 callsubr
          708 -51 callgsubr
          hintmask 11010000
          25 callgsubr
        </CharString>
        <CharString name="six">
          26 -6 88 272 85 69 223 -94 94 hstemhm
          50 105 238 106 hintmask 11101100
          295 439 rmoveto
          -56 -50 -15 -42 -34 hvcurveto
          126 vlineto
          hintmask 11011100
          88 45 41 77 64 53 -34 -55 vhcurveto
          hintmask 11101100
          -32 26 -8 29 33 17 11 34 85 -70 93 -150 -129 -100 -27 callgsubr
          vhcurveto
          12 callgsubr
          98 -61 127 126 98 61 162 vhcurveto
          18 vlineto
          156 -92 48 -112 vhcurveto
          -140 -202 rmoveto
          85 47 32 72 75 44 -35 -91 vhcurveto
          -17 vlineto
          -89 -44 -40 -74 -75 -45 40 89 vhcurveto
          endchar
        </CharString>
        <CharString name="sixinferior">
          -170 -3 59 126 56 25 128 -64 64 hstemhm
          38 73 126 72 hintmask 11011100
          189 238 -67 callgsubr
        </CharString>
        <CharString name="sixsuperior">
          -172 337 59 126 56 25 128 -64 64 hstemhm
          36 73 126 72 hintmask 11011100
          187 578 -67 callgsubr
        </CharString>
        <CharString name="slash">
          -29 -14 -21 805 -20 hstem
          420 770 rmoveto
          -13 -11 -5 -13 -6 hvcurveto
          -368 -735 8 callgsubr
          367 732 29 callgsubr
          endchar
        </CharString>
        <CharString name="space">
          -310 endchar
        </CharString>
        <CharString name="sterling">
          11 0 94 272 79 230 93 hstem
          453 94 rmoveto
          -237 hlineto
          38 272 rlineto
          142 hlineto
          19 10 20 20 19 -10 20 -19 hvcurveto
          -130 hlineto
          17 119 rlineto
          60 9 47 51 75 hhcurveto
          35 hlineto
          24 13 24 22 23 -13 24 -24 hvcurveto
          -30 hlineto
          -117 -107 -87 -117 -17 hvcurveto
          -17 -119 rlineto
          -75 hlineto
          -19 -10 -20 -19 -21 10 -19 19 hvcurveto
          63 hlineto
          -37 -272 rlineto
          -56 hlineto
          -22 -12 -23 -24 -23 12 -24 22 hvcurveto
          397 hlineto
          22 11 24 23 24 -11 23 -22 hvcurveto
          endchar
        </CharString>
        <CharString name="summation">
          -9 -227 94 770 94 hstem
          247 252 rmoveto
          -210 -395 rlineto
          -5 -11 -6 -16 -16 vvcurveto
          -21 12 -20 33 vhcurveto
          371 hlineto
          23 12 25 22 23 -12 24 -23 hvcurveto
          -286 hlineto
          163 302 rlineto
          19 34 14 25 24 vvcurveto
          23 -15 25 -18 34 vhcurveto
          -163 303 rlineto
          286 hlineto
          23 12 24 23 22 -12 25 -23 hvcurveto
          -371 hlineto
          -33 -12 -20 -21 -16 6 -16 5 -11 hvcurveto
          endchar
        </CharString>
        <CharString name="t">
          -181 0 90 306 25 callsubr
          159 396 rmoveto
          122 hlineto
          18 11 19 20 20 -11 19 -18 hvcurveto
          -122 183 hlineto
          20 -27 14 -26 -25 -27 -14 -20 vhcurveto
          -501 vlineto
          -109 61 -47 114 vhcurveto
          35 hlineto
          30 15 22 23 23 -15 22 -30 hvcurveto
          -35 hlineto
          -52 -18 18 48 hvcurveto
          endchar
        </CharString>
        <CharString name="tbar">
          -179 0 90 143 79 84 25 callsubr
          159 396 rmoveto
          122 hlineto
          18 11 19 20 20 -11 19 -18 hvcurveto
          -122 183 hlineto
          20 -27 14 -26 -25 -27 -14 -20 vhcurveto
          -501 vlineto
          -109 61 -47 114 vhcurveto
          35 hlineto
          30 15 22 23 23 -15 22 -30 hvcurveto
          -35 hlineto
          -52 -18 18 48 hvcurveto
          77 122 vlineto
          18 11 18 21 20 -11 20 -18 hvcurveto
          -122 hlineto
          endchar
        </CharString>
        <CharString name="tcaron">
          -181 0 90 306 78 283 -20 hstem
          54 105 50 119 vstem
          268 757 rmoveto
          -33 19 callsubr
          -23 14 -21 21 -10 hvcurveto
          -23 -3 callgsubr
          16 8 10 4 11 5 vhcurveto
          41 93 9 27 14 vvcurveto
          32 -27 27 -33 vhcurveto
          -109 -361 rmoveto
          122 hlineto
          18 11 19 20 20 -11 19 -18 hvcurveto
          -122 183 hlineto
          20 -27 14 -26 -25 -27 -14 -20 vhcurveto
          -501 vlineto
          -109 61 -47 114 vhcurveto
          35 hlineto
          30 15 22 23 23 -15 22 -30 hvcurveto
          -35 hlineto
          -52 -18 18 48 hvcurveto
          endchar
        </CharString>
        <CharString name="tcommaaccent">
          -181 -160 -21 181 90 306 25 callsubr
          234 -104 callgsubr
          46 573 rmoveto
          122 hlineto
          18 11 19 20 20 -11 19 -18 hvcurveto
          -122 183 hlineto
          20 -27 14 -26 -25 -27 -14 -20 vhcurveto
          -501 vlineto
          -109 61 -47 114 vhcurveto
          35 hlineto
          30 15 22 23 23 -15 22 -30 hvcurveto
          -35 hlineto
          -52 -18 18 48 hvcurveto
          endchar
        </CharString>
        <CharString name="thorn">
          -4 -11 callgsubr
          276 -20 hstem
          56 105 203 105 vstem
          106 756 rmoveto
          -28 -22 -16 callgsubr
          -912 vlineto
          -18 21 -17 30 30 24 17 18 vhcurveto
          260 vlineto
          -41 20 52 -37 60 hhcurveto
          94 82 95 104 hvcurveto
          0 callgsubr
          -80 89 -100 -61 -46 4 callgsubr
          -31 vhcurveto
          258 -565 22 callsubr
          32 callgsubr
        </CharString>
        <CharString name="three">
          -1 -6 94 -94 221 125 85 88 218 -93 93 hstemhm
          24 104 -88 105 66 240 -102 102 -84 106 hintmask 1011010100000000
          246 88 rmoveto
          -81 -37 43 44 hvcurveto
          hintmask 0111010001000000
          27 -11 13 -44 -36 -13 -10 -35 -79 65 -97 156 126 102 59 159 vhcurveto
          19 vlineto
          85 -43 47 -59 23 vhcurveto
          hintmask 1011001010000000
          48 23 32 61 83 vvcurveto
          132 -84 46 -117 -165 -45 -104 -65 -38 8 -11 47 38 12 17 26 vhcurveto
          hintmask 1010110010000000
          41 23 41 81 65 35 -30 -73 -91 -43 -19 -61 vhcurveto
          hintmask 1011010100000000
          -25 -9 -21 -22 -21 9 -21 25 hvcurveto
          hintmask 1011010001000000
          73 49 -29 -80 hvcurveto
          -19 vlineto
          -87 -39 -37 -82 vhcurveto
          endchar
        </CharString>
        <CharString name="threeeighths">
          263 8 callsubr
          94 -25 callgsubr
          -62 62 39 -20 hstemhm
          25 -31 callgsubr
          180 -31 callsubr
          hintmask 111101101110010100000000
          159 401 -8 callsubr
          hintmask 111011101100110100000000
          -78 callgsubr
          hintmask 111101101101010100000000
          -74 callgsubr
          vhcurveto
          hintmask 111101011101010100000000
          -56 callgsubr
          hintmask 111101101110001100000000
          -74 callsubr
          453 -10 -48 callgsubr
          hintmask 111101101110010010000000
          -79 callsubr
          hintmask 111101101110010100000000
          -75 callgsubr
        </CharString>
        <CharString name="threeinferior">
          -186 -3 -25 callgsubr
          -62 62 hstemhm
          24 -31 callgsubr
          hintmask 1011011000000000
          158 61 -75 callsubr
        </CharString>
        <CharString name="threequarters">
          264 -14 -21 35 152 -67 67 -67 142 110 -25 callgsubr
          -62 62 39 -20 hstemhm
          29 -31 callgsubr
          330 73 -73 123 hintmask 1100101101110010
          163 401 -8 callsubr
          hintmask 1100011101100110
          -78 callgsubr
          hintmask 1100101101101010
          -74 callgsubr
          vhcurveto
          hintmask 1100101011101010
          -56 callgsubr
          hintmask 1100101101110010
          -74 callsubr
          467 -378 -19 callsubr
          hintmask 1010101101110010
          62 27 vlineto
          hintmask 1100101101110001
          -9 callgsubr
          hintmask 1100101101110010
          -27 52 hlineto
          hintmask 1001101101110010
          -10 callsubr
          hintmask 1100101101110010
          -73 callgsubr
          hintmask 1010101101110010
          -1 callgsubr
          -28 685 -103 callsubr
          endchar
        </CharString>
        <CharString name="threesuperior">
          -186 337 -25 callgsubr
          -62 62 hstemhm
          24 -31 callgsubr
          hintmask 1011011000000000
          158 401 -75 callsubr
        </CharString>
        <CharString name="tilde">
          -180 596 -14 callsubr
          hintmask 01000000
          106 627 rmoveto
          hintmask 10000000
          -90 callgsubr
          hintmask 01000000
          -91 callsubr
          endchar
        </CharString>
        <CharString name="trademark">
          145 495 -21 236 58 hstemhm
          41 155 -62 62 -62 155 22 63 159 62 hintmask 11100110
          60 768 rmoveto
          -13 -6 -15 -14 -15 7 -14 12 hvcurveto
          hintmask 11010110
          74 -215 hlineto
          -13 15 -8 16 16 15 8 13 vhcurveto
          215 73 vlineto
          hintmask 11001110
          13 7 14 15 14 -6 15 -14 hvcurveto
          264 -129 rmoveto
          -144 vlineto
          -13 16 -8 15 16 15 8 13 vhcurveto
          242 vlineto
          23 -14 8 -17 -22 -13 -6 -29 -13 vhcurveto
          -63 -137 -63 137 rlineto
          28 -13 -13 7 -22 hhcurveto
          -15 -16 -8 -23 hvcurveto
          -242 vlineto
          -13 16 -8 15 16 16 8 13 vhcurveto
          148 vlineto
          58 -131 rlineto
          -12 5 8 -3 8 hhcurveto
          8 8 4 11 5 hvcurveto
          endchar
        </CharString>
        <CharString name="two">
          -15 0 94 401 236 -97 97 hstemhm
          30 118 -104 104 209 106 hintmask 11010100
          44 554 rmoveto
          -45 20 -14 28 35 21 20 20 vhcurveto
          hintmask 10110100
          68 45 31 56 76 32 -56 -49 vhcurveto
          -154 -327 -81 -162 vvcurveto
          -97 vlineto
          -21 27 -14 20 vhcurveto
          356 hlineto
          18 17 23 25 25 -17 callsubr
          hvcurveto
          -294 38 hlineto
          115 324 70 215 vvcurveto
          120 -98 79 -116 vhcurveto
          hintmask 11001100
          -109 -96 -70 -107 hvcurveto
          endchar
        </CharString>
        <CharString name="twoinferior">
          -194 0 35 callgsubr
          hstemhm
          27 79 109 73 hintmask 11011000
          35 291 -10 callgsubr
          vhcurveto
          hintmask 10111000
          -76 callsubr
          endchar
        </CharString>
        <CharString name="twosuperior">
          -193 340 35 callgsubr
          hstemhm
          28 79 109 73 hintmask 11011000
          36 631 -10 callgsubr
          vhcurveto
          hintmask 10111000
          -76 callsubr
          endchar
        </CharString>
        <CharString name="twothirds">
          255 -14 -21 32 -25 callgsubr
          -51 51 -51 35 callgsubr
          39 -20 hstemhm
          29 79 109 73 179 -31 callgsubr
          hintmask 1101100101111100
          603 61 -8 callsubr
          hintmask 1011100101111001
          -78 callgsubr
          hintmask 1101100101111010
          -74 callgsubr
          -56 callgsubr
          hintmask 1101100101111100
          -74 callsubr
          -566 570 -10 callgsubr
          vhcurveto
          hintmask 1101010011111100
          32 23 13 30 40 16 -24 -21 vhcurveto
          -74 -188 -46 -85 vvcurveto
          -52 vlineto
          -14 19 -9 13 vhcurveto
          207 hlineto
          12 11 16 16 hvcurveto
          hintmask 1101001101111100
          17 -11 15 -12 vhcurveto
          -164 14 hlineto
          53 186 38 113 vvcurveto
          68 -62 41 -68 -64 -59 -37 -63 vhcurveto
          542 139 -103 callsubr
          endchar
        </CharString>
        <CharString name="u">
          5 -8 93 389 -60 callsubr
          endchar
        </CharString>
        <CharString name="u.ss04">
          7 -8 93 -64 -7 callsubr
          hstemhm
          51 105 201 105 hintmask 10111000
          228 -8 rmoveto
          64 51 38 40 20 hvcurveto
          -35 vlineto
          hintmask 01111000
          -18 22 -17 26 30 21 17 18 vhcurveto
          404 vlineto
          21 -21 14 -30 -30 -24 -14 -21 vhcurveto
          -256 vlineto
          hintmask 10111000
          -48 -47 -50 -52 -56 -46 52 53 vhcurveto
          249 vlineto
          22 -22 13 -29 -29 -25 -13 -22 vhcurveto
          -249 vlineto
          -106 82 -92 95 vhcurveto
          endchar
        </CharString>
        <CharString name="uacute">
          -24 callgsubr
          255 -20 hstem
          51 105 204 104 vstem
          342 641 -107 callsubr
          37 -588 rmoveto
          -102 callgsubr
          endchar
        </CharString>
        <CharString name="ubreve">
          -24 callgsubr
          138 -42 callgsubr
          51 105 -24 60 168 104 hintmask 11011010
          -93 callgsubr
          67 726 rmoveto
          hintmask 11101010
          -42 callsubr
          hintmask 11010110
          -89 callsubr
        </CharString>
        <CharString name="ucircumflex">
          5 -8 93 389 108 127 -20 hstem
          51 105 204 104 vstem
          258 641 -107 callgsubr
          104 -593 rmoveto
          -102 callgsubr
          endchar
        </CharString>
        <CharString name="udieresis">
          -24 callgsubr
          129 93 hstemhm
          51 105 -13 90 50 90 -13 104 hintmask 11101100
          189 676 rmoveto
          -105 callsubr
          -70 -684 rmoveto
          hintmask 11110010
          -102 callgsubr
          endchar
        </CharString>
        <CharString name="ugrave">
          -24 callgsubr
          255 -60 callsubr
          35 588 -105 callgsubr
        </CharString>
        <CharString name="uhungarumlaut">
          -24 callgsubr
          256 -60 callsubr
          17 668 -99 callgsubr
          endchar
        </CharString>
        <CharString name="umacron">
          -24 callgsubr
          166 72 -81 callsubr
          -138 663 rmoveto
          -96 callgsubr
          endchar
        </CharString>
        <CharString name="underscore">
          -186 -89 89 hstem
          -32 -45 -65 callsubr
        </CharString>
        <CharString name="uni00A0">
          -310 endchar
        </CharString>
        <CharString name="uni00AD">
          -38 196 89 hstem
          41 240 -65 callsubr
        </CharString>
        <CharString name="uogonek">
          5 -208 47 153 93 389 -20 hstemhm
          51 105 46 16 callgsubr
          21 104 hintmask 11111010
          317 -161 rmoveto
          -18 callgsubr
          76 29 55 73 81 vvcurveto
          251 vlineto
          18 -21 16 -30 -29 -24 -16 -18 vhcurveto
          -251 vlineto
          -53 -45 -51 -57 -56 -46 51 53 vhcurveto
          250 vlineto
          18 -24 17 -28 -29 -24 -17 -18 vhcurveto
          -250 vlineto
          -103 92 -92 111 -2 vhcurveto
          -33 -34 -19 -41 -41 vvcurveto
          -53 43 -31 66 vhcurveto
          hintmask 11110110
          22 6 9 13 13 -7 12 -15 hvcurveto
          endchar
        </CharString>
        <CharString name="uring">
          -24 callgsubr
          119 44 104 48 hstem
          51 105 6 44 102 46 6 104 vstem
          257 769 rmoveto
          -83 callsubr
          -50 -679 rmoveto
          -102 callgsubr
          endchar
        </CharString>
        <CharString name="utilde">
          -24 callgsubr
          142 -14 callsubr
          51 105 204 104 hintmask 11011100
          -93 callgsubr
          -59 635 rmoveto
          hintmask 11101100
          -90 callgsubr
          hintmask 11011100
          -91 callsubr
          endchar
        </CharString>
        <CharString name="v">
          -51 35 callsubr
          hstem
          181 11 rmoveto
          -14 6 20 -7 22 hhcurveto
          21 21 7 14 6 hvcurveto
          168 405 rlineto
          2 5 2 6 6 vvcurveto
          25 -47 20 -22 -17 -10 -7 -14 -5 vhcurveto
          -119 -314 -119 316 rlineto
          14 -5 -13 5 -14 hhcurveto
          -28 -41 -20 -25 -5 3 -8 2 -4 hvcurveto
          endchar
        </CharString>
        <CharString name="w">
          9 callgsubr
          hstem
          669 417 -101 callgsubr
          endchar
        </CharString>
        <CharString name="wacute">
          -3 callsubr
          434 641 -107 callsubr
          356 -163 -101 callgsubr
          endchar
        </CharString>
        <CharString name="wcircumflex">
          -3 callsubr
          341 641 -107 callgsubr
          432 -168 -101 callgsubr
          endchar
        </CharString>
        <CharString name="wdieresis">
          9 callgsubr
          125 93 hstem
          227 90 50 90 vstem
          273 676 rmoveto
          -105 callsubr
          257 -259 -101 callgsubr
          endchar
        </CharString>
        <CharString name="wgrave">
          -3 callsubr
          669 417 -101 callgsubr
          -145 569 -105 callgsubr
        </CharString>
        <CharString name="x">
          -66 13 -21 488 -20 hstem
          20 44 rmoveto
          -25 43 -27 23 9 13 4 8 6 vhcurveto
          108 165 108 -165 rlineto
          -9 6 12 -3 9 hhcurveto
          28 39 29 23 7 -4 8 -3 4 hvcurveto
          -125 177 119 169 rlineto
          5 7 2 5 6 vvcurveto
          25 -43 28 -25 -8 -12 -3 -10 -6 vhcurveto
          -102 -159 -102 160 rlineto
          10 -6 -13 2 -6 hhcurveto
          -28 -41 -28 -25 -7 4 -7 3 -4 hvcurveto
          118 -168 -124 -178 rlineto
          -4 -5 -3 -7 -7 vvcurveto
          endchar
        </CharString>
        <CharString name="y">
          -53 -225 90 616 -20 hstem
          -99 callsubr
          endchar
        </CharString>
        <CharString name="yacute">
          -53 -225 90 844 -20 hstem
          -99 callsubr
          319 224 -95 callgsubr
        </CharString>
        <CharString name="ycircumflex">
          -53 -225 90 616 101 127 -20 hstem
          -99 callsubr
          222 224 -94 callsubr
        </CharString>
        <CharString name="ydieresis">
          -53 -225 90 718 93 hstem
          121 90 50 90 vstem
          -99 callsubr
          153 259 -44 callsubr
        </CharString>
        <CharString name="yen">
          31 0 242 -76 76 68 77 348 -20 hstemhm
          82 239 -105 105 -105 244 hintmask 10111000
          82 347 rmoveto
          -22 14 -15 21 vhcurveto
          hintmask 10110100
          99 -68 -99 hlineto
          hintmask 01111000
          -21 -14 -17 -22 -22 14 -15 21 hvcurveto
          hintmask 01110100
          99 -131 hlineto
          hintmask 10111000
          -22 26 -13 27 27 25 13 22 vhcurveto
          hintmask 01111000
          131 103 vlineto
          hintmask 10110010
          18 18 15 23 21 -18 17 -18 hvcurveto
          hintmask 10111000
          -103 68 103 hlineto
          hintmask 10110010
          15 callgsubr
          -79 hlineto
          170 290 rlineto
          2 4 1 6 4 vvcurveto
          21 -34 23 -27 -16 -8 -10 -15 -8 vhcurveto
          -156 -291 -153 291 rlineto
          15 -8 -8 10 -16 hhcurveto
          -28 -34 -23 -21 -4 1 -6 3 -4 hvcurveto
          166 -290 rlineto
          -75 hlineto
          hintmask 10111000
          -21 -14 -17 -23 hvcurveto
          endchar
        </CharString>
        <CharString name="ygrave">
          -53 -225 90 844 -20 hstem
          -99 callsubr
          241 163 -105 callgsubr
        </CharString>
        <CharString name="z">
          30 callsubr
          hstem
          159 87 -88 callgsubr
          endchar
        </CharString>
        <CharString name="zacute">
          30 callsubr
          235 -20 hstem
          314 641 -107 callsubr
          -34 -493 -88 callgsubr
          endchar
        </CharString>
        <CharString name="zcaron">
          30 callsubr
          258 -20 hstem
          111 726 -106 callgsubr
          -53 -564 -88 callgsubr
          endchar
        </CharString>
        <CharString name="zdotaccent">
          30 callsubr
          109 93 hstem
          168 90 vstem
          159 87 -88 callgsubr
          -158 589 -85 callsubr
        </CharString>
        <CharString name="zero">
          41 -6 94 231 85 233 94 hstem
          52 106 76 85 76 106 cntrmask 00011100
          276 -6 -104 callsubr
          -118 -104 rmoveto
          -26 -17 -17 -25 -25 17 -18 26 25 17 18 25 25 -17 17 -25 hvcurveto
          endchar
        </CharString>
        <CharString name="zeroinferior">
          -163 -3 64 266 64 hstem
          38 73 125 72 vstem
          173 -3 -100 callsubr
          endchar
        </CharString>
        <CharString name="zerosuperior">
          -164 337 64 266 64 hstem
          36 73 125 72 vstem
          171 337 -100 callsubr
          endchar
        </CharString>
      <CharString index="0">
        rmoveto
        104 -56 rlineto
        -1 4 3 -2 3 hhcurveto
        15 11 17 17 13 -6 12 -13 8 hvcurveto
        -104 55 rlineto
        3 -5 -6 2 -6 hhcurveto
        -6 -22 callsubr
        -6 hvcurveto
        -104 -56 rlineto
        -13 -7 -5 -12 -12 vvcurveto
        -18 11 -17 15 2 -21 callsubr
        3 vhcurveto
        return
      </CharString>
      <CharString index="1">
        rmoveto
        4 -4 -5 2 -4 hhcurveto
        -14 -10 -17 -16 -12 5 -12 12 -9 hvcurveto
        103 17 callsubr
        6 6 -3 6 hhcurveto
        7 6 3 4 6 hvcurveto
        102 75 rlineto
        13 9 5 12 12 vvcurveto
        16 -10 17 -14 -4 -5 -2 -4 -4 vhcurveto
        -102 -75 rlineto
        return
      </CharString>
      <CharString index="2">
        rmoveto
        -2 4 4 -1 5 hhcurveto
        19 15 22 19 11 -4 9 -11 6 hvcurveto
        -124 63 rlineto
        1 -4 -4 1 -3 hhcurveto
        -20 -14 -22 -19 -11 5 -11 11 -5 hvcurveto
        endchar
      </CharString>
      <CharString index="3">
        -117 rmoveto
        11 6 5 11 11 vvcurveto
        19 -14 22 -20 -3 -4 -1 2 callsubr
        -124 -62 rlineto
        -11 -6 -4 -9 -11 vvcurveto
        -20 15 -22 20 4 4 2 -49 callgsubr
        return
      </CharString>
      <CharString index="4">
        -94 callgsubr
        356 hlineto
        24 11 24 22 26 -13 22 -22 hvcurveto
        -297 230 154 hlineto
        24 11 22 19 23 -13 20 -22 hvcurveto
        -154 hlineto
        return
      </CharString>
      <CharString index="5">
        113 93 92 105 hvcurveto
        251 vlineto
        18 -21 16 -30 -29 -24 -16 -18 vhcurveto
        -251 vlineto
        -53 -45 -51 -57 -56 -46 51 53 vhcurveto
        250 vlineto
        18 -24 17 -28 -29 -24 -17 -18 vhcurveto
        -250 vlineto
        -104 94 -93 113 vhcurveto
        return
      </CharString>
      <CharString index="6">
        rmoveto
        2 4 2 7 5 vvcurveto
        27 -41 18 -26 -15 -12 -7 -12 -4 vhcurveto
        -112 -313 -84 278 rlineto
        19 -6 -14 4 -17 hhcurveto
        -17 -14 -4 -19 -6 hvcurveto
        -85 -276 -111 311 rlineto
        13 -5 -13 6 -14 hhcurveto
        -28 -39 -19 -25 -5 2 -6 2 -6 hvcurveto
        155 -404 rlineto
        -18 7 16 -5 19 hhcurveto
        20 19 8 15 6 hvcurveto
        86 255 87 -258 rlineto
        -13 6 17 -7 20 hhcurveto
        19 17 5 16 6 hvcurveto
        return
      </CharString>
      <CharString index="7">
        227 35 rmoveto
        -23 26 -12 27 26 27 17 callgsubr
        253 vlineto
        4 1 4 1 3 vhcurveto
        207 373 rlineto
        3 6 0 5 4 vvcurveto
        26 -38 18 -28 -17 -10 -8 -16 -8 vhcurveto
        -164 -317 -165 317 rlineto
        16 -9 -9 8 -17 hhcurveto
        -28 -39 -18 -26 -4 1 -5 3 -6 hvcurveto
        207 -373 rlineto
        1 -3 2 -16 callsubr
        return
      </CharString>
      <CharString index="8">
        rmoveto
        6 5 2 6 7 vvcurveto
        15 -16 17 -16 -6 -6 -1 -5 -4 vhcurveto
        -89 -81 rlineto
        -5 -4 -2 -5 -6 vvcurveto
        -16 17 -17 18 7 4 2 5 5 vhcurveto
        240 78 rmoveto
        5 5 3 6 7 vvcurveto
        15 -16 17 -17 -5 -6 -1 -5 -4 vhcurveto
        -89 -81 rlineto
        -5 -4 -2 -5 -6 vvcurveto
        -16 17 -17 17 7 5 2 5 4 vhcurveto
        return
      </CharString>
      <CharString index="9">
        -47 callgsubr
        110 97 95 104 vhcurveto
        0 callgsubr
        -97 89 -110 vhcurveto
        -71 callsubr
        return
      </CharString>
      <CharString index="10">
        20 18 30 73 hhcurveto
        73 26 -57 -51 hvcurveto
        -18 -44 vlineto
        -139 -95 -30 -113 -90 60 -42 73 68 48 37 41 35 hvcurveto
        -35 vlineto
        return
      </CharString>
      <CharString index="11">
        -21 14 -14 20 vhcurveto
        209 hlineto
        18 17 14 21 21 -17 16 -18 hvcurveto
        -209 hlineto
        -20 -14 -16 -21 hvcurveto
        return
      </CharString>
      <CharString index="12">
        -107 callsubr
        endchar
      </CharString>
      <CharString index="13">
        rmoveto
        297 hlineto
        22 13 22 26 22 -11 24 -24 hvcurveto
        -356 hlineto
        -23 -24 -12 -23 hvcurveto
        -661 -54 callsubr
        return
      </CharString>
      <CharString index="14">
        258 -8 rmoveto
        -102 callgsubr
        return
      </CharString>
      <CharString index="15">
        24 -26 10 -27 -26 -27 -10 -24 vhcurveto
        return
      </CharString>
      <CharString index="16">
        hstemhm
        25 106 172 105 hintmask 10110111
        -64 callsubr
        hintmask 10101111
        -97 callgsubr
        hintmask 01110111
        -85 callgsubr
        hintmask 10110111
        -79 callgsubr
        return
      </CharString>
      <CharString index="17">
        52 26 -31 61 hhcurveto
        25 60 9 55 9 -7 25 -21 hvcurveto
        -20 -14 -25 -43 hhcurveto
        return
      </CharString>
      <CharString index="18">
        -19 10 14 -12 18 hhcurveto
        30 34 27 27 4 -1 6 -3 5 hvcurveto
        -140 263 rlineto
        80 20 61 59 119 vvcurveto
        155 -104 49 -126 vhcurveto
        -190 hlineto
        -21 -14 -16 -18 hvcurveto
        225 -60 rmoveto
        75 49 -32 -87 -87 -49 -32 -75 hvcurveto
        -120 238 hlineto
        endchar
      </CharString>
      <CharString index="19">
        rmoveto
        215 307 rlineto
        10 14 6 14 15 vvcurveto
        25 -17 12 -19 vhcurveto
        -289 hlineto
        -20 -13 -20 -23 -24 15 -20 18 hvcurveto
        190 hlineto
        -214 -307 rlineto
        -8 -11 -10 -15 -16 vvcurveto
        -18 11 -20 26 vhcurveto
        311 hlineto
        20 14 20 23 25 -15 19 -19 hvcurveto
        return
      </CharString>
      <CharString index="20">
        rmoveto
        8 14 4 13 12 vvcurveto
        18 -11 12 -23 vhcurveto
        -373 hlineto
        -24 -11 -24 -23 -25 13 -22 22 hvcurveto
        271 hlineto
        -310 -569 rlineto
        -8 -13 -3 -13 -11 vvcurveto
        -18 10 -13 23 vhcurveto
        405 hlineto
        22 13 25 22 23 -13 24 -22 hvcurveto
        -303 hlineto
        return
      </CharString>
</ttFont>
